<svg width="86" height="86" viewBox="0 0 86 86" fill="none" xmlns="http://www.w3.org/2000/svg">
<path d="M82.5568 46.2002C84.369 24.3088 68.0917 5.09331 46.2003 3.28112C24.309 1.46892 5.09347 17.7463 3.28127 39.6376C1.46908 61.529 17.7464 80.7445 39.6378 82.5567C61.5291 84.3689 80.7446 68.0915 82.5568 46.2002Z" fill="#AEDEFF"/>
<path opacity="0.15" d="M42.9174 77.4784C62.0044 77.4784 77.4774 62.0054 77.4774 42.9184C77.4774 23.8314 62.0044 8.3584 42.9174 8.3584C23.8305 8.3584 8.35742 23.8314 8.35742 42.9184C8.35742 62.0054 23.8305 77.4784 42.9174 77.4784Z" fill="white"/>
<path opacity="0.15" d="M37.5975 42.3122C30.0565 38.8802 21.3525 38.5162 13.9745 34.7452C12.5885 34.0362 11.2875 33.1772 10.0435 32.2432C8.95247 35.6062 8.35547 39.1912 8.35547 42.9182C8.35547 44.5602 8.47847 46.1722 8.69947 47.7532C10.1285 47.1282 11.5505 46.4862 13.0665 46.1402C18.1115 44.9892 23.7755 47.6752 26.0755 52.3112C28.3765 56.9462 27.0905 63.0812 23.1225 66.4032C22.0885 67.2682 20.9245 67.9342 19.7175 68.5342C25.8505 74.0922 33.9875 77.4792 42.9165 77.4792C47.4135 77.4792 51.7055 76.6112 55.6465 75.0482C55.6985 74.6782 55.7535 74.3082 55.7905 73.9372C57.0805 61.0192 49.4125 47.6902 37.5975 42.3122Z" fill="white"/>
<path opacity="0.15" d="M72.1358 24.4684C72.2088 25.4404 71.9678 26.3514 71.1987 26.9474C69.9437 27.9204 68.1217 27.3614 66.7007 26.6514C63.4977 25.0514 60.6317 22.8114 58.2427 20.1494C55.4967 17.0904 53.3768 13.4664 52.0248 9.57845C49.1228 8.78745 46.0708 8.35645 42.9178 8.35645C42.7768 8.35645 42.6388 8.36545 42.4978 8.36745C42.5488 11.0274 41.7978 13.8544 39.6388 15.3514C37.5638 16.7894 34.6937 16.5954 32.4117 15.5154C30.6007 14.6584 29.0808 13.3254 27.6418 11.9144C24.0098 13.7074 20.7418 16.1204 17.9688 19.0144C20.4968 20.7074 23.1628 22.2164 25.8498 23.5724C34.7057 28.0404 44.2108 31.3614 52.3348 37.0524C61.1128 43.2024 67.8268 52.1204 71.6498 62.1244C75.3288 56.6314 77.4777 50.0254 77.4777 42.9174C77.4777 36.1324 75.5138 29.8084 72.1358 24.4684Z" fill="white"/>
<path d="M43 19C29.7451 19 19 29.7451 19 43C19 56.2549 29.7451 67 43 67C56.2549 67 67 56.2549 67 43C67 29.7451 56.2549 19 43 19ZM26.6363 42.7133C25.75 42.1161 25.6453 41.0906 26.2348 40.334C27.3651 38.8828 28.7768 37.8571 31.0147 37.8571C33.2526 37.8571 34.6762 38.885 35.7991 40.3401C36.3846 41.0982 36.2025 42.1627 35.3934 42.7126C35.0811 42.9242 34.714 43.0001 34.3303 43.0001C33.7505 43.0001 33.2011 42.7731 32.8608 42.3334C32.4967 41.8602 32.0442 41.2858 31.0147 41.2858C29.9903 41.2858 29.5342 41.863 29.1644 42.3381C28.8255 42.774 28.2779 43 27.6999 43.0001C27.3162 43 26.9485 42.9236 26.6363 42.7133ZM57.812 48.887C55.2793 53.7913 49.4654 56.7143 43.0004 56.7143C36.3716 56.7143 30.4058 53.6891 28.1551 48.8203C27.7627 47.9697 28.1347 46.9579 28.9838 46.5642C29.2074 46.4608 29.4508 46.4073 29.6971 46.4075C30.3575 46.4075 30.9634 46.7943 31.2407 47.3931C32.9461 51.0826 37.6718 53.2857 43.0004 53.2857C48.2078 53.2857 52.8361 51.114 54.7918 47.327C54.9346 47.0494 55.1513 46.8166 55.4179 46.6542C55.6845 46.4919 55.9908 46.4063 56.303 46.4068C56.5743 46.4068 56.8451 46.4734 57.086 46.5992C57.9144 47.0284 58.2415 48.0554 57.812 48.887ZM59.3935 42.7125C59.0812 42.9241 58.7141 43 58.3304 43C57.7506 43 57.2013 42.773 56.8608 42.3333C56.4967 41.8601 56.0443 41.2857 55.0147 41.2857C53.9903 41.2857 53.5343 41.8629 53.1645 42.338C52.8256 42.7739 52.2779 42.9999 51.6999 43C51.3162 43 50.9484 42.9236 50.6362 42.7133C49.75 42.1161 49.6453 41.0906 50.2348 40.334C51.3651 38.8828 52.7768 37.8571 55.0147 37.8571C57.2527 37.8571 58.6763 38.885 59.7993 40.3401C60.3847 41.0982 60.2026 42.1627 59.3935 42.7125Z" fill="#FFF9EF"/>
</svg>
