<svg width="87" height="87" viewBox="0 0 87 87" fill="none" xmlns="http://www.w3.org/2000/svg">
<path d="M82.8732 46.5283C84.6854 24.637 68.4081 5.42144 46.5167 3.60924C24.6254 1.79704 5.40988 18.0744 3.59768 39.9657C1.78548 61.8571 18.0628 81.0726 39.9542 82.8848C61.8455 84.697 81.061 68.4196 82.8732 46.5283Z" fill="#AEDEFF"/>
<path opacity="0.15" d="M43.2338 77.8065C62.3208 77.8065 77.7938 62.3335 77.7938 43.2465C77.7938 24.1596 62.3208 8.68652 43.2338 8.68652C24.1469 8.68652 8.67383 24.1596 8.67383 43.2465C8.67383 62.3335 24.1469 77.8065 43.2338 77.8065Z" fill="white"/>
<path opacity="0.15" d="M37.9139 42.6403C30.3729 39.2083 21.6689 38.8443 14.2909 35.0733C12.9049 34.3643 11.6039 33.5053 10.3599 32.5713C9.26887 35.9343 8.67188 39.5193 8.67188 43.2463C8.67188 44.8883 8.79488 46.5003 9.01588 48.0813C10.4449 47.4563 11.8669 46.8143 13.3829 46.4683C18.4279 45.3173 24.0919 48.0033 26.3919 52.6393C28.6929 57.2743 27.4069 63.4093 23.4389 66.7313C22.4049 67.5963 21.2409 68.2623 20.0339 68.8623C26.1669 74.4203 34.3039 77.8073 43.2329 77.8073C47.7299 77.8073 52.0219 76.9393 55.9629 75.3763C56.0149 75.0063 56.0699 74.6363 56.1069 74.2653C57.3969 61.3473 49.7289 48.0183 37.9139 42.6403Z" fill="white"/>
<path opacity="0.15" d="M72.4522 24.7966C72.5252 25.7686 72.2842 26.6796 71.5152 27.2756C70.2602 28.2486 68.4382 27.6896 67.0172 26.9796C63.8142 25.3796 60.9482 23.1396 58.5592 20.4776C55.8132 17.4186 53.6932 13.7946 52.3412 9.90657C49.4392 9.11557 46.3872 8.68457 43.2342 8.68457C43.0932 8.68457 42.9552 8.69357 42.8142 8.69557C42.8652 11.3556 42.1142 14.1826 39.9552 15.6796C37.8802 17.1176 35.0102 16.9236 32.7282 15.8436C30.9172 14.9866 29.3972 13.6536 27.9582 12.2426C24.3262 14.0356 21.0582 16.4486 18.2852 19.3426C20.8132 21.0356 23.4792 22.5446 26.1662 23.9006C35.0222 28.3686 44.5272 31.6896 52.6512 37.3806C61.4292 43.5306 68.1432 52.4486 71.9662 62.4526C75.6452 56.9596 77.7942 50.3536 77.7942 43.2456C77.7942 36.4606 75.8302 30.1366 72.4522 24.7966Z" fill="white"/>
<path d="M51.2646 39.152C51.7246 39 52.2016 38.837 52.7366 38.648C55.8526 37.555 60.1216 36.057 64.5906 36.057C65.0436 36.057 65.4976 36.1 65.9516 36.133C66.6816 32.78 66.9716 30.086 63.8916 29.098C59.0216 27.536 54.0656 33.606 51.2326 36.175C51.1166 36.279 51.2846 37.739 51.2646 39.152Z" fill="#FFF9EF"/>
<path d="M64.5906 50.9485C60.1216 50.9485 55.8536 49.4495 52.7346 48.3575C52.1976 48.1685 51.7216 48.0055 51.2646 47.8525C51.2846 49.2655 51.1166 50.7265 51.2326 50.8315C54.0656 53.4005 59.0216 59.4705 63.8916 57.9085C66.9716 56.9205 66.6826 54.2265 65.9516 50.8735C65.4966 50.9055 65.0426 50.9485 64.5906 50.9485Z" fill="#FFF9EF"/>
<path d="M66.55 37.3331C60.696 36.6641 54.737 39.2641 51.331 40.3641C51.129 40.4291 50.752 43.5031 50.752 43.5031C50.752 43.5031 51.129 46.5771 51.331 46.6421C54.737 47.7421 60.695 50.3421 66.55 49.6731C72.752 48.9641 69.939 46.2131 69.939 43.5031C69.939 40.7931 72.752 38.0421 66.55 37.3331Z" fill="#FFF9EF"/>
<path d="M48.3746 32.3086C45.6206 32.3086 45.0346 34.1576 43.1586 34.1576C41.2836 34.1576 40.6976 32.3086 37.9436 32.3086C35.1896 32.3086 36.5956 40.6796 36.5956 43.5016C36.5956 46.3246 35.1886 54.6956 37.9436 54.6956C40.6986 54.6956 41.2836 52.8456 43.1586 52.8456C45.0336 52.8456 45.6196 54.6946 48.3746 54.6946C51.1286 54.6946 49.7226 46.3236 49.7226 43.5006C49.7226 40.6796 51.1286 32.3086 48.3746 32.3086Z" fill="#FFF9EF"/>
<path d="M35.0529 47.8535C34.5929 48.0055 34.1159 48.1685 33.5809 48.3565C30.4649 49.4495 26.1959 50.9485 21.7269 50.9485C21.2739 50.9485 20.8199 50.9055 20.3659 50.8725C19.6359 54.2255 19.346 56.9195 22.426 57.9075C27.296 59.4695 32.2519 53.3995 35.0849 50.8305C35.2009 50.7265 35.0329 49.2665 35.0529 47.8535Z" fill="#FFF9EF"/>
<path d="M21.7276 36.057C26.1966 36.057 30.4646 37.556 33.5836 38.648C34.1206 38.836 34.5967 39 35.0536 39.153C35.0336 37.74 35.2016 36.279 35.0856 36.174C32.2526 33.606 27.2967 27.535 22.4267 29.097C19.3457 30.085 19.6356 32.779 20.3666 36.132C20.8206 36.1 21.2756 36.057 21.7276 36.057Z" fill="#FFF9EF"/>
<path d="M19.7676 49.6731C25.6216 50.3421 31.5806 47.7421 34.9866 46.6421C35.1886 46.5771 35.5656 43.5031 35.5656 43.5031C35.5656 43.5031 35.1886 40.4301 34.9866 40.3641C31.5806 39.2641 25.6226 36.6641 19.7676 37.3331C13.5656 38.0421 16.3786 40.7931 16.3786 43.5021C16.3786 46.2121 13.5656 48.9641 19.7676 49.6731Z" fill="#FFF9EF"/>
</svg>
