<svg width="28" height="28" viewBox="0 0 28 28" fill="none" xmlns="http://www.w3.org/2000/svg">
<path fill-rule="evenodd" clip-rule="evenodd" d="M10.5 1.4585C10.9832 1.4585 11.375 1.85025 11.375 2.3335V3.80421C12.1557 3.79183 13.0233 3.79183 13.9871 3.79183H14.0129C14.9767 3.79183 15.8443 3.79183 16.625 3.80421V2.3335C16.625 1.85025 17.0168 1.4585 17.5 1.4585C17.9832 1.4585 18.375 1.85025 18.375 2.3335V3.86601C20.1389 3.97659 21.494 4.2624 22.6098 5.073C23.1792 5.48677 23.6801 5.9876 24.0938 6.5571C24.7773 7.49782 25.0833 8.59959 25.2307 9.95939C25.375 11.2919 25.375 12.9714 25.375 15.114V15.1802C25.375 16.5333 25.375 17.6969 25.3407 18.6968C25.2658 20.8824 25.0293 22.4889 24.0938 23.7766C23.6801 24.346 23.1792 24.8469 22.6098 25.2606C21.3221 26.1961 19.7156 26.4326 17.53 26.5075C16.5298 26.5418 15.3662 26.5418 14.0126 26.5418H13.9472C11.8046 26.5418 10.125 26.5418 8.79256 26.3975C7.43276 26.2502 6.33099 25.9441 5.39028 25.2606C4.82077 24.8469 4.31995 24.346 3.90618 23.7766C3.22271 22.8358 2.91668 21.7341 2.76935 20.3742C2.62499 19.0418 2.62499 17.3623 2.625 15.2196V15.1141C2.62499 12.9714 2.62499 11.2919 2.76935 9.95939C2.91668 8.59959 3.22271 7.49782 3.90618 6.5571C4.31995 5.9876 4.82077 5.48677 5.39028 5.073C6.50598 4.2624 7.86109 3.97659 9.625 3.86601V2.3335C9.625 1.85025 10.0168 1.4585 10.5 1.4585ZM9.625 5.62029C8.03594 5.72957 7.11873 5.98032 6.4189 6.48879C5.99796 6.79462 5.62779 7.16479 5.32196 7.58573C4.89136 8.1784 4.64036 8.93698 4.50917 10.1479C4.3762 11.3752 4.375 12.96 4.375 15.1668C4.375 17.3737 4.3762 18.9585 4.50917 20.1858C4.64036 21.3967 4.89136 22.1553 5.32196 22.7479C5.62779 23.1689 5.99796 23.5391 6.4189 23.8448C7.01157 24.2755 7.77015 24.5264 8.98106 24.6577C10.2083 24.7907 11.7931 24.7918 14 24.7918C14.9897 24.7918 15.8571 24.7917 16.6271 24.7792C16.6322 24.2254 16.6495 23.8178 16.7076 23.4507C17.1622 20.5803 19.4135 18.3291 22.2839 17.8744C22.6509 17.8163 23.0586 17.7991 23.6124 17.7939C23.625 17.0239 23.625 16.1565 23.625 15.1668C23.625 12.96 23.6238 11.3752 23.4908 10.1479C23.3596 8.93698 23.1086 8.1784 22.678 7.58573C22.3722 7.16479 22.0021 6.79462 21.5811 6.48879C20.8812 5.98032 19.9641 5.72957 18.375 5.62029V5.8335C18.375 6.31674 17.9832 6.7085 17.5 6.7085C17.0168 6.7085 16.625 6.31674 16.625 5.8335V5.55442C15.8555 5.54189 14.9889 5.54183 14 5.54183C13.0111 5.54183 12.1445 5.54189 11.375 5.55442V5.8335C11.375 6.31674 10.9832 6.7085 10.5 6.7085C10.0168 6.7085 9.625 6.31674 9.625 5.8335V5.62029ZM23.5464 19.5451C23.0739 19.5506 22.7969 19.565 22.5577 19.6028C20.436 19.939 18.7721 21.6029 18.436 23.7246C18.3982 23.9637 18.3837 24.2407 18.3783 24.7132C19.9653 24.6038 20.8817 24.3529 21.5811 23.8448C22.0021 23.5391 22.3722 23.1689 22.678 22.7479C23.1862 22.0485 23.4369 21.1321 23.5464 19.5451Z" fill="#FFF9EF"/>
<path d="M9.33333 10.5002C9.33333 11.1445 8.811 11.6668 8.16667 11.6668C7.52234 11.6668 7 11.1445 7 10.5002C7 9.85584 7.52234 9.3335 8.16667 9.3335C8.811 9.3335 9.33333 9.85584 9.33333 10.5002ZM9.33333 15.1668C9.33333 15.8112 8.811 16.3335 8.16667 16.3335C7.52234 16.3335 7 15.8112 7 15.1668C7 14.5225 7.52234 14.0002 8.16667 14.0002C8.811 14.0002 9.33333 14.5225 9.33333 15.1668ZM15.1667 10.5002C15.1667 11.1445 14.6443 11.6668 14 11.6668C13.3556 11.6668 12.8333 11.1445 12.8333 10.5002C12.8333 9.85584 13.3556 9.3335 14 9.3335C14.6443 9.3335 15.1667 9.85584 15.1667 10.5002ZM15.1667 15.1668C15.1667 15.8112 14.6443 16.3335 14 16.3335C13.3556 16.3335 12.8333 15.8112 12.8333 15.1668C12.8333 14.5225 13.3556 14.0002 14 14.0002C14.6443 14.0002 15.1667 14.5225 15.1667 15.1668ZM15.1667 19.8335C15.1667 20.4778 14.6443 21.0002 14 21.0002C13.3556 21.0002 12.8333 20.4778 12.8333 19.8335C12.8333 19.1891 13.3556 18.6668 14 18.6668C14.6443 18.6668 15.1667 19.1891 15.1667 19.8335ZM21 10.5002C21 11.1445 20.4777 11.6668 19.8333 11.6668C19.189 11.6668 18.6667 11.1445 18.6667 10.5002C18.6667 9.85584 19.189 9.3335 19.8333 9.3335C20.4777 9.3335 21 9.85584 21 10.5002ZM21 15.1668C21 15.8112 20.4777 16.3335 19.8333 16.3335C19.189 16.3335 18.6667 15.8112 18.6667 15.1668C18.6667 14.5225 19.189 14.0002 19.8333 14.0002C20.4777 14.0002 21 14.5225 21 15.1668ZM9.33333 19.8335C9.33333 20.4778 8.811 21.0002 8.16667 21.0002C7.52234 21.0002 7 20.4778 7 19.8335C7 19.1891 7.52234 18.6668 8.16667 18.6668C8.811 18.6668 9.33333 19.1891 9.33333 19.8335Z" fill="#FFF9EF"/>
</svg>
