<svg width="70" height="71" viewBox="0 0 70 71" fill="none" xmlns="http://www.w3.org/2000/svg">
<path fill-rule="evenodd" clip-rule="evenodd" d="M40.9186 17.9907C36.2178 14.8823 26.7004 15.534 22.3481 18.4421C17.9378 15.534 8.47863 14.8823 3.71986 17.9907C-3.24407 22.6032 0.818175 34.9366 5.75108 40.7521C4.99677 56.7454 8.01421 69.6302 17.3574 69.5302C21.8263 70.132 10.8579 47.5206 22.3483 44.3121C33.7809 47.5206 22.8127 70.1318 27.281 69.5302C36.6244 69.6302 39.6423 56.7454 38.9457 40.7521C43.8201 34.9366 47.9409 22.6032 40.9186 17.9907ZM22.3483 24.9095C17.5895 24.9095 13.7596 20.0965 13.7596 18.7928C13.7596 17.4893 17.5895 21.1993 22.3483 21.1993C27.0493 21.1993 30.8792 17.4893 30.8792 18.7928C30.8792 20.0967 27.0493 24.9095 22.3483 24.9095ZM37.5531 33.2321C36.5665 32.9815 36.4501 30.675 37.2048 27.9678C38.0171 25.2605 39.4679 23.2552 40.4544 23.4557C41.441 23.7063 41.6153 26.0125 40.8026 28.7198C39.9901 31.427 38.5395 33.4326 37.5531 33.2321Z" fill="#AEDEFF"/>
<path d="M68.9315 4.65735C68.7037 5.35336 67.9753 5.62705 67.3406 5.4009L67.3376 5.39987L60.2936 2.69369L60.2887 2.69263C59.6436 2.41153 59.3062 1.69399 59.5362 1.0458L59.5383 1.03899C59.8212 0.385811 60.5494 0.105557 61.1891 0.333583L61.1921 0.334609L68.2342 3.04076C68.8788 3.27111 69.228 4.04665 68.9315 4.65735Z" fill="#E7D2FF" stroke="#E7D2FF" stroke-width="0.2"/>
<path d="M47.1607 52.5338L43.6916 51.1983L43.5974 51.1615L43.6342 51.0674L44.5792 48.673L44.6149 48.5808L44.7081 48.6165L48.1762 49.9521L48.2703 49.9889L48.2336 50.083L47.2896 52.4774L47.2528 52.5696L47.1607 52.5338Z" fill="#E7D2FF" stroke="#E7D2FF" stroke-width="0.2"/>
<path d="M39.177 69.6059L38.5849 68.119L38.5709 68.0826L38.5842 68.0457L44.7011 52.0225L44.7359 51.9313L44.8281 51.9641L45.9076 52.3536L46.0037 52.3885L45.9669 52.4836L39.3626 69.6051L39.2707 69.8438L39.177 69.6059Z" fill="#E7D2FF" stroke="#E7D2FF" stroke-width="0.2"/>
<path d="M51.5535 50.714L41.6914 46.9255L41.5992 46.8897L41.634 46.7975L42.8494 43.5424L42.8853 43.4443L42.9822 43.485L43.76 43.8157L52.9766 19.7376L53.0123 19.6444L53.1065 19.6802L61.238 22.8259L61.3311 22.8616L61.2954 22.9548L52.0787 47.0339L52.8954 47.3135L52.9945 47.3474L52.9557 47.4454L51.6824 50.6576L51.6456 50.7497L51.5535 50.714ZM51.8856 44.9991L49.3255 44.0276L49.2353 43.9929L49.2671 43.9016L49.5455 43.0918L49.5794 42.9937L49.6764 43.0315L52.2915 44.0429L52.7155 42.8273C52.3109 42.6763 51.8945 42.5182 51.4791 42.3589C51.0322 42.1876 50.5854 42.0164 50.1534 41.8559L50.0573 41.82L50.0951 41.725C50.2093 41.4406 50.3196 41.2341 50.3773 40.9797L50.4026 40.8687L50.5094 40.9086C50.9425 41.0696 51.3902 41.2406 51.837 41.4118C52.2522 41.5709 52.6674 41.7295 53.0704 41.8801L53.5395 40.6545C52.6987 40.3389 51.8636 39.9864 50.9823 39.6841L50.8978 39.6553L50.9169 39.5677C50.979 39.2929 51.0928 39.0123 51.2134 38.7836L51.2548 38.7042L51.3382 38.7369C52.2272 39.0869 53.0625 39.3987 53.8973 39.7093L54.3654 38.4837C53.5308 38.1751 52.6466 37.8686 51.8025 37.5093L51.7026 37.4665L51.753 37.3707C51.8672 37.1542 51.9736 36.8896 52.0312 36.6351L52.0565 36.5242L52.1632 36.5641C52.9986 36.8746 53.8867 37.2238 54.7333 37.5816L55.2013 36.3589C54.5513 36.0968 53.8905 35.8348 53.229 35.5743C52.537 35.3017 51.8443 35.0297 51.1644 34.7548L51.0616 34.713L51.1141 34.6153C51.1687 34.5116 51.2107 34.3963 51.2537 34.269C51.2962 34.1435 51.3403 34.0047 51.3963 33.8651L51.4331 33.772L51.5262 33.8097C52.2055 34.084 52.8977 34.3564 53.5898 34.6291C54.2498 34.8891 54.9095 35.1508 55.5592 35.4127L56.0283 34.1861C55.6216 34.0154 55.2073 33.854 54.7903 33.6943C54.3437 33.5232 53.8949 33.3513 53.4563 33.1647L53.3565 33.122L53.4069 33.0261C53.521 32.8095 53.6273 32.5457 53.685 32.2915L53.7114 32.1748L53.821 32.2215C54.6617 32.5789 55.5492 32.9284 56.3861 33.2409L56.8552 32.0134C56.4488 31.8427 56.0342 31.6823 55.6173 31.5225C55.1707 31.3514 54.7218 31.1794 54.2833 30.9929L54.1824 30.9502L54.2338 30.8544C54.2888 30.7501 54.3306 30.6341 54.3754 30.511C54.4193 30.3906 54.4659 30.2625 54.5281 30.1444L54.5685 30.0679L54.6491 30.0957C55.5324 30.3982 56.3695 30.7102 57.2131 31.0662L57.6811 29.8435C56.8458 29.5297 55.998 29.1701 55.1121 28.8211L55.0083 28.7803L55.0608 28.6816C55.1157 28.5774 55.1576 28.4621 55.2024 28.3392C55.2463 28.2186 55.2926 28.09 55.3551 27.9716L55.3964 27.8942L55.4789 27.9249C55.9117 28.0858 56.3589 28.2569 56.8056 28.428C57.2207 28.5871 57.6359 28.7459 58.039 28.8964L58.5071 27.6707C58.1037 27.5201 57.6889 27.3612 57.2746 27.2024C56.8276 27.0311 56.3811 26.86 55.949 26.6993L55.8529 26.6635L55.8906 26.5684C55.9446 26.4341 55.9884 26.3138 56.0328 26.1919C56.0771 26.0701 56.1223 25.9465 56.178 25.8086L56.2136 25.7213L56.303 25.7511C57.1853 26.0535 58.0376 26.4131 58.8669 26.7246L59.336 25.498L55.308 23.9439L55.2207 23.9102L55.2486 23.8208L55.486 23.0689L55.518 22.9678L55.617 23.0047L59.6939 24.5528L60.169 23.3752L53.5259 20.8096L44.5963 44.1454L51.2393 46.711L51.8856 44.9991Z" fill="#E7D2FF" stroke="#E7D2FF" stroke-width="0.2"/>
<path d="M61.8648 22.5938L52.8096 19.0848L52.7174 19.049L52.7522 18.9568L53.6803 16.4615L53.7161 16.3674L53.8102 16.4032L62.9144 19.9043L63.0085 19.941L62.9717 20.0342L61.9937 22.5374L61.9569 22.6296L61.8648 22.5938Z" fill="#E7D2FF" stroke="#E7D2FF" stroke-width="0.2"/>
<path d="M59.7765 18.0802L57.5017 17.2181L57.4085 17.1823L57.4443 17.0892L62.44 3.94767L62.4757 3.85256L62.5698 3.8903L64.8516 4.80328L64.9438 4.84001L64.908 4.93121L59.9054 18.0228L59.8696 18.1159L59.7765 18.0802Z" fill="#E7D2FF" stroke="#E7D2FF" stroke-width="0.2"/>
</svg>
