<svg width="69" height="71" viewBox="0 0 69 71" fill="none" xmlns="http://www.w3.org/2000/svg">
<path d="M61.8273 17.7953C61.8273 24.6967 52.8021 41.2675 49.0603 47.0444C48.4242 48.0264 45.8078 47.8439 45.1717 46.8618C41.4299 41.0849 31.2246 24.6967 31.2246 17.7953C31.2246 9.3447 38.0753 2.49414 46.526 2.49414C54.9767 2.49414 61.8273 9.34476 61.8273 17.7953Z" fill="#E7D2FF"/>
<path d="M63.4895 17.7953C63.4895 24.6967 53.2842 41.0849 49.5423 46.8618C48.9063 47.8438 47.4699 47.8438 46.8338 46.8618C43.092 41.0849 32.8867 24.6967 32.8867 17.7953C32.8867 9.34471 39.7374 2.49414 48.1881 2.49414C56.6388 2.49414 63.4895 9.34473 63.4895 17.7953Z" fill="#AEDEFF"/>
<path opacity="0.7" d="M57.0842 26.6936C61.9983 21.7795 61.9983 13.8122 57.0842 8.89817C52.17 3.98408 44.2026 3.98408 39.2885 8.89816C34.3743 13.8122 34.3743 21.7795 39.2885 26.6936C44.2026 31.6077 52.17 31.6077 57.0842 26.6936Z" fill="#FFF9EF"/>
<path opacity="0.7" d="M48.1877 29.629C54.7235 29.629 60.0219 24.3307 60.0219 17.795C60.0219 11.2592 54.7235 5.96094 48.1877 5.96094C41.6519 5.96094 36.3535 11.2592 36.3535 17.795C36.3535 24.3307 41.6519 29.629 48.1877 29.629Z" fill="#FFF9EF"/>
<path d="M58.8962 16.8933C58.7235 13.6538 56.5221 10.9321 53.7804 10.5875C51.5998 10.3135 49.6595 11.5461 48.6267 13.5402C47.5915 11.448 45.6332 10.0214 43.4114 10.0819C40.5858 10.159 38.2905 12.7245 38.1095 16.0259C37.9899 18.2074 38.7816 20.2124 40.0813 21.564L48.0575 28.0606C48.402 28.3412 48.8513 28.3538 49.1952 28.0929L57.0078 22.1655C58.2544 20.9331 59.0102 19.0324 58.8962 16.8933Z" fill="#AEDEFF"/>
<path d="M52.1564 15.9353C52.3784 14.9229 51.9001 13.9579 51.0882 13.7799C50.2763 13.602 49.4382 14.2784 49.2163 15.2909C48.9943 16.3033 49.4726 17.2683 50.2845 17.4462C51.0965 17.6242 51.9345 16.9477 52.1564 15.9353Z" fill="#FFF9EF"/>
<path d="M54.3162 19.2554C54.8128 18.5354 54.7472 17.6289 54.1698 17.2308C53.5924 16.8326 52.7218 17.0935 52.2253 17.8135C51.7287 18.5335 51.7943 19.44 52.3717 19.8382C52.9491 20.2364 53.8197 19.9755 54.3162 19.2554Z" fill="#FFF9EF"/>
<path d="M47.0159 17.4506C47.8278 17.2726 48.3061 16.3076 48.0842 15.2952C47.8623 14.2827 47.0242 13.6063 46.2123 13.7842C45.4004 13.9622 44.9221 14.9272 45.144 15.9396C45.3659 16.952 46.204 17.6285 47.0159 17.4506Z" fill="#FFF9EF"/>
<path d="M44.9316 19.8318C45.509 19.4336 45.5745 18.5271 45.078 17.8071C44.5814 17.087 43.7108 16.8261 43.1334 17.2243C42.556 17.6225 42.4904 18.529 42.987 19.249C43.4835 19.969 44.3541 20.2299 44.9316 19.8318Z" fill="#FFF9EF"/>
<path d="M51.8498 20.2084C51.665 20.0937 51.5301 19.9101 51.4829 19.6978C51.206 18.451 50.0939 17.5186 48.7636 17.5186C47.4215 17.5186 46.3019 18.4676 46.0375 19.7311C45.9941 19.9386 45.8803 20.1267 45.7034 20.2433C45.0052 20.7038 44.5639 21.5224 44.6417 22.4377C44.7393 23.5872 45.674 24.5129 46.8243 24.6007C47.3925 24.6441 47.9222 24.4874 48.3511 24.194C48.6243 24.007 48.9836 24.007 49.2568 24.194C49.6586 24.4689 50.149 24.6238 50.6766 24.6066C51.8817 24.5672 52.8834 23.6066 52.9689 22.4038C53.0348 21.4786 52.5708 20.6561 51.8498 20.2084Z" fill="#FFF9EF"/>
<path d="M0 42.881H1.76003L1.87178 40.8975L0 42.881Z" fill="#E7D2FF"/>
<path d="M0 42.881H1.76003L1.87178 40.8975L0 42.881Z" fill="#E7D2FF"/>
<path d="M24.6609 41.8019L24.5352 70.0492L24.282 70.0338L17.5173 69.6157L5.92686 68.9002L1.37695 68.6201V41.6773C1.37695 41.6752 1.37695 41.6732 1.37695 41.6732V41.2788L11.9708 32.5498L24.6609 41.8019Z" fill="#FFF9EF"/>
<path d="M50.3875 40.2471V67.6143L24.502 70.049L24.6689 41.7842L25.3182 41.7439L50.3875 40.2471Z" fill="#FFEFD4"/>
<path d="M12.0158 30.7949L26.7043 42.0952V44.0648L11.9835 32.5501L0.0371094 42.8076V40.6286L12.0158 30.7949Z" fill="#E7D2FF"/>
<path d="M52.437 39.8465L26.7347 42.0951L12.0117 30.7951L13.1507 30.7339L39.5159 29.3184L48.0956 36.3089L52.437 39.8465Z" fill="#E7D2FF"/>
<path d="M26.7051 44.0641L52.2546 41.6895L52.4146 39.8457L26.7051 42.0946V44.0641Z" fill="#E7D2FF"/>
<path opacity="0.2" d="M52.437 39.847L26.7347 42.0956L12.0117 30.7955L13.1507 30.7344C14.816 31.8624 18.1886 33.6409 22.488 33.2537C28.69 32.6947 31.9872 32.4717 34.892 35.4327C37.1968 37.7811 42.9446 36.2993 48.0956 36.3094L52.437 39.847Z" fill="#E7D2FF"/>
<path opacity="0.6" d="M24.282 70.0342L17.5173 69.6162L5.92686 68.9006L1.37695 68.6205V41.6777C1.37695 41.8878 2.14815 42.5992 2.26757 42.7743C2.89252 43.6927 3.43825 44.7274 3.74611 45.7972C4.20743 47.3993 3.82439 49.2865 4.80047 50.7269C5.37501 51.5743 6.34696 51.8451 7.286 52.0943C9.5666 52.7007 12.1911 53.1702 14.1021 54.6477C15.5292 55.7514 16.2839 57.5203 16.3405 59.2943C16.5979 67.2862 22.8662 69.8026 24.282 70.0342Z" fill="#AEDEFF"/>
<path opacity="0.2" d="M24.5012 70.0492C24.4641 70.0523 24.4126 70.0502 24.3457 70.042C24.3972 70.0441 24.4497 70.0471 24.5012 70.0492Z" fill="#D8DEE8"/>
<path d="M17.6445 50.9079V69.6153L17.3491 69.6003L6.00977 68.9003V50.9079C6.00977 48.0997 8.22641 45.8662 11.0347 45.8662H12.4324C15.2396 45.8662 17.6445 48.0997 17.6445 50.9079Z" fill="#E7D2FF"/>
<path opacity="0.3" d="M17.2919 69.6003L6.00977 68.9003V50.9079C6.00977 48.0997 8.22641 45.8662 11.0347 45.8662H11.1189C10.6702 46.381 9.27475 48.725 11.2446 50.5587C13.5512 52.7073 17.703 55.5558 14.9928 59.9209C12.2825 64.2872 14.477 66.5609 17.0719 69.3138C17.1699 69.4176 17.2446 69.5092 17.2919 69.6003Z" fill="#E7D2FF"/>
<path d="M54.5666 55.3598C54.5666 55.3598 53.6362 67.3796 52.3478 68.1647C51.8614 68.4615 51.2265 68.2769 50.579 67.8713C49.5131 67.2024 48.4127 65.931 47.8855 65.2159C47.0387 64.067 47.0877 59.99 48.9401 58.1018C50.5395 56.4714 51.0244 51.0005 51.0417 49.5411C51.0417 49.5405 51.0417 49.5404 51.0417 49.5404C51.0322 49.311 51.11 49.1768 51.11 49.1768C50.9029 48.9994 50.8184 47.4705 50.9081 46.7005C50.9986 45.9305 52.8576 47.3855 52.8576 47.3855L54.5666 55.3598Z" fill="#E7D2FF"/>
<path d="M52.6224 50.2272C52.6224 50.2272 52.6231 57.7038 52.3341 58.2266C52.0451 58.7495 49.2742 67.9204 51.5579 68.3825C53.8417 68.8447 67.5792 69.3407 68.0819 66.487C68.5845 63.6334 63.8033 51.1548 64.672 48.5645C62.5103 48.8867 52.6224 50.2272 52.6224 50.2272Z" fill="#AEDEFF"/>
<path d="M65.0553 48.3792C64.9768 48.6841 64.9089 48.9899 64.8789 49.2761C64.7364 50.6522 56.7654 50.5892 53.8625 50.7101C50.9604 50.8309 51.7849 49.845 52.4271 49.8183C52.552 49.8131 52.6313 49.7179 52.6708 49.5623C52.835 48.918 52.3164 47.2407 51.5417 46.6739C50.5802 45.9707 51.1577 49.1746 51.1577 49.1746C50.7654 48.8189 50.4432 46.9516 50.9391 46.467C51.435 45.9818 63.608 45.9395 64.8314 46.0097C65.8006 46.0648 65.3539 47.2188 65.0553 48.3792Z" fill="#E7D2FF"/>
<path d="M65.0403 59.1325C65.0385 60.8364 62.6439 62.2054 59.692 62.1903C56.74 62.1752 54.3485 60.7816 54.3504 59.0777C54.3523 57.3738 56.7468 56.0048 59.6988 56.0199C62.6507 56.035 65.0422 57.4286 65.0403 59.1325Z" fill="#E7D2FF"/>
<path opacity="0.3" d="M50.9827 56.2932C51.0753 56.8369 51.2645 57.3827 51.1592 57.9402C50.9649 58.9681 50.0841 59.5314 49.5092 60.3076C48.8492 61.1996 48.5965 62.3754 48.6129 63.4893C48.6288 64.6059 49.4288 65.2998 49.9329 66.1976C50.2192 66.7068 50.4323 67.2837 50.5793 67.8711C49.5133 67.2022 48.413 65.9308 47.8858 65.2157C47.0389 64.0668 47.1354 59.9879 48.9878 58.0996C50.5872 56.4692 51.0426 50.9995 51.1369 49.537C51.3544 50.2983 51.5049 51.0987 51.5506 51.8916C51.6095 52.9242 51.2128 53.886 51.0204 54.879C50.9272 55.36 50.8992 55.8077 50.9827 56.2932Z" fill="#AEDEFF"/>
<path opacity="0.2" d="M65.055 48.3795C64.9765 48.6844 64.9087 48.9903 64.8786 49.2764C64.7362 50.6525 56.7651 50.5895 53.8623 50.7104C50.9601 50.8312 51.7847 49.8454 52.4268 49.8186C52.5518 49.8134 52.631 49.7182 52.6705 49.5626C52.9605 49.4105 53.5448 49.2266 54.1341 49.7705C54.965 50.537 55.858 49.9948 57.2561 49.5883C58.6541 49.1818 59.7278 49.3808 60.7726 49.6856C61.6347 49.9374 63.8781 48.4822 65.055 48.3795Z" fill="#E7D2FF"/>
<path d="M62.8514 58.3941C62.8322 57.9332 62.4597 57.5791 62.0191 57.5974C61.6476 57.6129 61.349 57.9298 61.2739 58.2599L58.0974 58.3922C57.9952 58.0695 57.6712 57.7785 57.2996 57.7939C56.8591 57.8123 56.5174 58.1984 56.5366 58.6593C56.5458 58.8805 56.6369 59.0764 56.7774 59.2201C56.6494 59.3737 56.5748 59.5761 56.584 59.7962C56.6029 60.2523 56.9721 60.6159 57.4081 60.5977C57.8073 60.5811 58.1241 60.2713 58.1599 59.861L61.3171 59.7296C61.3869 60.1354 61.7283 60.4175 62.1276 60.4009C62.5635 60.3827 62.9013 59.9939 62.8823 59.5378C62.8734 59.3223 62.7856 59.1279 62.6502 58.9862C62.7832 58.8302 62.8608 58.6199 62.8514 58.3941Z" fill="#FFFCF7"/>
<path d="M23.8883 16.0852C22.0832 12.5524 17.902 10.9603 14.5493 12.5291C11.1966 14.0979 9.94207 18.2336 11.7472 21.7664C13.5523 25.2992 17.7335 26.8913 21.0862 25.3225C24.4389 23.7537 25.6935 19.618 23.8883 16.0852Z" fill="#AEDEFF"/>
<path opacity="0.15" d="M22.9722 16.2237C21.2836 13.2131 17.6079 11.9804 14.7623 13.4703C11.9166 14.9602 10.9786 18.6086 12.6672 21.6192C14.3558 24.6298 18.0315 25.8625 20.8771 24.3726C23.7228 22.8826 24.6608 19.2343 22.9722 16.2237Z" fill="#FFFCF7"/>
<path opacity="0.15" d="M17.0576 19.4038C15.6849 19.7258 14.5144 20.6016 13.1239 20.8588C12.8626 20.907 12.5952 20.9253 12.3263 20.9267C12.5718 21.5141 12.9068 22.08 13.3357 22.6022C13.5246 22.8323 13.726 23.045 13.9366 23.243C14.05 23.0033 14.1604 22.7618 14.3172 22.5521C14.839 21.8536 15.8824 21.6269 16.7141 22.0316C17.5457 22.4361 18.085 23.4328 17.9526 24.3206C17.918 24.5519 17.8437 24.7691 17.7563 24.9817C19.191 25.1075 20.6357 24.7156 21.7934 23.7649C22.3766 23.2861 22.8332 22.7075 23.1644 22.0688C23.1286 22.0115 23.0931 21.9538 23.0552 21.8978C21.7364 19.9507 19.2084 18.8994 17.0576 19.4038Z" fill="#FFFCF7"/>
<path opacity="0.15" d="M19.4826 13.2263C19.6039 13.3547 19.6775 13.508 19.6464 13.6734C19.5956 13.9434 19.295 14.0591 19.0292 14.111C18.4298 14.2279 17.8004 14.2191 17.1844 14.1005C16.4764 13.9643 15.7845 13.6822 15.1618 13.2814C14.6945 13.4795 14.2493 13.7442 13.8405 14.0799C13.8222 14.095 13.8054 14.1109 13.7873 14.1262C14.1 14.4935 14.3279 14.9696 14.2202 15.4092C14.1165 15.8316 13.7221 16.11 13.3019 16.2016C12.9685 16.2744 12.6179 16.2493 12.2691 16.205C12.0045 16.8429 11.8583 17.529 11.8318 18.2297C12.3543 18.1978 12.8737 18.1253 13.378 18.0291C15.0404 17.7122 16.6549 17.1655 18.3633 17.0981C20.2091 17.0252 22.1057 17.5599 23.7525 18.5546C23.5975 17.3932 23.1162 16.2389 22.2983 15.2428C21.5172 14.2917 20.5349 13.6147 19.4826 13.2263Z" fill="#FFFCF7"/>
<path d="M20.6375 16.2781C20.7386 15.7679 20.4329 15.1423 19.8685 15.0884C19.3042 15.0347 19.1754 15.6125 19.0772 16.0756C18.9788 16.5385 18.7729 16.8199 18.5245 17.0239C18.2759 17.228 17.754 17.6566 17.229 18.0877C17.229 18.0877 16.5922 18.6106 16.2938 18.8556C15.9956 19.1005 15.5473 19.0864 14.7995 18.7588C14.0519 18.431 13.4071 19.2926 13.5488 19.8958C13.6904 20.499 14.26 20.6607 14.5057 20.7063C14.7511 20.752 15.1126 20.8373 15.0114 21.3476C14.9103 21.8579 15.216 22.4835 15.7804 22.5373C16.3447 22.591 16.4735 22.0132 16.5718 21.5502C16.6701 21.0873 16.876 20.8058 17.1244 20.6018C17.373 20.3977 17.8949 19.9691 18.4199 19.538C18.4199 19.538 19.0567 19.0152 19.355 18.7703C19.6532 18.5254 20.1016 18.5393 20.8493 18.8671C21.5969 19.1948 22.2416 18.3332 22.1 17.73C21.9583 17.1268 21.3887 16.9651 21.1431 16.9196C20.8976 16.8739 20.5363 16.7884 20.6375 16.2781Z" fill="#FFF9EF"/>
</svg>
