<svg width="81" height="76" viewBox="0 0 81 76" fill="none" xmlns="http://www.w3.org/2000/svg">
<g clip-path="url(#clip0_96_136)">
<path d="M63.4001 22.8468H61.2723C61.2723 22.6683 61.095 22.4893 60.9177 22.4893H54.8888C54.7115 22.4893 54.5931 22.6683 54.5931 22.8468H52.4064C51.3425 22.9659 50.8105 23.8594 50.8105 25.7657V44.8863C51.047 49.8897 52.9383 52.5108 55.9529 53.6422H55.3026C55.1844 53.6422 55.0665 53.7615 55.0665 53.8806V55.2507C55.0665 55.4297 55.1844 55.5488 55.3026 55.5488H60.5041C60.6222 55.5488 60.7404 55.4297 60.7404 55.2507V53.8806C60.7404 53.7615 60.6222 53.6422 60.5041 53.6422H59.9128C62.8683 52.5108 64.8188 49.8895 64.9961 44.8863V25.7657C65.0553 23.8594 64.464 22.9659 63.4001 22.8468ZM55.9529 55.1316H55.4803V54.0594H55.9529V55.1316ZM56.8391 55.1316H56.3665V54.0594H56.8391V55.1316ZM57.6668 55.1316H57.253V54.0596C57.3714 54.1189 57.5485 54.1189 57.6668 54.1787V55.1316ZM58.5534 55.1316H58.1396V54.1787C58.2578 54.1191 58.4351 54.1191 58.5534 54.0596V55.1316ZM59.44 55.1316H59.026V54.0594H59.44V55.1316ZM60.3267 55.1316H59.8538V54.0594H60.3267V55.1316ZM64.464 34.9985H51.4015C51.4015 31.9011 51.4015 28.8628 51.3427 25.7657C51.3427 24.991 51.4015 23.5022 52.4657 23.4424H54.5933C54.5933 23.6212 54.7117 23.7403 54.889 23.7403H60.9179C61.0952 23.7403 61.2133 23.6212 61.2725 23.4424H63.4003C64.405 23.5022 64.4642 24.991 64.4642 25.7657V34.9985H64.464Z" fill="#AEDEFF"/>
<path d="M55.5975 63.0536C55.5975 63.5899 56.0111 64.0665 56.543 64.0665H57.5479V66.8062H52.2877V66.6277C52.2877 66.2705 51.9918 66.0318 51.6962 66.0318H47.2633C46.9678 66.0318 46.7314 66.2703 46.7314 66.6277V66.8062H45.6675V16.5327H58.8483C59.1438 16.5327 59.4396 16.2944 59.4396 15.9368C59.4396 15.5792 59.1438 15.3415 58.8483 15.3415H45.6675V10.7549H43.0078V15.3415H27.8171C27.5216 15.3415 27.226 15.5792 27.226 15.9368C27.226 16.2944 27.5216 16.5327 27.8171 16.5327H43.0076V66.8064H28.9993V64.0667H29.8859C30.4177 64.0667 30.8315 63.5901 30.8315 63.0538V56.0255H26.1621V63.0538C26.1621 63.5901 26.6351 64.0667 27.1079 64.0667H27.9942V67.3428C27.9942 67.5812 28.2307 67.8191 28.5264 67.8191H43.0076V73.4778H45.6673V67.8191H46.7312V68.0576C46.7312 68.3554 46.9677 68.6533 47.2631 68.6533H49.0363V73.9547H49.9232V68.6533H51.696C51.9916 68.6533 52.2875 68.3554 52.2875 68.0576V67.8191H58.0797C58.3752 67.8191 58.6118 67.581 58.6118 67.3428V64.0667H59.2617C59.7935 64.0667 60.2665 63.5901 60.2665 63.0538V56.0255H55.5971V63.0536H55.5975Z" fill="#AEDEFF"/>
<path d="M31.3636 55.2507V53.8805C31.3636 53.7615 31.2451 53.702 31.1269 53.6424C35.087 52.5108 37.6288 49.8895 37.8651 44.8863V25.7657C37.9243 23.8594 37.1558 22.9659 35.7963 22.8468H31.8362C31.8362 22.6683 31.6589 22.4893 31.5407 22.4893H25.5118C25.3345 22.4893 25.1574 22.6683 25.1574 22.8468H21.2563C19.8378 22.9659 19.0693 23.8594 19.1281 25.7657V44.8863C19.3648 49.8897 21.9062 52.5108 25.8663 53.6424C25.7481 53.7019 25.63 53.7615 25.63 53.8805V55.2507C25.63 55.4297 25.7481 55.549 25.8663 55.549H31.1269C31.2451 55.5488 31.3636 55.4297 31.3636 55.2507ZM19.6605 34.9985V25.7657C19.6605 24.5741 19.8968 23.5022 21.2563 23.4423H25.1574C25.1574 23.6212 25.3345 23.7403 25.5118 23.7403H31.5407C31.6589 23.7403 31.8362 23.6212 31.8362 23.4423H35.7373C37.0968 23.5022 37.3331 24.5741 37.3331 25.7657V34.9985H19.6605ZM26.5169 55.1316H26.103V54.0594H26.5169V55.1316ZM27.4035 55.1316H26.9893V54.0594H27.4035V55.1316ZM28.2897 55.1316H27.8169V54.1192C27.9943 54.1192 28.1124 54.1787 28.2897 54.1787V55.1316ZM29.1765 55.1316H28.7035V54.1787C28.8812 54.1787 28.9993 54.1192 29.1765 54.1192V55.1316ZM30.0041 55.1316H29.5901V54.0594H30.0041V55.1316ZM30.8906 55.1316H30.4767V54.0594H30.8906V55.1316Z" fill="#AEDEFF"/>
<path d="M28.8819 17.1865H28.1133V21.7735H28.8819V17.1865Z" fill="#AEDEFF"/>
<path d="M58.2583 17.1865H57.5488V21.7735H58.2583V17.1865Z" fill="#AEDEFF"/>
<path d="M15.4299 23.9969L18.2197 23.5279L29.3299 3.43612L29.0215 3.20864L14.5395 23.2286L15.4299 23.9969ZM17.4543 20.593C17.9192 20.4311 18.3918 20.6246 18.6127 21.0679C18.7736 21.537 18.5814 22.0131 18.1415 22.2358C17.676 22.3979 17.2038 22.2043 16.9828 21.7607C16.822 21.2916 17.0139 20.8157 17.4543 20.593Z" fill="#E7D2FF"/>
<path d="M20.1064 38.0365C20.4631 35.241 19.1573 33.8511 17.2485 32.2776C15.994 30.8103 17.6613 28.0579 18.2838 26.2863C17.3979 26.0239 16.5126 25.762 15.6268 25.5C14.1245 28.9261 12.597 32.3907 11.0948 35.8174C10.2005 38.0797 10.3736 39.9969 11.2934 41.6315C12.5332 43.539 14.3307 43.8566 16.4927 42.9572C18.4227 42.0704 19.7257 40.5343 20.1064 38.0365ZM15.7121 41.8667C11.7496 43.4588 11.064 37.2024 14.2474 34.3518C18.6517 31.4278 20.5372 39.9027 15.7121 41.8667Z" fill="#E7D2FF"/>
<path d="M16.8715 22.1255C16.8844 22.1904 16.897 22.2558 16.9097 22.3198L18.2857 22.0136C18.2729 21.9487 18.2604 21.8842 18.2476 21.8196C18.2476 21.8196 18.2352 21.7547 18.2222 21.6897L16.8337 21.9315C16.8206 22.0347 16.833 22.0997 16.8715 22.1255Z" fill="#E7D2FF"/>
<path d="M9.48119 27.457C7.07688 26.7234 5.2035 26.4087 3.14495 28.2868C1.25987 29.9832 0.723543 31.9308 1.07304 34.04C1.56716 36.4097 2.85016 37.6915 5.11264 37.6613C6.95397 37.5595 8.60292 36.572 10.008 34.5777C11.9878 31.4076 13.9849 28.1941 15.9645 25.024C15.2542 24.4305 14.5008 23.8193 13.7898 23.2254C12.7232 24.7535 11.3899 27.685 9.48119 27.457ZM2.44918 34.1001C1.36926 28.9701 9.35337 25.7917 9.40865 31.1065C8.86798 35.4203 3.31146 38.2833 2.44918 34.1001Z" fill="#E7D2FF"/>
<path d="M16.4387 24.7006L16.7832 25.4399L17.9128 25.7546L18.6004 23.802L17.7878 24.7705L16.4387 24.7006Z" fill="#E7D2FF"/>
<path d="M21.6612 15.356L26.2927 2.46219L25.9333 2.33139L17.4339 19.1868L21.6612 15.356Z" fill="#E7D2FF"/>
<path d="M78.9101 33.3922C78.7651 33.8309 78.3274 34.0195 77.9246 33.9164L77.844 33.8916L77.8411 33.8906L73.3181 32.1389L73.3142 32.1379C72.8839 31.949 72.6573 31.4661 72.8113 31.0285L72.8144 31.0217C73.0038 30.5814 73.4911 30.3926 73.9192 30.5465L73.9211 30.5475L78.4421 32.2981L78.4422 32.2971C78.8751 32.4529 79.1101 32.9773 78.9101 33.3922Z" fill="#E7D2FF" stroke="#E7D2FF" stroke-width="0.2"/>
<path d="M64.8862 64.3889L62.6582 63.5244L62.5651 63.4886L62.6018 63.3945L63.208 61.8451L63.2447 61.7519L63.3369 61.7887L65.5639 62.6532L65.658 62.689L65.6213 62.7831L65.0151 64.3325L64.9784 64.4246L64.8862 64.3889Z" fill="#E7D2FF" stroke="#E7D2FF" stroke-width="0.2"/>
<path d="M59.7392 75.4152L59.3589 74.4525L59.3448 74.4171L59.3581 74.3812L63.2858 64.0134L63.3205 63.9212L63.4128 63.9541L64.1059 64.2062L64.202 64.2411L64.1653 64.3362L59.9248 75.4145L59.8329 75.6552L59.7392 75.4152Z" fill="#E7D2FF" stroke="#E7D2FF" stroke-width="0.2"/>
<path d="M67.7063 63.2103L61.3746 60.7586L61.2824 60.7238L61.3161 60.6306L62.0967 58.5255L62.1336 58.4265L62.2296 58.4682L62.695 58.6676L68.5996 43.122L68.6354 43.0279L68.7295 43.0647L73.9509 45.0998L74.0431 45.1356L74.0074 45.2288L68.1037 60.7753L68.5922 60.9439L68.6912 60.9778L68.6525 61.0748L67.8352 63.1539L67.7985 63.246L67.7063 63.2103ZM67.8869 59.4999L66.2759 58.8843L66.1856 58.8496L66.2174 58.7583L66.3962 58.2339L66.4301 58.1359L66.5271 58.1737L68.1718 58.8143L68.4203 58.0958C68.1705 58.0016 67.9142 57.9031 67.6585 57.8044C67.3714 57.6935 67.0846 57.582 66.8074 57.4782L66.7123 57.4424L66.75 57.3483C66.8249 57.1603 66.8926 57.0326 66.9289 56.8718L66.9542 56.7599L67.062 56.7998C67.3402 56.904 67.6273 57.0153 67.914 57.126C68.1691 57.2245 68.424 57.3228 68.672 57.4164L68.9489 56.6886C68.4182 56.4869 67.8952 56.2657 67.3408 56.074L67.2563 56.0452L67.2754 55.9577C67.3161 55.7763 67.3901 55.5915 67.4687 55.4414L67.511 55.362L67.5945 55.3947C68.153 55.6163 68.6785 55.8144 69.2035 56.0112L69.4784 55.2844C68.9533 55.0893 68.3962 54.8939 67.8646 54.6658L67.7656 54.6231L67.8161 54.5273C67.8882 54.3894 67.9548 54.2215 67.991 54.0605L68.0163 53.9486L68.123 53.9885C68.6486 54.1854 69.2065 54.4079 69.7403 54.6345L70.0153 53.9086C69.6087 53.7436 69.1958 53.5789 68.7822 53.4148C68.3379 53.2384 67.8927 53.0611 67.456 52.8832L67.3541 52.8424L67.4046 52.7446C67.4383 52.6801 67.4656 52.6077 67.4932 52.5254C67.5202 52.4451 67.5481 52.3537 67.5846 52.2622L67.6223 52.1691L67.7154 52.2069C68.1514 52.3843 68.5954 52.5601 69.0397 52.7365C69.4521 52.9002 69.8644 53.0654 70.2708 53.2303L70.5468 52.5025C70.2964 52.3973 70.0413 52.2976 69.7842 52.1984C69.4975 52.0877 69.2089 51.9756 68.9266 51.8545L68.8277 51.8118L68.8771 51.7169C68.9493 51.5788 69.0167 51.4103 69.053 51.2492L69.0794 51.1324L69.1899 51.1793C69.7178 51.4054 70.2745 51.6264 70.8014 51.8251L71.0773 51.0973C70.827 50.9921 70.5719 50.8915 70.3147 50.7922C70.0282 50.6816 69.7393 50.5703 69.4571 50.4494L69.3582 50.4066L69.4077 50.3108C69.4417 50.2458 69.4683 50.1736 69.4973 50.0935C69.5253 50.0159 69.5566 49.9301 69.598 49.8511L69.6374 49.7756L69.719 49.8034C70.2747 49.9952 70.8019 50.1933 71.3329 50.418L71.6078 49.6922C71.0819 49.492 70.5461 49.2657 69.9905 49.0452L69.8877 49.0034L69.9392 48.9056C69.9731 48.8407 69.9989 48.7683 70.0278 48.6884C70.0558 48.6108 70.0872 48.525 70.1286 48.4459L70.1689 48.3675L70.2524 48.3992C70.5304 48.5034 70.8178 48.6137 71.1045 48.7244C71.3595 48.8229 71.6144 48.9213 71.8624 49.0148L72.1383 48.288C71.8895 48.1941 71.6342 48.0959 71.3794 47.9976C71.0924 47.8867 70.8056 47.7763 70.5283 47.6724L70.4332 47.6366L70.4709 47.5415C70.5054 47.4552 70.5334 47.3779 70.5619 47.2989C70.5904 47.2201 70.619 47.1394 70.655 47.0495L70.6907 46.9612L70.78 46.992C71.3345 47.1835 71.8741 47.4109 72.3939 47.6087L72.6698 46.8818L70.1168 45.8887L70.0295 45.855L70.0574 45.7656L70.2101 45.2789L70.2411 45.1778L70.3411 45.2157L72.9264 46.2045L73.2047 45.508L69.006 43.8742L63.2985 58.9075L67.4963 60.5412L67.8869 59.4999Z" fill="#E7D2FF" stroke="#E7D2FF" stroke-width="0.2"/>
<path d="M74.3257 45.0164L68.5124 42.7455L68.4212 42.7098L68.455 42.6176L69.0515 41.0035L69.0863 40.9084L69.1814 40.9452L75.026 43.2108L75.1202 43.2466L75.0834 43.3397L74.4556 44.9591L74.4188 45.0532L74.3257 45.0164Z" fill="#E7D2FF" stroke="#E7D2FF" stroke-width="0.2"/>
<path d="M72.9852 42.0952L71.5246 41.5379L71.4315 41.5021L71.4672 41.4089L74.674 32.906L74.7108 32.81L74.8049 32.8487L76.2708 33.4384L76.361 33.4751L76.3262 33.5673L73.1141 42.0378L73.0793 42.131L72.9852 42.0952Z" fill="#E7D2FF" stroke="#E7D2FF" stroke-width="0.2"/>
</g>
<defs>
<clipPath id="clip0_96_136">
<rect width="81" height="76" fill="white"/>
</clipPath>
</defs>
</svg>
