<svg width="83" height="71" viewBox="0 0 83 71" fill="none" xmlns="http://www.w3.org/2000/svg">
<path fill-rule="evenodd" clip-rule="evenodd" d="M56.6079 9.58635C64.1876 7.15035 72.3392 7.15092 79.9184 9.58798C81.8448 10.2074 82.6961 12.3402 81.9697 14.1455L77.0338 26.4117C77.0158 26.4561 76.9979 26.5012 76.9797 26.5468C76.8032 26.9895 76.6065 27.4827 76.3063 27.8606C75.9156 28.3524 75.3873 28.6258 74.6674 28.7033C74.2414 28.7492 73.8588 28.4411 73.813 28.0151C73.767 27.589 74.0752 27.2065 74.5012 27.1606C74.8711 27.1207 74.9957 27.0158 75.0914 26.8954C75.2436 26.7037 75.3569 26.4222 75.5808 25.8658L80.5301 13.5663C80.9515 12.5191 80.435 11.3841 79.4434 11.0652C72.173 8.72743 64.3535 8.72688 57.0827 11.0637C56.091 11.3824 55.5744 12.5173 55.9956 13.5645L60.946 25.8716C61.1679 26.4234 61.2804 26.7032 61.4319 26.8943C61.5273 27.0147 61.6515 27.1195 62.0206 27.1596C62.4465 27.2058 62.7544 27.5887 62.7081 28.0147C62.6618 28.4407 62.279 28.7485 61.853 28.7022C61.1334 28.624 60.6058 28.3501 60.2159 27.8583C59.917 27.4811 59.7209 26.989 59.545 26.5475C59.5265 26.5012 59.5083 26.4554 59.4902 26.4104L54.556 14.1436C53.8298 12.3382 54.6814 10.2055 56.6079 9.58635ZM64.1063 12.4659C65.424 11.92 66.8365 11.639 68.263 11.639C69.6894 11.639 71.1018 11.92 72.4196 12.4659C73.7375 13.0118 74.9348 13.8118 75.9435 14.8204C76.2465 15.1234 76.2465 15.6147 75.9435 15.9176C75.6405 16.2206 75.1493 16.2206 74.8462 15.9176C73.9817 15.0531 72.9554 14.3673 71.8258 13.8994C70.6962 13.4316 69.4856 13.1907 68.263 13.1907C67.0403 13.1907 65.8297 13.4316 64.7001 13.8994C63.5704 14.3673 62.5441 15.0531 61.6796 15.9176C61.3766 16.2206 60.8854 16.2206 60.5824 15.9176C60.2794 15.6147 60.2794 15.1234 60.5824 14.8204C61.591 13.8118 62.7884 13.0118 64.1063 12.4659ZM63.6154 16.2885C64.9607 15.2821 66.5964 14.7395 68.2765 14.7424C69.9566 14.7454 71.5904 15.2936 72.9321 16.3047C73.2744 16.5626 73.3427 17.0491 73.0848 17.3913C72.827 17.7335 72.3405 17.8019 71.9983 17.544C70.9248 16.7351 69.6178 16.2965 68.2738 16.2942C66.9297 16.2918 65.6212 16.7258 64.5449 17.5309C64.2018 17.7877 63.7155 17.7176 63.4589 17.3745C63.2022 17.0314 63.2723 16.5451 63.6154 16.2885ZM64.3836 20.9989V22.4007C64.4213 22.3859 64.4598 22.3712 64.4991 22.3564C65.3562 22.0351 66.612 21.7251 68.263 21.7251C69.9138 21.7251 71.1697 22.0351 72.0267 22.3564C72.066 22.3712 72.1045 22.3859 72.1422 22.4007V20.9989C71.9826 20.9149 71.7625 20.8112 71.4818 20.7059C70.7871 20.4454 69.7154 20.1734 68.263 20.1734C66.8104 20.1734 65.7387 20.4454 65.044 20.7059C64.7633 20.8112 64.5432 20.9149 64.3836 20.9989ZM72.9181 20.5614L73.3836 19.9407C73.579 20.0872 73.6939 20.3171 73.6939 20.5614V23.8889C73.6939 24.6548 73.4672 25.4035 73.0424 26.0407L72.5331 26.8046C72.2782 27.187 72.1422 27.6362 72.1422 28.0957V31.0192C72.1422 31.9694 71.7936 32.8864 71.1623 33.5965C70.5794 34.2524 69.8295 34.6604 69.0388 34.8207V34.9146C69.0388 35.5115 69.6885 35.8814 70.2017 35.5767L71.8449 34.601C73.4457 33.6505 75.5132 34.1601 76.489 35.7458L76.6822 36.0597C76.9068 36.4247 76.793 36.9025 76.4281 37.1272C76.0632 37.3517 75.5852 37.2379 75.3607 36.873L75.1675 36.5591C74.6358 35.6951 73.5094 35.4174 72.637 35.9353L70.994 36.9109C69.4464 37.8298 67.4871 36.7145 67.4871 34.9146V34.8207C66.6964 34.6604 65.9465 34.2524 65.3635 33.5965C64.7323 32.8864 64.3836 31.9694 64.3836 31.0192V28.0957C64.3836 27.6362 64.2476 27.187 63.9927 26.8046L63.4835 26.0407C63.0586 25.4035 62.8319 24.6548 62.8319 23.8889V20.5614C62.8319 20.3171 62.9469 20.0872 63.1423 19.9407L63.6078 20.5614C63.1423 19.9407 63.142 19.9409 63.1423 19.9407L63.1449 19.9387L63.1482 19.9363L63.1563 19.9304C63.1626 19.9258 63.1703 19.9202 63.1797 19.9136C63.1985 19.9004 63.2236 19.8833 63.2548 19.8627C63.3175 19.8216 63.4053 19.7669 63.5184 19.7033C63.7445 19.5761 64.0714 19.4134 64.4991 19.253C65.3562 18.9317 66.612 18.6217 68.263 18.6217C69.9138 18.6217 71.1697 18.9317 72.0267 19.253C72.4544 19.4134 72.7814 19.5761 73.0075 19.7033C73.1205 19.7669 73.2083 19.8216 73.271 19.8627C73.3023 19.8833 73.3274 19.9004 73.3461 19.9136C73.3555 19.9202 73.3633 19.9258 73.3696 19.9304L73.3777 19.9363L73.381 19.9387L73.3824 19.9397L73.3836 19.9407C73.3838 19.9409 73.3836 19.9407 72.9181 20.5614ZM72.1328 24.0974C71.974 24.0143 71.757 23.9125 71.4818 23.8093C70.7871 23.5488 69.7154 23.2768 68.263 23.2768C66.8104 23.2768 65.7387 23.5488 65.044 23.8093C64.7688 23.9125 64.5518 24.0143 64.393 24.0974C64.4277 24.4834 64.5584 24.8558 64.7746 25.18L65.2838 25.9439C65.7087 26.5811 65.9353 27.3299 65.9353 28.0957V31.0192C65.9353 31.5893 66.1446 32.1395 66.5233 32.5656C67.4492 33.6072 69.0767 33.6072 70.0026 32.5656C70.3813 32.1395 70.5905 31.5893 70.5905 31.0192V28.0957C70.5905 27.3299 70.8172 26.5811 71.242 25.9439L71.7513 25.18C71.9674 24.8558 72.0982 24.4834 72.1328 24.0974ZM68.263 27.1561C68.6914 27.1561 69.0388 27.5035 69.0388 27.932V31.0354C69.0388 31.4639 68.6914 31.8112 68.263 31.8112C67.8345 31.8112 67.4871 31.4639 67.4871 31.0354V27.932C67.4871 27.5035 67.8345 27.1561 68.263 27.1561Z" fill="#E7D2FF"/>
<path d="M72.1369 44.9921C71.5804 44.9828 71.0337 45.0478 70.5163 45.1591C69.8621 45.2984 69.5595 46.0222 69.9305 46.5512C69.9305 46.5559 69.9329 46.5582 69.9354 46.5605C69.9378 46.5628 69.9402 46.5652 69.9402 46.5698C70.1648 46.8946 70.5748 47.0524 70.9751 46.9689C71.3266 46.8853 71.6976 46.8482 72.0686 46.8482C74.8412 46.8482 77.0867 49.057 76.9403 51.7206C76.8788 52.8668 76.3753 53.9085 75.5885 54.6907L75.6266 54.7612C74.4659 53.335 72.6479 52.4167 70.6041 52.4167C69.6474 52.4167 68.6906 52.6208 67.8314 53.0199L63.1745 55.173C62.7742 55.3586 62.3154 55.0802 62.3154 54.6626V53.4283C62.3154 52.2682 61.8565 51.2102 61.1048 50.4028L57.1508 46.2172C56.9067 45.9573 56.4479 46.1151 56.4479 46.4678V48.9828C54.6222 49.3819 53.1871 51.1359 52.8161 52.9457C52.7672 53.1777 52.5525 53.3447 52.3084 53.3447C51.8983 53.3447 51.5664 53.6603 51.5664 54.0501V54.2542C51.5664 56.3145 53.3237 57.9851 55.4911 57.9851V59.4607C55.4911 61.586 57.1899 63.3307 59.3767 63.5349V69.7065C59.3767 69.8922 59.5427 70.0499 59.7477 70.0499H61.9444C62.1494 70.0499 62.3154 69.8922 62.3154 69.6973V64.2415L63.6822 69.6973C63.7408 69.9014 63.936 70.0499 64.1606 70.0499H66.2401C66.4744 70.0499 66.6501 69.8365 66.5916 69.6323L65.0713 63.5535H68.9905L67.4702 69.6323C67.4116 69.8365 67.5874 70.0499 67.8217 70.0499H69.9012C70.1257 70.0499 70.321 69.9014 70.3796 69.6973L71.5213 65.14L72.4493 66.0221C72.6543 66.217 72.7129 66.5047 72.5958 66.7553L71.3266 69.5673C71.2094 69.7901 71.3852 70.0499 71.6488 70.0499H73.7771C73.9235 70.0499 74.0602 69.9664 74.109 69.8365L76.5693 64.3702C76.8231 63.8319 76.95 63.2472 76.95 62.6625V58.4491C76.95 57.7216 76.8146 57.0242 76.5663 56.3785C78.0197 55.1686 78.9294 53.3823 78.9026 51.3958C78.8538 47.8877 75.8273 45.0292 72.1369 44.9921ZM55.2892 53.1083C55.2892 52.7752 55.5718 52.5173 55.9109 52.5173C56.2614 52.5173 56.5327 52.7859 56.5327 53.1083V53.9895C56.5327 54.3119 56.2614 54.5698 55.9109 54.5805C55.5605 54.5805 55.2892 54.3119 55.2892 53.9895V53.1083Z" fill="#AEDEFF"/>
<path d="M3.5018 53.8991C3.63527 53.8739 3.77242 53.8753 3.90537 53.9031C4.03832 53.931 4.16447 53.9848 4.27657 54.0615C4.38868 54.1383 4.48454 54.2364 4.55865 54.3502C4.63277 54.464 4.68369 54.5914 4.7085 54.7249C6.27132 62.9489 11.6947 67.2523 16.2366 67.2523H20.2449C20.2242 65.7349 20.2345 63.691 20.3378 61.2446C20.5545 56.0214 24.4255 51.2525 27.6667 48.7647C30.5054 46.5867 33.6538 43.8203 34.6138 42.9635H47.1349L46.7633 64.0214C46.7577 64.2934 46.8598 64.5566 47.0473 64.7538C47.2348 64.951 47.4926 65.0662 47.7646 65.0743C48.2311 65.0484 48.6974 65.1288 49.1284 65.3094C49.5593 65.49 49.9436 65.7661 50.2523 66.1168C50.8693 67.0639 51.1493 68.1911 51.0471 69.3168H16.2366C10.84 69.3168 4.45043 64.4343 2.67806 55.1038C2.62764 54.8348 2.68609 54.5568 2.84056 54.3309C2.99502 54.105 3.23286 53.9497 3.5018 53.8991ZM31.1454 65.6668H39.3518C40.3221 65.6668 40.673 67.3287 40.6834 67.5145C40.6957 67.7814 40.8093 68.0336 41.0011 68.2196C41.1929 68.4057 41.4484 68.5116 41.7156 68.5158H41.7466C42.0132 68.5133 42.268 68.4056 42.4555 68.2161C42.6431 68.0267 42.7481 67.7708 42.7479 67.5042C42.7479 66.6474 41.9324 63.6023 39.3518 63.6023H34.7789C35.4825 62.9132 36.0437 62.0925 36.4305 61.1868C38.0305 57.4398 36.2757 53.2385 36.1931 53.0527C36.085 52.8008 35.8812 52.6022 35.6266 52.5006C35.3721 52.399 35.0876 52.4026 34.8357 52.5108C34.5838 52.6189 34.3852 52.8227 34.2836 53.0772C34.182 53.3318 34.1856 53.6163 34.2938 53.8682C34.3144 53.8991 35.7905 57.4604 34.5312 60.3817C34.1687 61.1589 33.6483 61.8522 33.0032 62.4173C32.358 62.9825 31.6023 63.4071 30.7841 63.6642C30.5551 63.7473 30.3629 63.9086 30.2415 64.1198C30.12 64.3309 30.0771 64.5781 30.1203 64.8178C30.1636 65.0575 30.2902 65.2742 30.4778 65.4296C30.6654 65.5849 30.9018 65.6689 31.1454 65.6668ZM47.8802 30.2854H51.0874C53.4905 30.2854 56.7596 27.2207 57.2695 23.9536L47.7068 22.3196C47.5402 22.2911 47.3832 22.2222 47.2494 22.1189C47.1157 22.0156 47.0094 21.8811 46.9398 21.7271C46.6302 21.0396 45.5329 19.1702 44.1909 18.685C44.0033 18.6156 43.8363 18.4996 43.7058 18.3479C43.5752 18.1962 43.4854 18.0139 43.4446 17.8179L43.0421 14.6118C43.2412 14.0467 43.4736 13.4938 43.7378 12.9561L41.5422 14.0296C41.4109 14.094 41.2948 14.1855 41.2015 14.2982C41.1083 14.4108 41.04 14.542 41.0013 14.683L40.0238 18.2339C39.9578 18.4782 39.804 18.6896 39.5917 18.8273C39.3795 18.9651 39.1238 19.0195 38.8738 18.9803C38.2573 18.953 37.6542 19.1658 37.1913 19.5738C36.1508 20.4657 35.5944 22.3 35.5841 24.8796C35.5583 30.9213 35.3621 38.2121 35.2847 40.8959H47.1236L46.849 31.3476C46.845 31.2096 46.8687 31.0721 46.9188 30.9434C46.9689 30.8147 47.0443 30.6973 47.1405 30.5983C47.2368 30.4992 47.3519 30.4205 47.4792 30.3668C47.6064 30.313 47.7431 30.2854 47.8812 30.2854H47.8802ZM48.2518 41.9282C48.1125 41.928 47.9762 41.9691 47.8603 42.0464C47.7444 42.1236 47.654 42.2336 47.6006 42.3623C47.5472 42.4909 47.5331 42.6326 47.5603 42.7692C47.5874 42.9059 47.6545 43.0314 47.753 43.13C47.8515 43.2285 47.977 43.2955 48.1137 43.3227C48.2503 43.3498 48.392 43.3358 48.5207 43.2824C48.6493 43.2289 48.7593 43.1386 48.8366 43.0226C48.9138 42.9067 48.955 42.7704 48.9548 42.6311C48.9545 42.4448 48.8804 42.2661 48.7486 42.1344C48.6168 42.0026 48.4382 41.9284 48.2518 41.9282Z" fill="#AEDEFF"/>
<path d="M1.29703 42.4441C1.66544 42.0002 2.26413 41.9818 2.68943 42.2868L2.77218 42.3525L2.77452 42.3546L7.39269 46.5686L7.39556 46.5719C7.8144 46.9892 7.86046 47.6539 7.48073 48.0908L7.47632 48.0964L7.40504 48.0259L7.47542 48.096C7.053 48.5199 6.39707 48.5145 5.96612 48.1398L5.96431 48.139L1.34561 43.9238L1.34598 43.9228C0.913234 43.544 0.876423 42.8316 1.29703 42.4441Z" fill="#E7D2FF" stroke="#E7D2FF" stroke-width="0.2"/>
<path d="M32.5704 12.1794L34.843 14.2571L34.9176 14.3247L34.849 14.3989L33.3973 15.9567L33.3304 16.0294L33.2567 15.9621L30.9842 13.8844L30.91 13.8158L30.9782 13.7425L32.4298 12.1848L32.4977 12.1124L32.5704 12.1794Z" fill="#E7D2FF" stroke="#E7D2FF" stroke-width="0.2"/>
<path d="M43.8891 1.46809L43.897 2.79259L43.8967 2.83158L43.8709 2.86105L34.3152 13.3429L34.2486 13.4147L34.1748 13.3505L33.4599 12.7244L33.3831 12.6569L33.4525 12.5809L43.7156 1.40194L43.888 1.21419L43.8891 1.46809Z" fill="#E7D2FF" stroke="#E7D2FF" stroke-width="0.2"/>
<path d="M28.6321 12.2504L35.0979 18.1506L35.171 18.2167L35.1046 18.2907L33.1839 20.4283L33.1151 20.5056L33.0406 20.4327L32.552 19.9547L18.1856 35.6855L18.1179 35.7601L18.0437 35.6915L12.7191 30.8105L12.6454 30.7432L12.7127 30.6696L27.0791 14.9388L26.5478 14.4876L26.468 14.4199L26.5399 14.3428L28.4915 12.2559L28.5593 12.1835L28.6321 12.2504ZM26.6629 16.5596L28.3323 18.071L28.4049 18.1357L28.3415 18.21L27.8821 18.7485L27.8148 18.8274L27.7382 18.7568L26.0383 17.1991L25.3681 17.9802C25.6306 18.2153 25.8995 18.4592 26.1675 18.7034C26.4607 18.9706 26.7535 19.2377 27.0383 19.4919L27.1147 19.5604L27.0449 19.6351C26.8694 19.8211 26.7242 19.9441 26.6039 20.121L26.5399 20.215L26.455 20.1389C26.1693 19.8839 25.8755 19.6166 25.5824 19.3496C25.3144 19.1054 25.0459 18.8623 24.7844 18.628L24.0752 19.4037C24.625 19.8983 25.1584 20.4166 25.7426 20.9121L25.8117 20.9701L25.761 21.0443C25.6291 21.2387 25.4553 21.4217 25.2922 21.562L25.2251 21.6199L25.1593 21.5591C24.5838 21.0251 24.0378 20.5362 23.4918 20.0484L22.7838 20.8236C23.3306 21.3097 23.9157 21.8106 24.4548 22.3388L24.5322 22.415L24.4502 22.4858C24.2977 22.6171 24.1368 22.7872 24.0166 22.9641L23.9522 23.0591L23.8673 22.9829C23.3206 22.4948 22.7465 21.9599 22.2047 21.4321L21.4968 22.2072C21.9153 22.6018 22.3423 22.9991 22.7699 23.3959C23.2214 23.8149 23.6734 24.234 24.1149 24.6512L24.1954 24.7276L24.1118 24.7999C24.0394 24.8622 23.9725 24.9374 23.9008 25.0224C23.8304 25.1058 23.7545 25.2002 23.6686 25.2912L23.5995 25.3641L23.5275 25.2953C23.0862 24.8787 22.6342 24.4594 22.1825 24.0401C21.756 23.6442 21.3304 23.2468 20.9121 22.8525L20.2034 23.6295C20.4617 23.8796 20.7283 24.1253 20.9976 24.3706C21.2905 24.6373 21.5851 24.9053 21.8675 25.1819L21.9449 25.2582L21.8629 25.329C21.7103 25.4604 21.5496 25.6305 21.4293 25.8073L21.3621 25.9064L21.2772 25.8228C20.7407 25.2976 20.1665 24.7643 19.6191 24.2738L18.91 25.0517C19.1681 25.3017 19.4353 25.5466 19.7046 25.7919C19.9975 26.0587 20.2917 26.3277 20.5741 26.6042L20.6518 26.6795L20.5695 26.7512C20.4967 26.8139 20.4297 26.8889 20.3578 26.9703C20.2878 27.0495 20.2126 27.1353 20.1278 27.2082L20.0626 27.2638L19.9977 27.2085C19.4118 26.7121 18.8638 26.2225 18.324 25.6975L17.6165 26.4717C18.1621 26.963 18.7055 27.4914 19.2787 28.0235L19.3605 28.0994L19.2752 28.173C19.2026 28.2356 19.1364 28.3106 19.0648 28.3916C18.9946 28.471 18.9184 28.557 18.8335 28.6301L18.7676 28.6874L18.702 28.6287C18.4165 28.3738 18.1225 28.1065 17.8294 27.8395C17.5615 27.5954 17.2941 27.3515 17.0327 27.1174L16.3244 27.8934C16.5861 28.128 16.8537 28.372 17.1211 28.6155C17.4143 28.8826 17.7075 29.1488 17.9923 29.4031L18.0687 29.4716L17.9984 29.5472C17.9165 29.634 17.8466 29.713 17.7756 29.7934C17.7047 29.8737 17.6322 29.9552 17.5474 30.0448L17.4823 30.113L17.4101 30.0526C16.825 29.5567 16.2785 29.0257 15.7375 28.5389L15.0301 29.3153L17.6553 31.7188L17.7243 31.7821L17.6657 31.8551L17.2552 32.362L17.1885 32.4444L17.1102 32.373L14.4439 29.9589L13.7469 30.6973L18.072 34.6586L31.9812 19.425L27.6561 15.4637L26.6629 16.5596Z" fill="#E7D2FF" stroke="#E7D2FF" stroke-width="0.2"/>
<path d="M12.1886 30.7744L18.1159 36.2151L18.1887 36.2821L18.1227 36.3552L16.6533 37.9944L16.5862 38.0702L16.512 38.0016L10.5437 32.5524L10.4695 32.4839L10.5377 32.4106L12.048 30.7798L12.1158 30.7074L12.1886 30.7744Z" fill="#E7D2FF" stroke="#E7D2FF" stroke-width="0.2"/>
<path d="M12.4377 34.8815L13.932 36.2331L14.0066 36.3008L13.9393 36.3744L6.11876 44.977L6.0498 45.0521L5.97598 44.9826L4.49092 43.5904L4.41853 43.5226L4.48547 43.4498L12.2967 34.8878L12.364 34.8141L12.4377 34.8815Z" fill="#E7D2FF" stroke="#E7D2FF" stroke-width="0.2"/>
</svg>
