<svg width="30" height="30" viewBox="0 0 30 30" fill="none" xmlns="http://www.w3.org/2000/svg">
<path d="M9.15939 15.1305C8.38523 15.1332 7.62478 15.335 6.95121 15.7166C7.89953 13.262 9.47237 11.0975 11.5141 9.43743C11.6309 9.34123 11.7276 9.22296 11.7987 9.08937C11.8698 8.95579 11.9139 8.80951 11.9285 8.65888C11.9431 8.50825 11.9279 8.35623 11.8837 8.21149C11.8395 8.06675 11.7673 7.93213 11.6711 7.81531C11.5749 7.69849 11.4566 7.60177 11.323 7.53066C11.1894 7.45955 11.0431 7.41544 10.8925 7.40087C10.7419 7.38629 10.5899 7.40152 10.4451 7.4457C10.3004 7.48988 10.1658 7.56213 10.0489 7.65833C5.86282 11.0595 4 15.7689 4 18.6887C4.00721 19.7211 4.31487 20.7291 4.88541 21.5895C5.45594 22.45 6.26467 23.1257 7.21284 23.5342C7.82649 23.8314 8.49849 23.9887 9.18032 23.9946C9.78046 24.0238 10.3803 23.9308 10.9434 23.7212C11.5065 23.5117 12.0212 23.1899 12.4563 22.7755C12.8913 22.3611 13.2377 21.8626 13.4743 21.3103C13.711 20.758 13.833 20.1634 13.833 19.5626C13.833 18.9617 13.711 18.3672 13.4743 17.8149C13.2377 17.2626 12.8913 16.7641 12.4563 16.3497C12.0212 15.9353 11.5065 15.6135 10.9434 15.404C10.3803 15.1944 9.78046 15.1014 9.18032 15.1305H9.15939Z" fill="#E7D2FF"/>
<path d="M20.8176 15.1307C20.0433 15.1324 19.2826 15.3343 18.6094 15.7168C19.5574 13.2647 21.1261 11.101 23.1618 9.43758C23.2892 9.34574 23.3965 9.22879 23.477 9.09393C23.5576 8.95907 23.6097 8.80917 23.6301 8.65343C23.6505 8.49769 23.6388 8.33942 23.5958 8.18835C23.5528 8.03729 23.4793 7.89663 23.3799 7.77503C23.2805 7.65344 23.1572 7.55347 23.0177 7.48129C22.8782 7.40911 22.7254 7.36624 22.5687 7.35532C22.412 7.34441 22.2547 7.36567 22.1066 7.41781C21.9584 7.46994 21.8225 7.55185 21.7071 7.65849C17.521 11.0597 15.6582 15.7691 15.6582 18.6889C15.6632 19.7096 15.9618 20.7073 16.5186 21.5628C17.0753 22.4183 17.8666 23.0955 18.7978 23.5134C19.427 23.8194 20.118 23.9769 20.8176 23.9739C21.4177 24.003 22.0176 23.91 22.5807 23.7005C23.1438 23.4909 23.6585 23.1691 24.0935 22.7547C24.5286 22.3403 24.875 21.8418 25.1116 21.2895C25.3483 20.7373 25.4703 20.1427 25.4703 19.5418C25.4703 18.941 25.3483 18.3464 25.1116 17.7941C24.875 17.2418 24.5286 16.7434 24.0935 16.3289C23.6585 15.9145 23.1438 15.5928 22.5807 15.3832C22.0176 15.1736 21.4177 15.0806 20.8176 15.1098V15.1307Z" fill="#E7D2FF"/>
</svg>
