<svg width="145" height="43" viewBox="0 0 145 43" fill="none" xmlns="http://www.w3.org/2000/svg">
<path opacity="0.2" d="M101.396 42.5191C77.6995 42.5191 58.4899 39.0475 58.4899 34.7649C58.4899 30.4824 77.6995 27.0107 101.396 27.0107C125.092 27.0107 144.302 30.4824 144.302 34.7649C144.302 39.0475 125.092 42.5191 101.396 42.5191Z" fill="black"/>
<path d="M65.6269 29.9471C65.6269 26.3386 81.6411 23.4141 101.396 23.4141C121.151 23.4141 137.165 26.3392 137.165 29.9471C137.165 30.6861 137.165 33.4298 137.165 34.1688C137.165 37.7773 121.151 40.7018 101.396 40.7018C81.6411 40.7018 65.6269 37.7767 65.6269 34.1688C65.6269 33.4298 65.6269 30.6861 65.6269 29.9471Z" fill="#1E7A93"/>
<path d="M67.6066 29.1591L71.9426 17.0178C71.9426 14.0466 85.1288 11.6382 101.395 11.6382C117.662 11.6382 130.848 14.0466 130.848 17.0178L135.184 29.1591C135.363 29.4171 135.466 29.6796 135.466 29.9472C135.466 33.3839 120.212 36.1705 101.396 36.1705C82.5798 36.1705 67.3263 33.3845 67.3263 29.9472C67.3256 29.6802 67.4278 29.4177 67.6066 29.1591Z" fill="#535363"/>
<path opacity="0.3" d="M114.998 21.79L117.158 35.4648L120.279 36.5952L120.279 39.7164C117.823 39.9962 115.169 40.2223 112.363 40.3877L112.363 36.942L110.329 35.9533L109.034 22.2141L101.395 16.6084L114.998 21.79Z" fill="white"/>
<path opacity="0.3" d="M83.7294 21.3231L80.2882 34.8318L76.9894 36.1705V38.9436C70.001 37.7512 65.6267 36.0542 65.6267 34.1695C65.6267 33.4305 65.6267 30.6868 65.6267 29.9478C65.6267 29.0888 66.5438 28.2687 68.1941 27.5177L71.9438 17.019L101.396 17.019L83.7294 21.3231Z" fill="white"/>
<path opacity="0.15" d="M101.397 22.3978C85.1311 22.3978 71.945 19.9893 71.945 17.0183C71.945 14.0472 85.1311 11.6387 101.397 11.6387C117.663 11.6387 130.849 14.0472 130.849 17.0183C130.849 19.9893 117.663 22.3978 101.397 22.3978Z" fill="white"/>
<path d="M101.397 20.5176C86.8095 20.5176 74.9842 18.7676 74.9842 16.6089C74.9842 14.4502 86.8095 12.7002 101.397 12.7002C115.984 12.7002 127.809 14.4502 127.809 16.6089C127.809 18.7676 115.984 20.5176 101.397 20.5176Z" fill="#252D3A"/>
<g opacity="0.5">
<path d="M97.8816 29.5266C97.1031 30.2049 95.5575 28.2244 95.9981 27.023C96.4388 25.8217 97.6287 25.7597 97.9736 26.5408C98.3178 27.3213 98.5937 28.9065 97.8816 29.5266Z" fill="white"/>
<path d="M100.51 27.7451C99.6411 28.1193 98.9781 27.3906 98.7048 26.2646C98.4314 25.138 98.8376 24.1729 99.666 23.8427C100.494 23.5125 101.249 24.3083 101.311 25.1041C101.372 25.8993 101.484 27.3261 100.51 27.7451Z" fill="white"/>
<path d="M101.726 28.458C105.843 28.458 107.24 33.5093 105.763 34.307C104.295 35.1009 103.457 33.4876 101.641 33.4704C99.9425 33.5821 99.1104 35.0658 97.6887 34.2974C96.212 33.4997 97.6088 28.458 101.726 28.458Z" fill="white"/>
<path d="M105.607 29.5248C106.45 30.258 108.121 28.1158 107.645 26.8167C107.168 25.517 105.881 25.45 105.508 26.295C105.135 27.1393 104.837 28.8535 105.607 29.5248Z" fill="white"/>
<path d="M103.073 27.6343C104.016 27.9568 104.653 27.1387 104.85 25.9335C105.046 24.7283 104.542 23.7473 103.645 23.4669C102.748 23.1865 102.019 24.0839 102.019 24.9244C102.019 25.7655 102.016 27.2728 103.073 27.6343Z" fill="white"/>
</g>
<path opacity="0.5" d="M71.9425 17.0189C71.9598 17.0118 71.9144 17.2794 72.1603 17.6633C72.4043 18.0446 72.9369 18.4661 73.6855 18.8448C75.1902 19.6036 77.5239 20.2512 80.3533 20.7813C86.0215 21.8441 93.7132 22.3997 101.395 22.3984C109.077 22.4003 116.768 21.8441 122.436 20.7813C125.265 20.2512 127.598 19.6029 129.104 18.8448C129.852 18.4661 130.385 18.0446 130.629 17.6633C130.875 17.2794 130.829 17.0118 130.847 17.0189C130.831 17.0112 130.856 17.2826 130.593 17.6403C130.333 17.9992 129.784 18.3658 129.034 18.7082C127.523 19.3979 125.173 19.8891 122.354 20.3451C119.529 20.8075 116.191 21.0642 112.618 21.3057C109.043 21.5426 105.218 21.6429 101.395 21.6071C97.5714 21.6422 93.7457 21.5426 90.171 21.3057C86.5983 21.0636 83.2599 20.8075 80.435 20.3451C77.6159 19.8891 75.2668 19.3986 73.7551 18.7082C73.0053 18.3665 72.456 17.9992 72.1961 17.6403C71.9342 17.2871 71.9585 17.008 71.9425 17.0189Z" fill="white"/>
<path d="M75.9109 15.5814C75.9122 15.5756 75.9103 15.5705 75.9116 15.5654C76.045 14.9389 76.9832 14.3609 77.4322 13.9681C78.0824 13.4003 78.7498 12.8523 79.4326 12.3248C80.2309 11.7084 81.0753 11.1081 82.0493 10.8443C83.0232 10.5799 84.1614 10.7115 84.885 11.4147C85.8558 11.2965 86.8259 11.1783 87.7967 11.0596C87.5259 9.80583 88.1735 8.40967 89.3066 7.80739C90.4396 7.20512 91.959 7.4491 92.8468 8.37518C93.2063 7.63751 94.4888 7.67902 94.7998 8.43841C95.8147 8.25383 96.8289 8.0699 97.8438 7.88532C97.9287 6.37995 98.0494 4.77495 98.9608 3.5736C99.8722 2.37224 101.883 1.89515 102.871 3.03455C103.479 2.79186 104.087 2.54915 104.696 2.30645C104.341 1.11723 105.684 -0.193956 106.864 0.189251C108.022 -0.282094 109.481 0.155384 110.189 1.18621C110.896 2.21704 110.78 3.73582 109.923 4.64657C111.125 4.42239 112.318 5.75724 111.961 6.9273C112.475 6.79446 113.061 7.15978 113.168 7.67903C115.153 6.54601 118.062 7.78824 118.617 10.0044C119.201 10.1009 119.587 10.8188 119.345 11.3584C119.95 11.4702 120.555 11.582 121.161 11.6944C121.514 11.0161 122.664 11.0002 123.036 11.6682C123.527 11.0723 124.432 10.8628 125.134 11.1822C125.837 11.5015 126.275 12.3203 126.149 13.0822C126.204 13.7299 126.26 14.3781 126.315 15.0257C126.521 15.1707 126.697 15.3534 126.84 15.5597C127.468 15.8937 127.81 16.245 127.81 16.6084C127.81 16.8958 127.594 17.1762 127.196 17.4457C127.172 17.5409 127.148 17.636 127.111 17.728C126.968 17.7318 126.826 17.735 126.684 17.7389C123.407 19.3458 113.328 20.5165 101.397 20.5165C86.81 20.5165 74.9848 18.7665 74.9848 16.6078C74.9829 16.2527 75.3099 15.9084 75.9109 15.5814Z" fill="#F26522"/>
<path opacity="0.2" d="M75.9117 15.5813C75.913 15.5756 75.911 15.5705 75.9123 15.5654C76.0458 14.9388 76.984 14.3608 77.433 13.968C77.76 13.6825 78.1036 13.4169 78.4389 13.1416C78.946 15.3553 80.1091 17.4131 82.7206 17.3403C82.5456 18.5154 84.3416 18.6476 85.1118 18.2964C85.8834 17.9445 86.4007 17.0988 86.363 16.2513C86.789 17.5446 88.1251 18.4778 89.4861 18.4324C90.8472 18.3871 92.1181 17.3665 92.4566 16.0482C93.1094 17.0644 94.6179 17.4067 95.6456 16.7712C97.713 17.4539 100.214 16.2475 100.966 14.2044C101.385 15.2978 103.034 15.6497 103.864 14.8226C103.953 16.1325 105.025 17.3115 106.32 17.5242C107.616 17.7369 109.009 16.9615 109.511 15.7487C109.444 16.2801 109.864 16.8242 110.396 16.8926C110.927 16.9609 111.472 16.5406 111.542 16.0093C112.224 16.8063 113.382 17.1614 114.394 16.8842C115.406 16.6071 116.221 15.7123 116.403 14.6782C117.923 16.0801 120.798 15.3827 121.507 13.4399C121.962 13.8531 122.699 13.9157 123.218 13.5848C123.047 14.5435 124.537 14.9452 125.367 14.4362C125.678 14.2452 125.946 13.9942 126.205 13.733C126.241 14.1648 126.279 14.5959 126.315 15.0276C126.521 15.1726 126.697 15.3553 126.841 15.5616C127.468 15.8956 127.81 16.2469 127.81 16.6103C127.81 16.8977 127.594 17.178 127.196 17.4476C127.172 17.5427 127.148 17.6379 127.111 17.7299C126.968 17.7337 126.826 17.7369 126.684 17.7407C123.407 19.3476 113.328 20.5183 101.398 20.5183C86.8101 20.5183 74.985 18.7684 74.985 16.6096C74.9837 16.2526 75.3107 15.9083 75.9117 15.5813Z" fill="black"/>
<path opacity="0.3" d="M105.979 3.19733C105.979 3.78044 106.451 4.25243 107.034 4.25243C107.616 4.25243 108.089 3.7798 108.089 3.19733C108.089 2.61421 107.616 2.1416 107.034 2.1416C106.451 2.1416 105.979 2.61421 105.979 3.19733Z" fill="white"/>
<path opacity="0.3" d="M100.174 5.96645C99.8467 5.96645 99.581 5.7008 99.581 5.37311C99.581 5.04542 99.8467 4.77979 100.174 4.77979C100.502 4.77979 100.768 5.04542 100.768 5.37311C100.768 5.7008 100.502 5.96645 100.174 5.96645Z" fill="white"/>
<path opacity="0.3" d="M102.22 10.2554C102.22 11.2025 102.987 11.9702 103.934 11.9702C104.882 11.9702 105.649 11.2025 105.649 10.2554C105.649 9.30822 104.882 8.54053 103.934 8.54053C102.987 8.54053 102.22 9.30822 102.22 10.2554Z" fill="white"/>
<path opacity="0.3" d="M111.125 10.5181C111.125 10.8822 111.421 11.1779 111.785 11.1779C112.149 11.1779 112.445 10.8828 112.445 10.5181C112.445 10.1541 112.15 9.8584 111.785 9.8584C111.421 9.8584 111.125 10.1541 111.125 10.5181Z" fill="white"/>
<path opacity="0.3" d="M107.76 6.42904C107.76 6.68388 107.967 6.8908 108.222 6.8908C108.477 6.8908 108.684 6.68388 108.684 6.42904C108.684 6.17421 108.477 5.96729 108.222 5.96729C107.966 5.96729 107.76 6.17357 107.76 6.42904Z" fill="white"/>
<path opacity="0.3" d="M113.629 12.6297C113.629 13.1765 114.072 13.6203 114.62 13.6203C115.167 13.6203 115.61 13.1771 115.61 12.6297C115.61 12.0824 115.167 11.6392 114.62 11.6392C114.072 11.6392 113.629 12.0824 113.629 12.6297Z" fill="white"/>
<path opacity="0.3" d="M89.4555 11.9696C88.7451 11.9696 88.1692 11.3937 88.1692 10.6833C88.1692 9.97287 88.7451 9.39697 89.4555 9.39697C90.1659 9.39697 90.7418 9.97287 90.7418 10.6833C90.7418 11.3937 90.1659 11.9696 89.4555 11.9696Z" fill="white"/>
<path opacity="0.3" d="M93.5131 9.06774C93.5131 9.32257 93.7201 9.5295 93.9749 9.5295C94.2297 9.5295 94.4366 9.32257 94.4366 9.06774C94.4366 8.8129 94.2297 8.60596 93.9749 8.60596C93.7194 8.60596 93.5131 8.8129 93.5131 9.06774Z" fill="white"/>
<path opacity="0.3" d="M82.2318 12.7618C81.7947 12.7618 81.4404 12.4075 81.4404 11.9705C81.4404 11.5335 81.7947 11.1792 82.2318 11.1792C82.6688 11.1792 83.0231 11.5335 83.0231 11.9705C83.0231 12.4075 82.6688 12.7618 82.2318 12.7618Z" fill="white"/>
<path opacity="0.3" d="M83.7199 13.6187C83.7199 13.9828 84.015 14.2785 84.3797 14.2785C84.7437 14.2785 85.0394 13.9834 85.0394 13.6187C85.0394 13.2547 84.7444 12.959 84.3797 12.959C84.0156 12.959 83.7199 13.2547 83.7199 13.6187Z" fill="white"/>
<path opacity="0.3" d="M93.9744 14.2789C93.9744 14.8256 94.4176 15.2682 94.9637 15.2682C95.5098 15.2682 95.953 14.8249 95.953 14.2789C95.953 13.7322 95.5098 13.2896 94.9637 13.2896C94.4176 13.2896 93.9744 13.7328 93.9744 14.2789Z" fill="white"/>
<path opacity="0.3" d="M97.3734 10.6837C97.3734 11.2106 97.8006 11.6379 98.3275 11.6379C98.8545 11.6379 99.2817 11.2106 99.2817 10.6837C99.2817 10.1568 98.8545 9.72949 98.3275 9.72949C97.8006 9.72949 97.3734 10.1568 97.3734 10.6837Z" fill="white"/>
<path opacity="0.3" d="M103.342 4.78049C103.342 5.10813 103.608 5.37446 103.936 5.37446C104.263 5.37446 104.53 5.10877 104.53 4.78049C104.53 4.45285 104.264 4.18652 103.936 4.18652C103.608 4.18652 103.342 4.45221 103.342 4.78049Z" fill="white"/>
<path opacity="0.3" d="M114.092 9.52971C114.092 10.3677 114.772 11.0466 115.609 11.0466C116.447 11.0466 117.126 10.367 117.126 9.52971C117.126 8.69177 116.447 8.01221 115.609 8.01221C114.771 8.01221 114.092 8.69177 114.092 9.52971Z" fill="white"/>
<path opacity="0.3" d="M105.979 15.5322C105.979 15.9333 106.305 16.2577 106.705 16.2577C107.106 16.2577 107.431 15.9326 107.431 15.5322C107.431 15.1317 107.105 14.8066 106.705 14.8066C106.305 14.806 105.979 15.1311 105.979 15.5322Z" fill="white"/>
<path opacity="0.2" d="M29.2449 33.7382C13.0934 33.7382 4.95911e-05 30.4703 4.95911e-05 26.4392C4.95911e-05 22.408 13.0934 19.1401 29.2449 19.1401C45.3964 19.1401 58.4897 22.408 58.4897 26.4392C58.4897 30.4703 45.3964 33.7382 29.2449 33.7382Z" fill="black"/>
<path d="M7.24406 21.9054C7.24406 18.5087 17.2124 15.7559 29.5085 15.7559C41.8046 15.7559 51.7729 18.5093 51.7729 21.9054C51.7729 22.601 51.7729 25.1837 51.7729 25.8793C51.7729 29.276 41.8046 32.0289 29.5085 32.0289C17.2124 32.0289 7.24406 29.2754 7.24406 25.8793C7.24406 25.1837 7.24406 22.601 7.24406 21.9054Z" fill="#D25B8B"/>
<path d="M8.47723 21.1633L11.1759 9.73472C11.1759 6.93799 19.3834 4.6709 29.5086 4.6709C39.6333 4.6709 47.8407 6.93799 47.8407 9.73472L50.54 21.1633C50.6513 21.4062 50.715 21.6533 50.715 21.9052C50.715 25.1402 41.2204 27.7632 29.5086 27.7632C17.7969 27.7632 8.30228 25.1408 8.30228 21.9052C8.30228 21.6539 8.36601 21.4068 8.47723 21.1633Z" fill="#E97F98"/>
<path opacity="0.3" d="M43.0658 13.1418L44.4101 26.0139L46.3525 27.078V29.8982C45.2187 30.2607 43.9352 30.5859 42.5272 30.8667V27.7122L41.2617 26.7816L40.4555 13.8488L29.5084 9.3501L43.0658 13.1418Z" fill="white"/>
<path opacity="0.3" d="M18.5129 13.7873L16.3709 26.503L14.3178 27.7631L14.3178 30.3735C9.96759 29.251 7.24483 27.6537 7.24483 25.8796C7.24483 25.184 7.24483 22.6013 7.24483 21.9057C7.24483 21.0971 7.81594 20.3252 8.84277 19.6182L11.1766 9.73584L29.5093 9.73584L18.5129 13.7873Z" fill="white"/>
<path opacity="0.15" d="M29.509 14.799C19.3845 14.799 11.1769 12.5319 11.1769 9.73521C11.1769 6.93854 19.3845 4.67139 29.509 4.67139C39.6335 4.67139 47.8411 6.93854 47.8411 9.73521C47.8411 12.5319 39.6335 14.799 29.509 14.799Z" fill="white"/>
<path d="M29.508 13.029C20.4281 13.029 13.0673 11.3817 13.0673 9.34969C13.0673 7.31768 20.4281 5.67041 29.508 5.67041C38.588 5.67041 45.9487 7.31768 45.9487 9.34969C45.9487 11.3817 38.588 13.029 29.508 13.029Z" fill="#B45B6D"/>
<path opacity="0.3" d="M29.776 13.0277C29.6864 13.0277 29.598 13.0294 29.5085 13.0294C27.1043 13.0294 24.8228 12.9128 22.7643 12.7054L22.3279 6.04004C24.4976 5.80377 26.9336 5.6709 29.5085 5.6709C29.598 5.6709 29.6864 5.6721 29.776 5.6727L29.776 13.0277Z" fill="white"/>
<path opacity="0.3" d="M41.3382 6.7959C44.1908 7.45721 45.9487 8.35719 45.9487 9.34915C45.9487 10.382 44.0442 11.315 40.9811 11.983L41.3382 6.7959Z" fill="white"/>
<path opacity="0.5" d="M11.1753 9.73564C11.1861 9.72903 11.1579 9.98093 11.3112 10.3422C11.4627 10.7012 11.7946 11.0979 12.2605 11.4544C13.1971 12.1686 14.6496 12.7783 16.4105 13.2772C19.9389 14.2776 24.7261 14.8006 29.5074 14.7994C34.2887 14.8012 39.0765 14.2776 42.6043 13.2772C44.3652 12.7783 45.8177 12.168 46.7543 11.4544C47.2202 11.0979 47.5521 10.7012 47.7036 10.3422C47.8563 9.98093 47.8286 9.72903 47.8389 9.73564C47.8286 9.72843 47.8449 9.98393 47.6808 10.3206C47.519 10.6585 47.1769 11.0035 46.7104 11.3258C45.7696 11.9751 44.3075 12.4374 42.5526 12.8666C40.7941 13.3019 38.7164 13.5436 36.4926 13.7708C34.267 13.9938 31.8869 14.0882 29.5062 14.0546C27.1261 14.0876 24.7454 13.9938 22.5198 13.7708C20.296 13.543 18.2177 13.3019 16.4598 12.8666C14.7049 12.4374 13.2428 11.9757 12.302 11.3258C11.8354 11.0041 11.4933 10.6585 11.3316 10.3206C11.1705 9.98813 11.1849 9.72542 11.1753 9.73564Z" fill="white"/>
<g opacity="0.3">
<path d="M27.541 20.0682C27.4141 20.0261 27.2831 19.9811 27.1352 19.9294C26.2767 19.6282 25.1002 19.2151 23.8689 19.2151C23.7445 19.2151 23.6188 19.2272 23.4938 19.2362C23.2924 18.3122 23.213 17.5697 24.0619 17.2973C25.4037 16.8669 26.7691 18.5394 27.55 19.2476C27.5819 19.2765 27.5356 19.6787 27.541 20.0682Z" fill="white"/>
<path d="M23.8689 23.3184C25.1002 23.3184 26.2767 22.9054 27.1358 22.6042C27.2837 22.5525 27.4147 22.5074 27.541 22.4653C27.5356 22.8549 27.5819 23.2571 27.55 23.2859C26.7696 23.9935 25.4037 25.6661 24.0619 25.2356C23.213 24.9633 23.293 24.2208 23.4938 23.2974C23.6188 23.3064 23.7439 23.3184 23.8689 23.3184Z" fill="white"/>
<path d="M23.3286 19.5664C24.9416 19.3824 26.5834 20.0985 27.5219 20.4015C27.5778 20.4195 27.6818 21.2666 27.6818 21.2666C27.6818 21.2666 27.5778 22.1137 27.5219 22.1317C26.5834 22.4347 24.9416 23.1513 23.3286 22.9667C21.6194 22.7714 22.3949 22.0133 22.3949 21.2666C22.3949 20.5199 21.6194 19.7618 23.3286 19.5664Z" fill="white"/>
<path d="M28.3367 18.1816C29.0954 18.1816 29.2571 18.6914 29.7741 18.6914C30.2906 18.6914 30.4523 18.1816 31.211 18.1816C31.9703 18.1816 31.5825 20.4884 31.5825 21.2657C31.5825 22.0437 31.9703 24.3504 31.211 24.3504C30.4523 24.3504 30.2906 23.8406 29.7741 23.8406C29.2577 23.8406 29.096 24.3504 28.3367 24.3504C27.5774 24.3504 27.9652 22.0437 27.9652 21.2663C27.9652 20.489 27.578 18.1816 28.3367 18.1816Z" fill="white"/>
<path d="M32.0079 22.4658C32.1347 22.5079 32.2658 22.553 32.4137 22.6047C33.2722 22.9059 34.4487 23.3189 35.6799 23.3189C35.805 23.3189 35.93 23.3069 36.0551 23.2979C36.2565 24.2219 36.3364 24.9644 35.4875 25.2367C34.1457 25.6671 32.7798 23.9946 31.9994 23.287C31.967 23.2576 32.0133 22.8554 32.0079 22.4658Z" fill="white"/>
<path d="M35.6805 19.2154C34.4493 19.2154 33.2728 19.6285 32.4137 19.9297C32.2658 19.9814 32.1347 20.0265 32.0085 20.0685C32.0139 19.679 31.9676 19.2768 31.9995 19.2479C32.7798 18.5403 34.1457 16.8678 35.4876 17.2977C36.3365 17.57 36.2565 18.3125 36.0551 19.2365C35.93 19.2269 35.805 19.2154 35.6805 19.2154Z" fill="white"/>
<path d="M36.2209 22.9674C34.6079 23.152 32.9661 22.4353 32.0276 22.1323C31.9717 22.1143 31.8677 21.2672 31.8677 21.2672C31.8677 21.2672 31.9717 20.4201 32.0276 20.4021C32.9661 20.0991 34.6079 19.3825 36.2209 19.5671C37.9301 19.7624 37.1545 20.5205 37.1545 21.2672C37.1545 22.0139 37.9301 22.772 36.2209 22.9674Z" fill="white"/>
</g>
</svg>
