<svg width="27" height="29" viewBox="0 0 27 29" fill="none" xmlns="http://www.w3.org/2000/svg">
<path d="M25.9886 19.3925C26.4324 21.161 25.8416 23.0418 23.1373 23.9424C20.1814 24.9269 19.5902 23.5198 17.5307 24.2058C15.4713 24.8918 15.8418 26.3723 12.8859 27.3568C10.1816 28.2575 8.58117 27.1067 7.87593 25.425C6.96215 23.2463 8.34946 21.507 9.05387 20.4795C9.60533 19.6755 10.218 18.6844 10.267 17.2863C10.3507 14.8949 11.0906 12.8124 13.4719 12.0191C15.8532 11.226 17.6942 12.4489 19.195 14.3126C20.0724 15.4021 21.1569 15.8279 22.0804 16.1406C23.2605 16.541 25.4136 17.1011 25.9886 19.3925Z" stroke="#FFF9EF" stroke-width="1.4"/>
<path d="M10.6307 11.385C9.27672 12.2004 7.05221 11.2029 5.66204 9.15741C4.27188 7.11195 4.24251 4.7931 5.59668 3.97773C6.95067 3.16253 9.17501 4.15986 10.5652 6.20532C11.9552 8.25078 11.9845 10.5698 10.6307 11.385Z" stroke="#FFF9EF" stroke-width="1.4"/>
<path d="M7.72409 17.1164C6.90697 18.3132 4.74212 18.1552 2.88869 16.764C1.03523 15.3725 0.195016 13.2745 1.01214 12.0778C1.8291 10.881 3.99395 11.039 5.84757 12.4304C7.70118 13.8219 8.54106 15.9197 7.72409 17.1164Z" stroke="#FFF9EF" stroke-width="1.4"/>
<path d="M16.2607 9.64741C17.8933 9.4276 18.9271 7.25061 18.5698 4.78484C18.2126 2.31907 16.5996 0.498344 14.967 0.718159C13.3346 0.937797 12.3008 3.11498 12.658 5.58075C13.0151 8.04636 14.6281 9.86706 16.2607 9.64741Z" stroke="#FFF9EF" stroke-width="1.4"/>
<path d="M21.9667 13.147C23.5468 13.4142 25.2307 11.8534 25.728 9.6608C26.2254 7.46817 25.3476 5.47383 23.7676 5.20658C22.1876 4.93917 20.5038 6.50013 20.0064 8.69275C19.5089 10.8854 20.3867 12.8796 21.9667 13.147Z" stroke="#FFF9EF" stroke-width="1.4"/>
</svg>
