<svg width="42" height="35" viewBox="0 0 42 35" fill="none" xmlns="http://www.w3.org/2000/svg">
<mask id="path-1-outside-1_589_1374" maskUnits="userSpaceOnUse" x="-0.800049" y="-0.800003" width="43" height="36" fill="black">
<rect fill="white" x="-0.800049" y="-0.800003" width="43" height="36"/>
<path d="M41.1622 11.8195L38.4045 5.29769V2.08889C38.4045 1.04737 37.5687 0.199997 36.5409 0.199997H19.7681C18.7405 0.199997 17.9045 1.04737 17.9045 2.08889V5.29769L15.1468 11.8195C15.1218 11.8783 15.109 11.9417 15.109 12.0056V15.4822C15.1061 15.4833 15.1029 15.4836 15.0999 15.4847C14.5137 14.5052 13.4652 13.8944 12.3136 13.8944C11.162 13.8944 10.1135 14.5052 9.52723 15.4847C9.22216 15.3704 8.90344 15.3111 8.58632 15.3111C7.04481 15.3111 5.79086 16.582 5.79086 18.1444C5.79086 18.1576 5.79086 18.1707 5.79109 18.1836C4.47048 18.4091 3.46131 19.5763 3.46131 20.9778C3.46131 21.1297 3.47747 21.2806 3.50104 21.4288C2.91519 21.8581 2.5295 22.5519 2.5295 23.3389V24.6202L0.978438 27.1363C0.469077 27.9656 0.199951 28.9175 0.199951 29.8887V31.8389C0.199951 33.1407 1.24506 34.2 2.5295 34.2H22.0977C23.2226 34.2 24.1636 33.3874 24.3801 32.3111H35.1431C35.1783 32.3111 35.2094 32.2983 35.2423 32.2908C35.2753 32.2983 35.3063 32.3111 35.3415 32.3111H40.734C40.9916 32.3111 41.2 32.0997 41.2 31.8389V12.0056C41.2 11.9417 41.1872 11.8783 41.1622 11.8195ZM40.0275 11.5333H35.8496L37.9386 6.59307L40.0275 11.5333ZM18.8363 2.08889C18.8363 1.56801 19.2542 1.14444 19.7681 1.14444H36.5409C37.0545 1.14444 37.4727 1.56801 37.4727 2.08889V4.92222H18.8363V2.08889ZM18.6775 5.86666H37.232L34.836 11.5333H16.2816L18.6775 5.86666ZM4.39313 20.9778C4.39313 19.9363 5.22918 19.0889 6.21377 19.0861C6.37393 19.1099 6.55774 19.0492 6.66125 18.9238C6.74975 18.8163 6.78661 18.6743 6.76181 18.5367C6.73519 18.3884 6.72268 18.2636 6.72268 18.1444C6.72268 17.1029 7.55872 16.2556 8.58632 16.2556C8.90231 16.2556 9.21102 16.3425 9.50426 16.5136C9.62028 16.5818 9.75905 16.5959 9.88554 16.5521C10.0123 16.509 10.1144 16.4126 10.1663 16.2878C10.5323 15.4077 11.3752 14.8389 12.3136 14.8389C13.252 14.8389 14.0949 15.4077 14.4609 16.2878C14.462 16.2905 14.4646 16.2921 14.4657 16.2948C14.5823 16.5799 14.6431 16.8878 14.6431 17.2C14.6431 17.4705 14.5985 17.7352 14.5107 17.987C14.425 18.233 14.5521 18.5028 14.7946 18.5897C14.8461 18.6081 14.8984 18.6169 14.95 18.6169C15.142 18.6169 15.3218 18.4956 15.3893 18.3019C15.5124 17.9487 15.575 17.5781 15.575 17.2C15.575 16.9146 15.5376 16.6317 15.4667 16.3582C15.6542 16.2926 15.8459 16.2556 16.0409 16.2556C17.0685 16.2556 17.9045 17.1029 17.9045 18.1444C17.9045 18.2636 17.892 18.3884 17.8654 18.5367C17.8406 18.6743 17.8774 18.8163 17.9659 18.9238C18.0544 19.0312 18.1857 19.0935 18.3238 19.0935C18.3531 19.0935 18.3822 19.091 18.3704 19.0889C19.398 19.0889 20.234 19.9363 20.234 20.9778C20.234 20.9939 20.2316 21.0092 20.2312 21.0252C20.0815 20.9945 19.9267 20.9778 19.7681 20.9778H4.85904C4.70091 20.9778 4.54666 20.9945 4.39728 21.0251C4.39689 21.0091 4.39313 20.9938 4.39313 20.9778ZM8.53991 33.2556C8.53968 33.2431 8.53968 33.2304 8.53968 33.2177C8.53968 31.4686 10.1881 29.4353 12.3136 29.4353C14.4391 29.4353 16.0875 31.4686 16.0875 33.2177C16.0875 33.2304 16.0875 33.2431 16.0873 33.2556H8.53991ZM22.0977 33.2556H17.0175C17.0176 33.2425 17.0193 33.2309 17.0193 33.2177C17.0193 30.9864 15.0069 28.4909 12.3136 28.4909C9.62028 28.4909 7.60786 30.9864 7.60786 33.2177C7.60786 33.2309 7.60957 33.2425 7.60971 33.2556H2.5295C1.75874 33.2556 1.13177 32.6201 1.13177 31.8389V29.8887C1.13177 29.0941 1.35244 28.3147 1.76921 27.6359L3.39056 25.0057C3.43675 24.9308 3.46131 24.8441 3.46131 24.7556V23.3389C3.46131 22.5577 4.08829 21.9222 4.85904 21.9222H19.7681C20.5389 21.9222 21.1659 22.5577 21.1659 23.3389V24.7556C21.1659 24.8441 21.1904 24.9308 21.2368 25.0057L22.8575 27.6352C23.2747 28.315 23.4954 29.0941 23.4954 29.8887V31.8389C23.4954 32.6201 22.8684 33.2556 22.0977 33.2556ZM22.1659 23.4251C23.0249 22.3638 24.1888 21.755 25.359 21.755C27.8651 21.755 29.7379 24.3306 29.7379 26.6336C29.7379 27.1307 29.6537 27.4554 29.4876 27.5983C29.1946 27.8506 28.4202 27.7219 27.6012 27.5863C26.9329 27.4759 26.1757 27.3505 25.359 27.3505C24.7955 27.3505 24.2631 27.4121 23.826 27.4752C23.7672 27.3617 23.7155 27.2451 23.6483 27.1356L22.0977 24.6202V23.4815C22.1204 23.4624 22.1464 23.4491 22.1659 23.4251ZM24.4272 31.3667V29.8887C24.4272 29.374 24.3467 28.8662 24.1996 28.3775C24.5521 28.3325 24.9503 28.2949 25.359 28.2949C26.1002 28.2949 26.8177 28.4137 27.4511 28.5186C27.9752 28.6053 28.4648 28.6864 28.9011 28.6864C29.3661 28.6864 29.7706 28.594 30.0909 28.318C30.4804 27.9827 30.6697 27.4316 30.6697 26.6336C30.6697 23.8849 28.3984 20.8106 25.359 20.8106C24.1003 20.8106 22.8602 21.3656 21.8761 22.3495C21.7046 21.9758 21.4418 21.6553 21.1137 21.4184C21.1249 21.3864 21.1412 21.3571 21.1454 21.322C21.159 21.209 21.1659 21.0942 21.1659 20.9778C21.1659 19.5763 20.1567 18.4091 18.8361 18.1836C18.8363 18.1707 18.8363 18.1576 18.8363 18.1444C18.8363 16.582 17.5824 15.3111 16.0409 15.3111V12.4778H34.6772V31.3667H24.4272ZM35.609 31.3667V12.4778H40.2681V31.3667H35.609ZM23.6223 15.4504C23.2952 15.2101 22.934 15.1133 22.5759 15.1737C21.6491 15.3272 21.0801 16.4702 21.2801 17.7757C21.3961 18.5311 21.7592 19.1982 22.2515 19.56C22.5154 19.7539 22.802 19.8535 23.0909 19.8535C23.1596 19.8535 23.2288 19.8479 23.2975 19.8364C24.2243 19.6831 24.7935 18.5403 24.5933 17.2346C24.4773 16.4792 24.1146 15.8122 23.6223 15.4504ZM23.1473 18.9044C23.0391 18.9229 22.9212 18.8857 22.7984 18.7954C22.5072 18.5814 22.2783 18.1352 22.201 17.6309C22.0781 16.8281 22.3766 16.1636 22.726 16.1057C22.7438 16.1027 22.762 16.1013 22.7802 16.1013C22.8734 16.1013 22.9722 16.1393 23.075 16.215C23.3662 16.4289 23.595 16.8751 23.6724 17.3794C23.7952 18.1823 23.4968 18.8465 23.1473 18.9044ZM32.5984 18.0042C32.2853 17.8083 31.9118 17.7566 31.5173 17.8562C30.9308 18.0033 30.3548 18.4811 29.9758 19.1343C29.3206 20.2646 29.4335 21.5422 30.232 22.043C30.4413 22.174 30.6774 22.2402 30.929 22.2402C31.0537 22.2402 31.1825 22.2238 31.3135 22.1911C31.8995 22.0437 32.4755 21.566 32.8541 20.9132C33.5093 19.7832 33.3973 18.5053 32.5984 18.0042ZM32.0506 20.4348C31.8003 20.8666 31.4318 21.1883 31.0892 21.2743C30.9404 21.3112 30.818 21.2997 30.7225 21.2397C30.4153 21.0474 30.3748 20.3109 30.7793 19.6128C31.03 19.1809 31.3986 18.859 31.7412 18.773C31.8904 18.7359 32.0128 18.7476 32.1079 18.8076C32.415 18.9999 32.4555 19.7366 32.0506 20.4348ZM28.1422 15.1737C27.7841 15.1133 27.4229 15.2101 27.0957 15.4504C26.6034 15.8122 26.2408 16.4792 26.1248 17.2346C25.9246 18.5403 26.4938 19.6831 27.4206 19.8364C27.4893 19.8479 27.5585 19.8535 27.6272 19.8535C27.9161 19.8535 28.2027 19.7539 28.4666 19.56C28.9589 19.1982 29.322 18.5311 29.438 17.7757C29.6382 16.4702 29.069 15.3272 28.1422 15.1737ZM28.5171 17.6309C28.4398 18.1352 28.2109 18.5814 27.9197 18.7954C27.7969 18.886 27.6763 18.9231 27.5707 18.9044C27.2213 18.8465 26.9228 18.1823 27.0457 17.3794C27.123 16.8751 27.3519 16.4289 27.6431 16.215C27.7459 16.1393 27.8446 16.1013 27.9379 16.1013C27.9561 16.1013 27.9743 16.1027 27.9921 16.1057C28.3415 16.1636 28.64 16.8281 28.5171 17.6309ZM8.32379 27.0553C7.98459 26.4706 7.46704 26.0424 6.93948 25.9098C6.57913 25.8192 6.2363 25.8665 5.94851 26.0463C5.22258 26.5017 5.11566 27.6548 5.7051 28.6717C6.04429 29.2566 6.56207 29.6848 7.08986 29.8174C7.20906 29.8474 7.32622 29.8621 7.4402 29.8621C7.67088 29.8621 7.88813 29.8013 8.0806 29.6807C8.80653 29.2253 8.91323 28.0722 8.32379 27.0553ZM7.59034 28.8773C7.52028 28.9216 7.42746 28.9295 7.31371 28.9006C7.09031 28.8446 6.76135 28.6292 6.50861 28.193C6.171 27.6108 6.1933 27.0034 6.43877 26.8497C6.48131 26.8231 6.53227 26.8098 6.59119 26.8098C6.62918 26.8098 6.67081 26.8153 6.7154 26.8266C6.9388 26.8826 7.26776 27.098 7.5205 27.534C7.8581 28.1162 7.83581 28.7236 7.59034 28.8773ZM10.8276 23.8141C10.5289 23.5941 10.1968 23.5067 9.86893 23.5616C9.02606 23.7011 8.50692 24.7306 8.68687 25.9057C8.79061 26.5817 9.11683 27.1798 9.55999 27.5056C9.80114 27.6827 10.0637 27.7738 10.3287 27.7738C10.3922 27.7738 10.4559 27.7687 10.5193 27.7581C11.3618 27.6184 11.8809 26.5886 11.7009 25.4141C11.5972 24.7378 11.271 24.1397 10.8276 23.8141ZM10.369 26.8261C10.288 26.839 10.2015 26.8105 10.1071 26.7411C9.91693 26.6013 9.6858 26.2702 9.60777 25.7609C9.50676 25.1023 9.74608 24.5388 10.0191 24.4936C10.0316 24.4915 10.0441 24.4906 10.0571 24.4906C10.126 24.4906 10.2011 24.5201 10.2807 24.5787C10.4709 24.7184 10.702 25.0493 10.78 25.5589C10.8808 26.2174 10.6417 26.7807 10.369 26.8261ZM18.6784 26.0463C18.3913 25.8665 18.0487 25.819 17.6877 25.9098C17.1601 26.0424 16.6426 26.4706 16.3034 27.0553C15.714 28.0722 15.8206 29.2253 16.5468 29.6807C16.739 29.8013 16.9561 29.8621 17.187 29.8621C17.301 29.8621 17.4181 29.8474 17.5373 29.8174C18.0651 29.6848 18.5829 29.2566 18.9221 28.6717C19.5115 27.6548 19.4046 26.5017 18.6784 26.0463ZM18.1186 28.193C17.8658 28.6292 17.5369 28.8446 17.3135 28.9006C17.2006 28.9292 17.1071 28.9216 17.0371 28.8773C16.7914 28.7236 16.7691 28.1162 17.1067 27.534C17.3594 27.098 17.6884 26.8826 17.9118 26.8266C18.0255 26.798 18.1183 26.8056 18.1882 26.8497C18.4339 27.0034 18.4562 27.6108 18.1186 28.193ZM14.7582 23.5616C14.4291 23.5056 14.0981 23.5944 13.7996 23.8141C13.3562 24.1397 13.03 24.7378 12.9262 25.4141C12.7463 26.5886 13.2654 27.6184 14.1081 27.7581C14.1715 27.7687 14.235 27.7738 14.2985 27.7738C14.5635 27.7738 14.826 27.6827 15.0672 27.5056C15.5103 27.1798 15.8366 26.5817 15.9403 25.9057C16.1203 24.7306 15.6011 23.7011 14.7582 23.5616ZM15.0194 25.7609C14.9414 26.2702 14.7102 26.6013 14.5201 26.7411C14.4256 26.8107 14.3381 26.8397 14.2584 26.8261C13.9854 26.7807 13.7461 26.2174 13.8471 25.5589C13.9252 25.0493 14.1563 24.7184 14.3465 24.5787C14.4413 24.5091 14.5301 24.4816 14.6081 24.4936C14.8811 24.5388 15.1204 25.1023 15.0194 25.7609ZM31.4159 3.03333C31.4159 3.29411 31.2075 3.50555 30.95 3.50555H25.359C25.1015 3.50555 24.8931 3.29411 24.8931 3.03333C24.8931 2.77255 25.1015 2.56111 25.359 2.56111H30.95C31.2075 2.56111 31.4159 2.77255 31.4159 3.03333Z"/>
</mask>
<path d="M41.1622 11.8195L38.4045 5.29769V2.08889C38.4045 1.04737 37.5687 0.199997 36.5409 0.199997H19.7681C18.7405 0.199997 17.9045 1.04737 17.9045 2.08889V5.29769L15.1468 11.8195C15.1218 11.8783 15.109 11.9417 15.109 12.0056V15.4822C15.1061 15.4833 15.1029 15.4836 15.0999 15.4847C14.5137 14.5052 13.4652 13.8944 12.3136 13.8944C11.162 13.8944 10.1135 14.5052 9.52723 15.4847C9.22216 15.3704 8.90344 15.3111 8.58632 15.3111C7.04481 15.3111 5.79086 16.582 5.79086 18.1444C5.79086 18.1576 5.79086 18.1707 5.79109 18.1836C4.47048 18.4091 3.46131 19.5763 3.46131 20.9778C3.46131 21.1297 3.47747 21.2806 3.50104 21.4288C2.91519 21.8581 2.5295 22.5519 2.5295 23.3389V24.6202L0.978438 27.1363C0.469077 27.9656 0.199951 28.9175 0.199951 29.8887V31.8389C0.199951 33.1407 1.24506 34.2 2.5295 34.2H22.0977C23.2226 34.2 24.1636 33.3874 24.3801 32.3111H35.1431C35.1783 32.3111 35.2094 32.2983 35.2423 32.2908C35.2753 32.2983 35.3063 32.3111 35.3415 32.3111H40.734C40.9916 32.3111 41.2 32.0997 41.2 31.8389V12.0056C41.2 11.9417 41.1872 11.8783 41.1622 11.8195ZM40.0275 11.5333H35.8496L37.9386 6.59307L40.0275 11.5333ZM18.8363 2.08889C18.8363 1.56801 19.2542 1.14444 19.7681 1.14444H36.5409C37.0545 1.14444 37.4727 1.56801 37.4727 2.08889V4.92222H18.8363V2.08889ZM18.6775 5.86666H37.232L34.836 11.5333H16.2816L18.6775 5.86666ZM4.39313 20.9778C4.39313 19.9363 5.22918 19.0889 6.21377 19.0861C6.37393 19.1099 6.55774 19.0492 6.66125 18.9238C6.74975 18.8163 6.78661 18.6743 6.76181 18.5367C6.73519 18.3884 6.72268 18.2636 6.72268 18.1444C6.72268 17.1029 7.55872 16.2556 8.58632 16.2556C8.90231 16.2556 9.21102 16.3425 9.50426 16.5136C9.62028 16.5818 9.75905 16.5959 9.88554 16.5521C10.0123 16.509 10.1144 16.4126 10.1663 16.2878C10.5323 15.4077 11.3752 14.8389 12.3136 14.8389C13.252 14.8389 14.0949 15.4077 14.4609 16.2878C14.462 16.2905 14.4646 16.2921 14.4657 16.2948C14.5823 16.5799 14.6431 16.8878 14.6431 17.2C14.6431 17.4705 14.5985 17.7352 14.5107 17.987C14.425 18.233 14.5521 18.5028 14.7946 18.5897C14.8461 18.6081 14.8984 18.6169 14.95 18.6169C15.142 18.6169 15.3218 18.4956 15.3893 18.3019C15.5124 17.9487 15.575 17.5781 15.575 17.2C15.575 16.9146 15.5376 16.6317 15.4667 16.3582C15.6542 16.2926 15.8459 16.2556 16.0409 16.2556C17.0685 16.2556 17.9045 17.1029 17.9045 18.1444C17.9045 18.2636 17.892 18.3884 17.8654 18.5367C17.8406 18.6743 17.8774 18.8163 17.9659 18.9238C18.0544 19.0312 18.1857 19.0935 18.3238 19.0935C18.3531 19.0935 18.3822 19.091 18.3704 19.0889C19.398 19.0889 20.234 19.9363 20.234 20.9778C20.234 20.9939 20.2316 21.0092 20.2312 21.0252C20.0815 20.9945 19.9267 20.9778 19.7681 20.9778H4.85904C4.70091 20.9778 4.54666 20.9945 4.39728 21.0251C4.39689 21.0091 4.39313 20.9938 4.39313 20.9778ZM8.53991 33.2556C8.53968 33.2431 8.53968 33.2304 8.53968 33.2177C8.53968 31.4686 10.1881 29.4353 12.3136 29.4353C14.4391 29.4353 16.0875 31.4686 16.0875 33.2177C16.0875 33.2304 16.0875 33.2431 16.0873 33.2556H8.53991ZM22.0977 33.2556H17.0175C17.0176 33.2425 17.0193 33.2309 17.0193 33.2177C17.0193 30.9864 15.0069 28.4909 12.3136 28.4909C9.62028 28.4909 7.60786 30.9864 7.60786 33.2177C7.60786 33.2309 7.60957 33.2425 7.60971 33.2556H2.5295C1.75874 33.2556 1.13177 32.6201 1.13177 31.8389V29.8887C1.13177 29.0941 1.35244 28.3147 1.76921 27.6359L3.39056 25.0057C3.43675 24.9308 3.46131 24.8441 3.46131 24.7556V23.3389C3.46131 22.5577 4.08829 21.9222 4.85904 21.9222H19.7681C20.5389 21.9222 21.1659 22.5577 21.1659 23.3389V24.7556C21.1659 24.8441 21.1904 24.9308 21.2368 25.0057L22.8575 27.6352C23.2747 28.315 23.4954 29.0941 23.4954 29.8887V31.8389C23.4954 32.6201 22.8684 33.2556 22.0977 33.2556ZM22.1659 23.4251C23.0249 22.3638 24.1888 21.755 25.359 21.755C27.8651 21.755 29.7379 24.3306 29.7379 26.6336C29.7379 27.1307 29.6537 27.4554 29.4876 27.5983C29.1946 27.8506 28.4202 27.7219 27.6012 27.5863C26.9329 27.4759 26.1757 27.3505 25.359 27.3505C24.7955 27.3505 24.2631 27.4121 23.826 27.4752C23.7672 27.3617 23.7155 27.2451 23.6483 27.1356L22.0977 24.6202V23.4815C22.1204 23.4624 22.1464 23.4491 22.1659 23.4251ZM24.4272 31.3667V29.8887C24.4272 29.374 24.3467 28.8662 24.1996 28.3775C24.5521 28.3325 24.9503 28.2949 25.359 28.2949C26.1002 28.2949 26.8177 28.4137 27.4511 28.5186C27.9752 28.6053 28.4648 28.6864 28.9011 28.6864C29.3661 28.6864 29.7706 28.594 30.0909 28.318C30.4804 27.9827 30.6697 27.4316 30.6697 26.6336C30.6697 23.8849 28.3984 20.8106 25.359 20.8106C24.1003 20.8106 22.8602 21.3656 21.8761 22.3495C21.7046 21.9758 21.4418 21.6553 21.1137 21.4184C21.1249 21.3864 21.1412 21.3571 21.1454 21.322C21.159 21.209 21.1659 21.0942 21.1659 20.9778C21.1659 19.5763 20.1567 18.4091 18.8361 18.1836C18.8363 18.1707 18.8363 18.1576 18.8363 18.1444C18.8363 16.582 17.5824 15.3111 16.0409 15.3111V12.4778H34.6772V31.3667H24.4272ZM35.609 31.3667V12.4778H40.2681V31.3667H35.609ZM23.6223 15.4504C23.2952 15.2101 22.934 15.1133 22.5759 15.1737C21.6491 15.3272 21.0801 16.4702 21.2801 17.7757C21.3961 18.5311 21.7592 19.1982 22.2515 19.56C22.5154 19.7539 22.802 19.8535 23.0909 19.8535C23.1596 19.8535 23.2288 19.8479 23.2975 19.8364C24.2243 19.6831 24.7935 18.5403 24.5933 17.2346C24.4773 16.4792 24.1146 15.8122 23.6223 15.4504ZM23.1473 18.9044C23.0391 18.9229 22.9212 18.8857 22.7984 18.7954C22.5072 18.5814 22.2783 18.1352 22.201 17.6309C22.0781 16.8281 22.3766 16.1636 22.726 16.1057C22.7438 16.1027 22.762 16.1013 22.7802 16.1013C22.8734 16.1013 22.9722 16.1393 23.075 16.215C23.3662 16.4289 23.595 16.8751 23.6724 17.3794C23.7952 18.1823 23.4968 18.8465 23.1473 18.9044ZM32.5984 18.0042C32.2853 17.8083 31.9118 17.7566 31.5173 17.8562C30.9308 18.0033 30.3548 18.4811 29.9758 19.1343C29.3206 20.2646 29.4335 21.5422 30.232 22.043C30.4413 22.174 30.6774 22.2402 30.929 22.2402C31.0537 22.2402 31.1825 22.2238 31.3135 22.1911C31.8995 22.0437 32.4755 21.566 32.8541 20.9132C33.5093 19.7832 33.3973 18.5053 32.5984 18.0042ZM32.0506 20.4348C31.8003 20.8666 31.4318 21.1883 31.0892 21.2743C30.9404 21.3112 30.818 21.2997 30.7225 21.2397C30.4153 21.0474 30.3748 20.3109 30.7793 19.6128C31.03 19.1809 31.3986 18.859 31.7412 18.773C31.8904 18.7359 32.0128 18.7476 32.1079 18.8076C32.415 18.9999 32.4555 19.7366 32.0506 20.4348ZM28.1422 15.1737C27.7841 15.1133 27.4229 15.2101 27.0957 15.4504C26.6034 15.8122 26.2408 16.4792 26.1248 17.2346C25.9246 18.5403 26.4938 19.6831 27.4206 19.8364C27.4893 19.8479 27.5585 19.8535 27.6272 19.8535C27.9161 19.8535 28.2027 19.7539 28.4666 19.56C28.9589 19.1982 29.322 18.5311 29.438 17.7757C29.6382 16.4702 29.069 15.3272 28.1422 15.1737ZM28.5171 17.6309C28.4398 18.1352 28.2109 18.5814 27.9197 18.7954C27.7969 18.886 27.6763 18.9231 27.5707 18.9044C27.2213 18.8465 26.9228 18.1823 27.0457 17.3794C27.123 16.8751 27.3519 16.4289 27.6431 16.215C27.7459 16.1393 27.8446 16.1013 27.9379 16.1013C27.9561 16.1013 27.9743 16.1027 27.9921 16.1057C28.3415 16.1636 28.64 16.8281 28.5171 17.6309ZM8.32379 27.0553C7.98459 26.4706 7.46704 26.0424 6.93948 25.9098C6.57913 25.8192 6.2363 25.8665 5.94851 26.0463C5.22258 26.5017 5.11566 27.6548 5.7051 28.6717C6.04429 29.2566 6.56207 29.6848 7.08986 29.8174C7.20906 29.8474 7.32622 29.8621 7.4402 29.8621C7.67088 29.8621 7.88813 29.8013 8.0806 29.6807C8.80653 29.2253 8.91323 28.0722 8.32379 27.0553ZM7.59034 28.8773C7.52028 28.9216 7.42746 28.9295 7.31371 28.9006C7.09031 28.8446 6.76135 28.6292 6.50861 28.193C6.171 27.6108 6.1933 27.0034 6.43877 26.8497C6.48131 26.8231 6.53227 26.8098 6.59119 26.8098C6.62918 26.8098 6.67081 26.8153 6.7154 26.8266C6.9388 26.8826 7.26776 27.098 7.5205 27.534C7.8581 28.1162 7.83581 28.7236 7.59034 28.8773ZM10.8276 23.8141C10.5289 23.5941 10.1968 23.5067 9.86893 23.5616C9.02606 23.7011 8.50692 24.7306 8.68687 25.9057C8.79061 26.5817 9.11683 27.1798 9.55999 27.5056C9.80114 27.6827 10.0637 27.7738 10.3287 27.7738C10.3922 27.7738 10.4559 27.7687 10.5193 27.7581C11.3618 27.6184 11.8809 26.5886 11.7009 25.4141C11.5972 24.7378 11.271 24.1397 10.8276 23.8141ZM10.369 26.8261C10.288 26.839 10.2015 26.8105 10.1071 26.7411C9.91693 26.6013 9.6858 26.2702 9.60777 25.7609C9.50676 25.1023 9.74608 24.5388 10.0191 24.4936C10.0316 24.4915 10.0441 24.4906 10.0571 24.4906C10.126 24.4906 10.2011 24.5201 10.2807 24.5787C10.4709 24.7184 10.702 25.0493 10.78 25.5589C10.8808 26.2174 10.6417 26.7807 10.369 26.8261ZM18.6784 26.0463C18.3913 25.8665 18.0487 25.819 17.6877 25.9098C17.1601 26.0424 16.6426 26.4706 16.3034 27.0553C15.714 28.0722 15.8206 29.2253 16.5468 29.6807C16.739 29.8013 16.9561 29.8621 17.187 29.8621C17.301 29.8621 17.4181 29.8474 17.5373 29.8174C18.0651 29.6848 18.5829 29.2566 18.9221 28.6717C19.5115 27.6548 19.4046 26.5017 18.6784 26.0463ZM18.1186 28.193C17.8658 28.6292 17.5369 28.8446 17.3135 28.9006C17.2006 28.9292 17.1071 28.9216 17.0371 28.8773C16.7914 28.7236 16.7691 28.1162 17.1067 27.534C17.3594 27.098 17.6884 26.8826 17.9118 26.8266C18.0255 26.798 18.1183 26.8056 18.1882 26.8497C18.4339 27.0034 18.4562 27.6108 18.1186 28.193ZM14.7582 23.5616C14.4291 23.5056 14.0981 23.5944 13.7996 23.8141C13.3562 24.1397 13.03 24.7378 12.9262 25.4141C12.7463 26.5886 13.2654 27.6184 14.1081 27.7581C14.1715 27.7687 14.235 27.7738 14.2985 27.7738C14.5635 27.7738 14.826 27.6827 15.0672 27.5056C15.5103 27.1798 15.8366 26.5817 15.9403 25.9057C16.1203 24.7306 15.6011 23.7011 14.7582 23.5616ZM15.0194 25.7609C14.9414 26.2702 14.7102 26.6013 14.5201 26.7411C14.4256 26.8107 14.3381 26.8397 14.2584 26.8261C13.9854 26.7807 13.7461 26.2174 13.8471 25.5589C13.9252 25.0493 14.1563 24.7184 14.3465 24.5787C14.4413 24.5091 14.5301 24.4816 14.6081 24.4936C14.8811 24.5388 15.1204 25.1023 15.0194 25.7609ZM31.4159 3.03333C31.4159 3.29411 31.2075 3.50555 30.95 3.50555H25.359C25.1015 3.50555 24.8931 3.29411 24.8931 3.03333C24.8931 2.77255 25.1015 2.56111 25.359 2.56111H30.95C31.2075 2.56111 31.4159 2.77255 31.4159 3.03333Z" fill="#FFF9EF"/>
<path d="M41.1622 11.8195L38.4045 5.29769V2.08889C38.4045 1.04737 37.5687 0.199997 36.5409 0.199997H19.7681C18.7405 0.199997 17.9045 1.04737 17.9045 2.08889V5.29769L15.1468 11.8195C15.1218 11.8783 15.109 11.9417 15.109 12.0056V15.4822C15.1061 15.4833 15.1029 15.4836 15.0999 15.4847C14.5137 14.5052 13.4652 13.8944 12.3136 13.8944C11.162 13.8944 10.1135 14.5052 9.52723 15.4847C9.22216 15.3704 8.90344 15.3111 8.58632 15.3111C7.04481 15.3111 5.79086 16.582 5.79086 18.1444C5.79086 18.1576 5.79086 18.1707 5.79109 18.1836C4.47048 18.4091 3.46131 19.5763 3.46131 20.9778C3.46131 21.1297 3.47747 21.2806 3.50104 21.4288C2.91519 21.8581 2.5295 22.5519 2.5295 23.3389V24.6202L0.978438 27.1363C0.469077 27.9656 0.199951 28.9175 0.199951 29.8887V31.8389C0.199951 33.1407 1.24506 34.2 2.5295 34.2H22.0977C23.2226 34.2 24.1636 33.3874 24.3801 32.3111H35.1431C35.1783 32.3111 35.2094 32.2983 35.2423 32.2908C35.2753 32.2983 35.3063 32.3111 35.3415 32.3111H40.734C40.9916 32.3111 41.2 32.0997 41.2 31.8389V12.0056C41.2 11.9417 41.1872 11.8783 41.1622 11.8195ZM40.0275 11.5333H35.8496L37.9386 6.59307L40.0275 11.5333ZM18.8363 2.08889C18.8363 1.56801 19.2542 1.14444 19.7681 1.14444H36.5409C37.0545 1.14444 37.4727 1.56801 37.4727 2.08889V4.92222H18.8363V2.08889ZM18.6775 5.86666H37.232L34.836 11.5333H16.2816L18.6775 5.86666ZM4.39313 20.9778C4.39313 19.9363 5.22918 19.0889 6.21377 19.0861C6.37393 19.1099 6.55774 19.0492 6.66125 18.9238C6.74975 18.8163 6.78661 18.6743 6.76181 18.5367C6.73519 18.3884 6.72268 18.2636 6.72268 18.1444C6.72268 17.1029 7.55872 16.2556 8.58632 16.2556C8.90231 16.2556 9.21102 16.3425 9.50426 16.5136C9.62028 16.5818 9.75905 16.5959 9.88554 16.5521C10.0123 16.509 10.1144 16.4126 10.1663 16.2878C10.5323 15.4077 11.3752 14.8389 12.3136 14.8389C13.252 14.8389 14.0949 15.4077 14.4609 16.2878C14.462 16.2905 14.4646 16.2921 14.4657 16.2948C14.5823 16.5799 14.6431 16.8878 14.6431 17.2C14.6431 17.4705 14.5985 17.7352 14.5107 17.987C14.425 18.233 14.5521 18.5028 14.7946 18.5897C14.8461 18.6081 14.8984 18.6169 14.95 18.6169C15.142 18.6169 15.3218 18.4956 15.3893 18.3019C15.5124 17.9487 15.575 17.5781 15.575 17.2C15.575 16.9146 15.5376 16.6317 15.4667 16.3582C15.6542 16.2926 15.8459 16.2556 16.0409 16.2556C17.0685 16.2556 17.9045 17.1029 17.9045 18.1444C17.9045 18.2636 17.892 18.3884 17.8654 18.5367C17.8406 18.6743 17.8774 18.8163 17.9659 18.9238C18.0544 19.0312 18.1857 19.0935 18.3238 19.0935C18.3531 19.0935 18.3822 19.091 18.3704 19.0889C19.398 19.0889 20.234 19.9363 20.234 20.9778C20.234 20.9939 20.2316 21.0092 20.2312 21.0252C20.0815 20.9945 19.9267 20.9778 19.7681 20.9778H4.85904C4.70091 20.9778 4.54666 20.9945 4.39728 21.0251C4.39689 21.0091 4.39313 20.9938 4.39313 20.9778ZM8.53991 33.2556C8.53968 33.2431 8.53968 33.2304 8.53968 33.2177C8.53968 31.4686 10.1881 29.4353 12.3136 29.4353C14.4391 29.4353 16.0875 31.4686 16.0875 33.2177C16.0875 33.2304 16.0875 33.2431 16.0873 33.2556H8.53991ZM22.0977 33.2556H17.0175C17.0176 33.2425 17.0193 33.2309 17.0193 33.2177C17.0193 30.9864 15.0069 28.4909 12.3136 28.4909C9.62028 28.4909 7.60786 30.9864 7.60786 33.2177C7.60786 33.2309 7.60957 33.2425 7.60971 33.2556H2.5295C1.75874 33.2556 1.13177 32.6201 1.13177 31.8389V29.8887C1.13177 29.0941 1.35244 28.3147 1.76921 27.6359L3.39056 25.0057C3.43675 24.9308 3.46131 24.8441 3.46131 24.7556V23.3389C3.46131 22.5577 4.08829 21.9222 4.85904 21.9222H19.7681C20.5389 21.9222 21.1659 22.5577 21.1659 23.3389V24.7556C21.1659 24.8441 21.1904 24.9308 21.2368 25.0057L22.8575 27.6352C23.2747 28.315 23.4954 29.0941 23.4954 29.8887V31.8389C23.4954 32.6201 22.8684 33.2556 22.0977 33.2556ZM22.1659 23.4251C23.0249 22.3638 24.1888 21.755 25.359 21.755C27.8651 21.755 29.7379 24.3306 29.7379 26.6336C29.7379 27.1307 29.6537 27.4554 29.4876 27.5983C29.1946 27.8506 28.4202 27.7219 27.6012 27.5863C26.9329 27.4759 26.1757 27.3505 25.359 27.3505C24.7955 27.3505 24.2631 27.4121 23.826 27.4752C23.7672 27.3617 23.7155 27.2451 23.6483 27.1356L22.0977 24.6202V23.4815C22.1204 23.4624 22.1464 23.4491 22.1659 23.4251ZM24.4272 31.3667V29.8887C24.4272 29.374 24.3467 28.8662 24.1996 28.3775C24.5521 28.3325 24.9503 28.2949 25.359 28.2949C26.1002 28.2949 26.8177 28.4137 27.4511 28.5186C27.9752 28.6053 28.4648 28.6864 28.9011 28.6864C29.3661 28.6864 29.7706 28.594 30.0909 28.318C30.4804 27.9827 30.6697 27.4316 30.6697 26.6336C30.6697 23.8849 28.3984 20.8106 25.359 20.8106C24.1003 20.8106 22.8602 21.3656 21.8761 22.3495C21.7046 21.9758 21.4418 21.6553 21.1137 21.4184C21.1249 21.3864 21.1412 21.3571 21.1454 21.322C21.159 21.209 21.1659 21.0942 21.1659 20.9778C21.1659 19.5763 20.1567 18.4091 18.8361 18.1836C18.8363 18.1707 18.8363 18.1576 18.8363 18.1444C18.8363 16.582 17.5824 15.3111 16.0409 15.3111V12.4778H34.6772V31.3667H24.4272ZM35.609 31.3667V12.4778H40.2681V31.3667H35.609ZM23.6223 15.4504C23.2952 15.2101 22.934 15.1133 22.5759 15.1737C21.6491 15.3272 21.0801 16.4702 21.2801 17.7757C21.3961 18.5311 21.7592 19.1982 22.2515 19.56C22.5154 19.7539 22.802 19.8535 23.0909 19.8535C23.1596 19.8535 23.2288 19.8479 23.2975 19.8364C24.2243 19.6831 24.7935 18.5403 24.5933 17.2346C24.4773 16.4792 24.1146 15.8122 23.6223 15.4504ZM23.1473 18.9044C23.0391 18.9229 22.9212 18.8857 22.7984 18.7954C22.5072 18.5814 22.2783 18.1352 22.201 17.6309C22.0781 16.8281 22.3766 16.1636 22.726 16.1057C22.7438 16.1027 22.762 16.1013 22.7802 16.1013C22.8734 16.1013 22.9722 16.1393 23.075 16.215C23.3662 16.4289 23.595 16.8751 23.6724 17.3794C23.7952 18.1823 23.4968 18.8465 23.1473 18.9044ZM32.5984 18.0042C32.2853 17.8083 31.9118 17.7566 31.5173 17.8562C30.9308 18.0033 30.3548 18.4811 29.9758 19.1343C29.3206 20.2646 29.4335 21.5422 30.232 22.043C30.4413 22.174 30.6774 22.2402 30.929 22.2402C31.0537 22.2402 31.1825 22.2238 31.3135 22.1911C31.8995 22.0437 32.4755 21.566 32.8541 20.9132C33.5093 19.7832 33.3973 18.5053 32.5984 18.0042ZM32.0506 20.4348C31.8003 20.8666 31.4318 21.1883 31.0892 21.2743C30.9404 21.3112 30.818 21.2997 30.7225 21.2397C30.4153 21.0474 30.3748 20.3109 30.7793 19.6128C31.03 19.1809 31.3986 18.859 31.7412 18.773C31.8904 18.7359 32.0128 18.7476 32.1079 18.8076C32.415 18.9999 32.4555 19.7366 32.0506 20.4348ZM28.1422 15.1737C27.7841 15.1133 27.4229 15.2101 27.0957 15.4504C26.6034 15.8122 26.2408 16.4792 26.1248 17.2346C25.9246 18.5403 26.4938 19.6831 27.4206 19.8364C27.4893 19.8479 27.5585 19.8535 27.6272 19.8535C27.9161 19.8535 28.2027 19.7539 28.4666 19.56C28.9589 19.1982 29.322 18.5311 29.438 17.7757C29.6382 16.4702 29.069 15.3272 28.1422 15.1737ZM28.5171 17.6309C28.4398 18.1352 28.2109 18.5814 27.9197 18.7954C27.7969 18.886 27.6763 18.9231 27.5707 18.9044C27.2213 18.8465 26.9228 18.1823 27.0457 17.3794C27.123 16.8751 27.3519 16.4289 27.6431 16.215C27.7459 16.1393 27.8446 16.1013 27.9379 16.1013C27.9561 16.1013 27.9743 16.1027 27.9921 16.1057C28.3415 16.1636 28.64 16.8281 28.5171 17.6309ZM8.32379 27.0553C7.98459 26.4706 7.46704 26.0424 6.93948 25.9098C6.57913 25.8192 6.2363 25.8665 5.94851 26.0463C5.22258 26.5017 5.11566 27.6548 5.7051 28.6717C6.04429 29.2566 6.56207 29.6848 7.08986 29.8174C7.20906 29.8474 7.32622 29.8621 7.4402 29.8621C7.67088 29.8621 7.88813 29.8013 8.0806 29.6807C8.80653 29.2253 8.91323 28.0722 8.32379 27.0553ZM7.59034 28.8773C7.52028 28.9216 7.42746 28.9295 7.31371 28.9006C7.09031 28.8446 6.76135 28.6292 6.50861 28.193C6.171 27.6108 6.1933 27.0034 6.43877 26.8497C6.48131 26.8231 6.53227 26.8098 6.59119 26.8098C6.62918 26.8098 6.67081 26.8153 6.7154 26.8266C6.9388 26.8826 7.26776 27.098 7.5205 27.534C7.8581 28.1162 7.83581 28.7236 7.59034 28.8773ZM10.8276 23.8141C10.5289 23.5941 10.1968 23.5067 9.86893 23.5616C9.02606 23.7011 8.50692 24.7306 8.68687 25.9057C8.79061 26.5817 9.11683 27.1798 9.55999 27.5056C9.80114 27.6827 10.0637 27.7738 10.3287 27.7738C10.3922 27.7738 10.4559 27.7687 10.5193 27.7581C11.3618 27.6184 11.8809 26.5886 11.7009 25.4141C11.5972 24.7378 11.271 24.1397 10.8276 23.8141ZM10.369 26.8261C10.288 26.839 10.2015 26.8105 10.1071 26.7411C9.91693 26.6013 9.6858 26.2702 9.60777 25.7609C9.50676 25.1023 9.74608 24.5388 10.0191 24.4936C10.0316 24.4915 10.0441 24.4906 10.0571 24.4906C10.126 24.4906 10.2011 24.5201 10.2807 24.5787C10.4709 24.7184 10.702 25.0493 10.78 25.5589C10.8808 26.2174 10.6417 26.7807 10.369 26.8261ZM18.6784 26.0463C18.3913 25.8665 18.0487 25.819 17.6877 25.9098C17.1601 26.0424 16.6426 26.4706 16.3034 27.0553C15.714 28.0722 15.8206 29.2253 16.5468 29.6807C16.739 29.8013 16.9561 29.8621 17.187 29.8621C17.301 29.8621 17.4181 29.8474 17.5373 29.8174C18.0651 29.6848 18.5829 29.2566 18.9221 28.6717C19.5115 27.6548 19.4046 26.5017 18.6784 26.0463ZM18.1186 28.193C17.8658 28.6292 17.5369 28.8446 17.3135 28.9006C17.2006 28.9292 17.1071 28.9216 17.0371 28.8773C16.7914 28.7236 16.7691 28.1162 17.1067 27.534C17.3594 27.098 17.6884 26.8826 17.9118 26.8266C18.0255 26.798 18.1183 26.8056 18.1882 26.8497C18.4339 27.0034 18.4562 27.6108 18.1186 28.193ZM14.7582 23.5616C14.4291 23.5056 14.0981 23.5944 13.7996 23.8141C13.3562 24.1397 13.03 24.7378 12.9262 25.4141C12.7463 26.5886 13.2654 27.6184 14.1081 27.7581C14.1715 27.7687 14.235 27.7738 14.2985 27.7738C14.5635 27.7738 14.826 27.6827 15.0672 27.5056C15.5103 27.1798 15.8366 26.5817 15.9403 25.9057C16.1203 24.7306 15.6011 23.7011 14.7582 23.5616ZM15.0194 25.7609C14.9414 26.2702 14.7102 26.6013 14.5201 26.7411C14.4256 26.8107 14.3381 26.8397 14.2584 26.8261C13.9854 26.7807 13.7461 26.2174 13.8471 25.5589C13.9252 25.0493 14.1563 24.7184 14.3465 24.5787C14.4413 24.5091 14.5301 24.4816 14.6081 24.4936C14.8811 24.5388 15.1204 25.1023 15.0194 25.7609ZM31.4159 3.03333C31.4159 3.29411 31.2075 3.50555 30.95 3.50555H25.359C25.1015 3.50555 24.8931 3.29411 24.8931 3.03333C24.8931 2.77255 25.1015 2.56111 25.359 2.56111H30.95C31.2075 2.56111 31.4159 2.77255 31.4159 3.03333Z" stroke="#FFF9EF" stroke-width="0.4" mask="url(#path-1-outside-1_589_1374)"/>
</svg>
