<svg width="41" height="34" viewBox="0 0 41 34" fill="none" xmlns="http://www.w3.org/2000/svg">
<path d="M29.1103 17.8244C29.1103 17.0877 28.79 16.3831 28.2775 15.8706C27.3806 14.9738 25.9713 14.8456 24.9143 15.4542C23.8574 14.8456 22.4481 15.0058 21.5833 15.9026C21.0708 16.4151 20.7825 17.1198 20.7825 17.8565C20.7825 18.5932 21.1028 19.2978 21.6153 19.8103L24.4339 22.5649C24.5941 22.725 24.7862 22.7891 25.0104 22.7891C25.2346 22.7891 25.4268 22.693 25.587 22.5649L28.3415 19.8103C28.822 19.2338 29.1103 18.5611 29.1103 17.8244ZM27.4127 18.8494L25.0104 21.2837L22.5121 18.8814C22.2238 18.5932 22.0637 18.2408 22.0637 17.8244C22.0637 17.4401 22.2238 17.0557 22.4801 16.7995C22.7684 16.5112 23.1527 16.351 23.5371 16.351C23.8894 16.351 24.2417 16.4792 24.498 16.7034C24.7542 16.8956 25.1065 16.8956 25.3307 16.7034C25.9073 16.1909 26.8041 16.2229 27.3806 16.7674C27.6689 17.0557 27.8291 17.408 27.8291 17.8244C27.8291 18.2088 27.6689 18.5932 27.4127 18.8494ZM27.0603 10.938C27.1244 10.938 27.2205 10.938 27.2846 10.9059C27.6049 10.7778 27.797 10.4255 27.6689 10.0732C27.5408 9.75286 27.1885 9.56068 26.8361 9.6888C26.5158 9.81692 26.3237 10.1692 26.4518 10.5216C26.5479 10.7778 26.7721 10.938 27.0603 10.938ZM23.473 6.99827C23.5691 7.06233 23.6652 7.09436 23.7933 7.09436C24.0175 7.09436 24.2417 6.96624 24.3378 6.77406C24.498 6.45376 24.4019 6.0694 24.1136 5.90925C23.7933 5.71707 23.4089 5.84519 23.2488 6.13346C23.0566 6.42173 23.1847 6.80609 23.473 6.99827ZM25.7471 8.7279C25.9073 8.7279 26.0354 8.69587 26.1635 8.56775C26.4197 8.34354 26.4838 7.92714 26.2276 7.6709C26.0034 7.41466 25.587 7.3506 25.3307 7.60684C25.0745 7.83105 25.0425 8.24744 25.2667 8.50369C25.3948 8.63181 25.587 8.7279 25.7471 8.7279ZM26.8682 12.7957C26.8682 13.1801 27.1564 13.4683 27.5088 13.4683C27.8611 13.4683 28.1494 13.1801 28.1494 12.8277V12.7957C28.1494 12.4434 27.8611 12.1551 27.5088 12.1551C27.1244 12.1551 26.8682 12.4434 26.8682 12.7957ZM21.263 6.19752C21.295 6.19752 21.327 6.19752 21.359 6.19752C21.6793 6.19752 21.9356 5.97331 21.9996 5.65301C22.0637 5.30068 21.8395 4.98038 21.4872 4.91632C21.1348 4.85226 20.8145 5.07647 20.7505 5.4288C20.6864 5.81316 20.9427 6.13346 21.263 6.19752ZM14.0883 17.0877C13.832 17.312 13.768 17.7283 14.0242 17.9846C14.1523 18.1447 14.3445 18.2088 14.5047 18.2088C14.6648 18.2088 14.7929 18.1447 14.9211 18.0486C15.1773 17.8244 15.2093 17.408 14.9851 17.1518C14.7609 16.8956 14.3445 16.8635 14.0883 17.0877ZM16.7788 18.6572C16.4585 18.4971 16.0741 18.5932 15.914 18.8814C15.7538 19.1697 15.8499 19.5861 16.1382 19.7462C16.2343 19.8103 16.3624 19.8423 16.4585 19.8423C16.6827 19.8423 16.9069 19.7142 17.003 19.522C17.1952 19.2338 17.0991 18.8494 16.7788 18.6572ZM12.6149 15.5823C12.711 15.8386 12.9672 15.9987 13.2235 15.9987C13.2875 15.9987 13.3836 15.9987 13.4477 15.9667C13.768 15.8386 13.9602 15.4862 13.832 15.1339C13.7039 14.8136 13.3516 14.6214 12.9993 14.7495C12.6469 14.8777 12.4868 15.262 12.6149 15.5823ZM18.9568 19.458C18.6045 19.3939 18.2842 19.6181 18.2201 19.9704C18.1561 20.3228 18.3803 20.6431 18.7326 20.7071C18.7646 20.7071 18.7967 20.7071 18.8607 20.7071C19.181 20.7071 19.4373 20.4829 19.5013 20.1626C19.5654 19.8423 19.3091 19.522 18.9568 19.458ZM12.7751 12.2192C12.4227 12.2192 12.1345 12.5074 12.1345 12.8598C12.1345 13.2121 12.4227 13.5004 12.7751 13.5004C13.1274 13.5004 13.4157 13.2121 13.4157 12.8598C13.4157 12.4754 13.1274 12.1871 12.7751 12.2192ZM19.181 6.61391C19.181 5.87722 18.8607 5.17256 18.3482 4.66008C17.4514 3.76324 16.0421 3.63512 14.9851 4.24369C13.9281 3.63512 12.5188 3.79527 11.654 4.69211C11.1415 5.20459 10.8533 5.90925 10.8533 6.64594C10.8533 7.38263 11.1736 8.08729 11.686 8.59978L14.5047 11.3544C14.6648 11.5145 14.857 11.5786 15.0812 11.5786C15.3054 11.5786 15.4976 11.4825 15.6577 11.3544L18.4123 8.59978C18.8927 8.02323 19.181 7.3506 19.181 6.61391ZM17.4834 7.63887L15.0812 10.0732L12.5829 7.6709C12.2946 7.38263 12.1345 7.0303 12.1345 6.61391C12.1345 6.22955 12.2946 5.84519 12.5508 5.58895C12.8391 5.30068 13.2235 5.14053 13.6078 5.14053C13.9602 5.14053 14.3125 5.26865 14.5687 5.49286C14.825 5.68504 15.1773 5.68504 15.4015 5.49286C15.978 4.98038 16.8749 5.01241 17.4514 5.55692C17.7397 5.84519 17.8998 6.19752 17.8998 6.61391C17.8998 6.99827 17.7397 7.38263 17.4834 7.63887Z" fill="#FFF9EF"/>
<path d="M40.4814 13.3726L35.1004 1.55355C34.7801 0.816862 34.1396 0.304381 33.3708 0.112201C32.6021 -0.0799796 31.8014 0.0481407 31.1608 0.528592C30.1679 1.23325 29.7835 2.54648 30.2319 3.66754L32.506 9.78528C32.442 9.88137 32.3459 9.97746 32.2818 10.0735C32.0576 10.4259 31.9295 10.9063 31.8975 11.4188C31.8334 12.7961 31.449 14.2054 31.0967 15.5507V15.5827C30.8725 16.4475 30.6163 17.3444 30.3921 18.2092C30.1038 19.2021 29.8155 20.2591 29.5593 21.2841C29.1749 22.7575 28.9507 24.2949 28.8226 25.9284C28.8226 26.0565 28.8226 26.1847 28.8226 26.3128H28.7906C27.8937 26.3128 27.1891 27.0175 27.1891 27.9143V32.3985C27.1891 33.2953 27.8937 34 28.7906 34H37.7589C38.6558 34 39.3604 33.2953 39.3604 32.3985V27.8823C39.3604 26.9854 38.6558 26.2808 37.7589 26.2808H37.6308C37.6308 26.2487 37.6308 26.1847 37.6628 26.1526L40.5775 18.2092C40.8017 17.6326 40.9299 17.0561 40.9619 16.4796C41.026 15.3905 40.8658 14.3015 40.4814 13.3726ZM37.7589 27.562C37.9511 27.562 38.0792 27.6901 38.0792 27.8823V32.3665C38.0792 32.5587 37.9511 32.6868 37.7589 32.6868H28.7906C28.5984 32.6868 28.4703 32.5587 28.4703 32.3665V27.8823C28.4703 27.6901 28.5984 27.562 28.7906 27.562H37.7589ZM39.6487 16.3835C39.6166 16.8319 39.5206 17.3123 39.3284 17.7608L36.4137 25.7362C36.4137 25.7683 36.4137 25.7683 36.3816 25.8003C36.3496 25.9605 36.3176 26.1206 36.2855 26.3128H30.1038C30.1038 26.2167 30.1038 26.1206 30.1038 26.0245C30.1999 24.4871 30.4561 22.9817 30.8085 21.6044C31.0647 20.5794 31.353 19.5544 31.6412 18.5615C31.8975 17.6967 32.1217 16.7999 32.3779 15.935V15.903C32.7623 14.4937 33.1466 13.0203 33.2107 11.5149C33.2107 11.1946 33.3068 10.9384 33.4029 10.7782C33.595 10.4899 33.7552 10.4899 33.8513 10.4899C34.4278 10.522 34.9723 11.3548 35.1004 12.3477C35.3567 14.1734 35.3887 16.4796 34.0435 19.7787C33.9153 20.099 34.0755 20.4833 34.3958 20.6114C34.7161 20.7396 35.1004 20.5794 35.2286 20.2591C36.734 16.7038 36.6379 14.1734 36.3816 12.1555C36.1574 10.4899 35.1645 9.2728 33.9474 9.17671C33.8833 9.17671 33.7872 9.17671 33.7232 9.17671L31.5131 3.18709C31.2889 2.61055 31.4811 1.93791 31.9936 1.55355C32.3139 1.32934 32.7302 1.23325 33.1146 1.36137C33.499 1.45746 33.8193 1.74573 34.0114 2.09806L39.3924 13.8851C39.6166 14.6218 39.7448 15.4866 39.6487 16.3835Z" fill="#FFF9EF"/>
<path d="M12.4548 26.2806H12.1025C12.1025 26.1524 12.1025 26.0243 12.1025 25.8962C11.9744 24.2627 11.7501 22.6932 11.3658 21.2518C11.1095 20.2269 10.8213 19.2019 10.533 18.177C10.2768 17.3121 10.0526 16.4473 9.82835 15.5505V15.5185C9.47603 14.1732 9.09167 12.7639 9.02761 11.3866C8.99558 10.8421 8.86746 10.3936 8.64325 10.0413C8.54716 9.9132 8.45107 9.78508 8.35499 9.65696L10.6932 3.63531C11.1416 2.48222 10.7892 1.20102 9.79633 0.49636C9.15573 0.0479396 8.35498 -0.112211 7.58627 0.0799696C6.81755 0.27215 6.20899 0.816661 5.85666 1.52132L0.475657 13.3724C0.0912996 14.2693 -0.0688493 15.3903 0.0272401 16.4473C0.0592699 17.0239 0.187389 17.6004 0.411597 18.177L3.32631 26.1204C3.32631 26.1845 3.35834 26.2165 3.35834 26.2806C2.49353 26.3766 1.88497 27.0493 1.88497 27.8821V32.3663C1.88497 33.2631 2.58962 33.9678 3.48646 33.9678H12.4548C13.3516 33.9678 14.0563 33.2631 14.0563 32.3663V27.8821C14.0563 26.9852 13.3516 26.2806 12.4548 26.2806ZM1.56467 17.7606C1.40452 17.2801 1.2764 16.8317 1.24437 16.3833C1.18031 15.5185 1.30843 14.6216 1.5967 13.917L6.9777 2.09786C7.13785 1.7135 7.45815 1.45726 7.87454 1.36117C8.2589 1.26508 8.67528 1.32914 8.99558 1.55335C9.50806 1.93771 9.70024 2.57831 9.47603 3.18689L7.13785 9.17651C7.10582 9.17651 7.07379 9.17651 7.00973 9.17651C5.7926 9.24057 4.79968 10.4577 4.57547 12.1553C4.31923 14.1412 4.25517 16.6715 5.72854 20.2589C5.85666 20.5792 6.24102 20.7394 6.56132 20.6112C6.88161 20.4831 7.04176 20.0988 6.91364 19.7785C5.53636 16.4794 5.60042 14.1732 5.85666 12.3475C5.98478 11.3546 6.52929 10.5218 7.10582 10.4897C7.16988 10.4897 7.36206 10.4897 7.55424 10.778C7.65033 10.9382 7.71439 11.1944 7.74642 11.5147C7.81048 13.0201 8.19484 14.4935 8.57919 15.9028V15.9348C8.8034 16.8317 9.05964 17.6965 9.31588 18.5613C9.60415 19.5542 9.89241 20.5792 10.1487 21.6042C10.501 22.9815 10.7252 24.4869 10.8533 26.0243C10.8533 26.1204 10.8533 26.2165 10.8533 26.3126H4.6075C4.6075 26.1524 4.57547 25.9603 4.51141 25.8001C4.51141 25.7681 4.51141 25.7681 4.47938 25.736L1.56467 17.7606ZM12.7751 32.3663C12.7751 32.5584 12.647 32.6866 12.4548 32.6866H3.48646C3.29428 32.6866 3.16616 32.5584 3.16616 32.3663V27.8821C3.16616 27.6899 3.29428 27.5618 3.48646 27.5618H12.4548C12.647 27.5618 12.7751 27.6899 12.7751 27.8821V32.3663Z" fill="#FFF9EF"/>
</svg>
