<svg width="21" height="21" viewBox="0 0 21 21" fill="none" xmlns="http://www.w3.org/2000/svg">
<path d="M16.792 20.5C17.2683 20.5 17.7255 20.338 18.1748 19.9824C18.6971 19.5691 19.0418 19.2599 19.2305 19.0479L19.2373 19.04L19.2432 19.0332C19.5419 18.7224 19.8359 18.3359 20.1221 17.8682C20.3957 17.4209 20.5 17.0675 20.5 16.7959C20.5 16.7157 20.4712 16.5838 20.3652 16.3887C20.2643 16.203 20.0883 15.9692 19.8174 15.6855L19.8145 15.6816C19.6208 15.4752 19.3914 15.2533 19.126 15.0146C18.8614 14.7768 18.5688 14.5311 18.248 14.2773C18.0736 14.1405 17.6052 13.8129 16.8203 13.2832C16.0564 12.7677 15.5324 12.5791 15.2109 12.5791C15.0151 12.5792 14.8095 12.6639 14.5859 12.9443C14.3755 13.2084 14.1618 13.5043 13.9443 13.832L13.7256 14.1709L13.7236 14.1729V14.1738L13.7217 14.1758V14.1768L13.7197 14.1787V14.1797L13.7188 14.1807L13.7178 14.1826V14.1836L13.7158 14.1855V14.1865L13.7139 14.1885V14.1895L13.7119 14.1914V14.1924L13.71 14.1943V14.1953L13.709 14.1963V14.1982L13.707 14.2002V14.2012L13.7051 14.2031V14.2041L13.7031 14.2061V14.207L13.7012 14.209V14.21L13.6992 14.2119V14.2139L13.6973 14.2158V14.2168L13.6953 14.2188V14.2197L13.6934 14.2217V14.2227L13.6914 14.2246V14.2256L13.6895 14.2275V14.2295L13.6885 14.2305V14.2314L13.6865 14.2334V14.2344L13.6846 14.2363V14.2373L13.6826 14.2393V14.2402L13.6807 14.2422V14.2432L13.6797 14.2451L13.6787 14.2461V14.2471L13.6768 14.249V14.25L13.6748 14.252V14.2529L13.6729 14.2549V14.2559L13.6709 14.2578V14.2588L13.6699 14.2607L13.6689 14.2617V14.2627L13.667 14.2646V14.2656L13.666 14.2666V14.2676L13.6641 14.2695V14.2705L13.6621 14.2725V14.2734L13.6611 14.2744L13.6602 14.2764V14.2773L13.6582 14.2793V14.2803L13.6562 14.2822V14.2832L13.6543 14.2852V14.2861L13.6523 14.2881V14.2891L13.6504 14.291V14.293L13.6484 14.2949V14.2959L13.6465 14.2979V14.2988L13.6445 14.3008V14.3018L13.6436 14.3027V14.3037L13.6416 14.3057V14.3066L13.6406 14.3086L13.6396 14.3096V14.3105L13.6377 14.3125V14.3135L13.6357 14.3154V14.3164L13.6338 14.3184V14.3193L13.6318 14.3213V14.3223L13.6309 14.3242L13.6299 14.3252V14.3262L13.6279 14.3281V14.3291L13.626 14.3311V14.332L13.624 14.334V14.335L13.623 14.3359V14.3369L13.6221 14.3379L13.6211 14.3398V14.3408L13.6191 14.3428V14.3438L13.6172 14.3457V14.3467L13.6152 14.3486V14.3496L13.6133 14.3516V14.3525L13.6123 14.3535L13.6113 14.3555V14.3564L13.6094 14.3584V14.3594L13.6074 14.3613V14.3623L13.6055 14.3643V14.3652L13.6035 14.3672V14.3682L13.6025 14.3691L13.6016 14.3711V14.3721L13.6006 14.373V14.374L13.5986 14.376V14.377L13.5967 14.3789V14.3799L13.5947 14.3818V14.3828L13.5928 14.3848V14.3867L13.5908 14.3887V14.3896L13.5889 14.3916V14.3926L13.5869 14.3945V14.3955L13.585 14.3975V14.3984L13.583 14.4004V14.4023L13.5811 14.4043V14.4053L13.5791 14.4072V14.4082L13.5781 14.4092V14.4102L13.5762 14.4121V14.4131L13.5742 14.415V14.416L13.5732 14.418L13.5723 14.4189V14.4199L13.5703 14.4219V14.4229L13.5684 14.4248V14.4258L13.5664 14.4277V14.4287L13.5645 14.4307V14.4316L13.5635 14.4336L13.5625 14.4346V14.4355L13.5605 14.4375V14.4385L13.5586 14.4404V14.4414L13.5576 14.4424V14.4434L13.5557 14.4453V14.4463L13.5547 14.4473L13.5537 14.4492V14.4502L13.5518 14.4521V14.4531L13.5498 14.4551V14.4561L13.5479 14.458V14.459L13.5459 14.4609V14.4619L13.5449 14.4629L13.5439 14.4648V14.4658L13.542 14.4678V14.4688L13.54 14.4707V14.4717L13.5381 14.4736V14.4746L13.5361 14.4766V14.4775L13.5352 14.4785V14.4805L13.5332 14.4824V14.4834L13.5312 14.4854V14.4863L13.5293 14.4883V14.4893L13.5273 14.4912V14.4922L13.5254 14.4941V14.4961L13.5234 14.498V14.499L13.5215 14.501V14.502L13.5195 14.5039V14.5049L13.5176 14.5068V14.5078L13.5156 14.5098V14.5117L13.5137 14.5137V14.5146L13.5127 14.5156V14.5166L13.5107 14.5186V14.5195L13.5088 14.5215V14.5225L13.5068 14.5244V14.5254L13.5059 14.5273L13.5049 14.5283V14.5293L13.5029 14.5312V14.5322L13.501 14.5342V14.5352L13.499 14.5371V14.5381L13.4971 14.54V14.541L13.4961 14.543L13.4951 14.5439V14.5449L13.4932 14.5469V14.5479L13.4912 14.5498V14.5508L13.4902 14.5518V14.5527L13.4883 14.5547V14.5557L13.4863 14.5576V14.5596L13.4844 14.5615V14.5625L13.4824 14.5645V14.5654L13.4805 14.5674V14.5684L13.4785 14.5703V14.5713L13.4766 14.5732V14.5752L13.4746 14.5771V14.5781L13.4727 14.5801V14.5811L13.4707 14.583V14.584L13.4697 14.585V14.5859L13.4678 14.5879V14.5889L13.4668 14.5908L13.4658 14.5918V14.5928L13.4639 14.5947V14.5957L13.4619 14.5977V14.5986L13.46 14.6006V14.6016L13.458 14.6035V14.6045L13.457 14.6064L13.4561 14.6074V14.6084L13.4541 14.6104V14.6113L13.4521 14.6133V14.6143L13.4502 14.6162V14.6172L13.4482 14.6191V14.6201L13.4473 14.6221V14.623L13.4453 14.625V14.626L13.4434 14.6279V14.6289L13.4414 14.6309V14.6318L13.4395 14.6338V14.6348L13.4385 14.6357L13.4375 14.6377V14.6387L13.4355 14.6406V14.6416L13.4336 14.6436V14.6445L13.4316 14.6465V14.6475L13.4297 14.6494V14.6504L13.4287 14.6514L13.4277 14.6533V14.6543L13.4258 14.6562V14.6572L13.4248 14.6582V14.6592L13.4229 14.6611V14.6621L13.4209 14.6641V14.665L13.4189 14.667V14.6689L13.417 14.6709V14.6719L13.415 14.6738V14.6748L13.4131 14.6768V14.6777L13.4111 14.6797V14.6807L13.4092 14.6826V14.6846L13.4072 14.6865V14.6875L13.4053 14.6895V14.6904L13.4043 14.6914V14.6924L13.4023 14.6943V14.6953L13.4004 14.6973V14.6982L13.3994 14.7002C13.2812 14.8921 13.1596 15.0663 13.0352 15.2217L13.0322 15.2256L12.8428 15.4414C12.7778 15.5085 12.7113 15.5685 12.6455 15.6123C12.6099 15.636 12.5709 15.6611 12.5332 15.6816C12.5148 15.6917 12.487 15.706 12.4551 15.7188C12.4365 15.7262 12.3576 15.7578 12.2549 15.7578H12.1592L12.0693 15.7217C11.4089 15.4577 10.7306 15.0744 10.0352 14.5781L10.0312 14.5752C9.35348 14.0815 8.70502 13.5284 8.08594 12.917C7.46407 12.3028 6.90421 11.6488 6.4082 10.9551C5.91131 10.2601 5.52698 9.58195 5.2627 8.92188L5.22754 8.83301V8.73633C5.22754 8.63346 5.25916 8.55468 5.2666 8.53613C5.27938 8.50421 5.29364 8.47645 5.30371 8.45801C5.32432 8.42028 5.34931 8.38128 5.37305 8.3457C5.46107 8.21391 5.6138 8.07928 5.75977 7.95996L5.76367 7.95605C5.91915 7.8318 6.0941 7.71085 6.28613 7.59277C6.46265 7.48425 6.63989 7.3761 6.81641 7.26758V7.2666C7.28251 6.97389 7.69154 6.68757 8.04395 6.40723C8.32476 6.18378 8.40918 5.9783 8.40918 5.7832C8.40918 5.46248 8.22014 4.94001 7.7041 4.17676C7.17526 3.39457 6.8486 2.92632 6.71094 2.75098C6.45665 2.43009 6.21003 2.13763 5.97168 1.87305C5.73291 1.60801 5.51026 1.37902 5.30371 1.18555L5.2998 1.18262C5.01579 0.911775 4.78165 0.735612 4.5957 0.634766C4.40037 0.528836 4.26811 0.5 4.1875 0.5C3.9153 0.500047 3.56181 0.604733 3.11426 0.87793C2.646 1.16381 2.25844 1.45743 1.94727 1.75586L1.94043 1.76172L1.93359 1.76855L1.75684 1.93848C1.56298 2.13822 1.31466 2.42843 1.00977 2.81934C0.659784 3.26804 0.5 3.72624 0.5 4.2041C0.5 5.08671 0.623056 6.00076 0.873047 6.94727C1.12297 7.89342 1.49984 8.86548 2.00586 9.86328L2.00684 9.86621C2.23071 10.3135 2.48858 10.7625 2.78027 11.2129L2.78613 11.2217C3.06579 11.674 3.3693 12.1205 3.69629 12.5605C4.02519 13.0031 4.37154 13.4395 4.73438 13.8691C5.09453 14.2955 5.47445 14.7092 5.875 15.1094C6.27565 15.5096 6.68928 15.8901 7.11621 16.25L7.11719 16.249L7.12402 16.2559C7.55205 16.63 7.98644 16.98 8.42676 17.3066C8.86715 17.6333 9.31387 17.9365 9.7666 18.2158C9.99479 18.3566 10.2233 18.4925 10.4512 18.623L11.1338 18.999C12.1299 19.5027 13.1001 19.8778 14.0449 20.127C14.9926 20.3768 15.9083 20.5 16.792 20.5ZM16.792 20.4541C15.0471 20.4541 13.2739 19.998 11.4775 19.1045L11.1182 18.9199C9.3305 17.9873 7.69495 16.8026 6.21191 15.3682L5.91699 15.0771C4.35728 13.5119 3.07157 11.7772 2.0625 9.87305L2.06152 9.87012C1.05957 7.95275 0.546875 6.06238 0.546875 4.2041C0.546875 3.79866 0.711275 3.387 0.960938 2.98633C1.21535 2.57812 1.55856 2.17863 1.97949 1.78711L1.98535 1.78125C2.41398 1.39587 2.82287 1.09221 3.21094 0.882812C3.3922 0.785027 3.55831 0.704993 3.70508 0.648438C3.84092 0.596092 4.00464 0.545932 4.16699 0.545898H4.19824L4.22949 0.549805C4.34244 0.563979 4.43936 0.60729 4.50098 0.638672C4.57053 0.674119 4.64194 0.718664 4.71191 0.766602C4.78202 0.814641 4.85838 0.872267 4.94141 0.9375L5.20996 1.15723C5.51689 1.41845 5.87677 1.80247 6.28809 2.29785L6.7168 2.8291L6.72266 2.83789C7.22279 3.5041 7.61669 4.09147 7.89844 4.59668C8.03551 4.84248 8.14462 5.05506 8.2207 5.23047C8.26976 5.34357 8.32517 5.48296 8.34961 5.62305L8.3623 5.7627L8.35742 5.83496C8.34801 5.90161 8.32773 5.94925 8.32227 5.96289C8.30948 5.99482 8.29523 6.02257 8.28516 6.04102C8.26457 6.07867 8.24048 6.11782 8.2168 6.15332L8.13965 6.25195C8.0528 6.35116 7.93963 6.4495 7.83008 6.53906L7.81543 6.55176L7.7998 6.5625L7.32031 6.88086L6.79004 7.21387L6.78125 7.21875L6.44727 7.42188C6.33649 7.49124 6.22634 7.56207 6.11719 7.63477L5.97168 7.73633C5.8322 7.83828 5.7115 7.94095 5.6084 8.04395L5.59668 8.05566L5.58398 8.06641L5.39941 8.24512C5.25123 8.40698 5.20423 8.52013 5.19434 8.58105C5.1621 8.78004 5.18314 8.88565 5.20312 8.93359L5.20605 8.94043C5.43002 9.49973 5.74513 10.0819 6.15625 10.6865L6.33887 10.9463C6.71656 11.4726 7.12969 11.9795 7.5791 12.4658L8.04102 12.9453C8.51448 13.4183 9.00799 13.8556 9.52148 14.2568L10.042 14.6465C10.6539 15.0847 11.243 15.4268 11.8096 15.6768L12.0508 15.7783C12.0849 15.7919 12.1059 15.7958 12.1152 15.7969C12.1567 15.8015 12.2031 15.8037 12.2549 15.8037C12.4684 15.8037 12.6894 15.7115 12.9258 15.4229C13.2162 15.0682 13.4997 14.6608 13.7764 14.2002L13.7793 14.1953C13.8902 14.0152 14.0012 13.8384 14.1123 13.665C14.2247 13.4895 14.3321 13.3299 14.4326 13.1865L14.4434 13.1709L14.4551 13.1572C14.5747 13.0112 14.7098 12.8584 14.8418 12.7705C14.8774 12.7468 14.9163 12.7217 14.9541 12.7012C14.9725 12.6911 14.9995 12.6768 15.0312 12.6641C15.049 12.657 15.1281 12.625 15.2314 12.625C15.4149 12.625 15.6126 12.7012 15.7637 12.7666C15.8515 12.8046 15.9487 12.8505 16.0547 12.9043L16.3984 13.0879C16.7778 13.299 17.2034 13.5734 17.6738 13.9082L18.1592 14.2627L18.167 14.2686C18.9259 14.8613 19.4922 15.3656 19.8408 15.7744C20.0031 15.9647 20.1351 16.1322 20.2314 16.2725C20.2794 16.3424 20.3249 16.4129 20.3604 16.4824C20.3839 16.5287 20.4139 16.595 20.4336 16.6729L20.4492 16.7539L20.4531 16.7852V16.8164L20.4443 16.9385C20.4277 17.0592 20.3898 17.1767 20.3506 17.2783C20.294 17.4249 20.214 17.5906 20.1162 17.7715L19.9424 18.0664C19.7517 18.3657 19.5095 18.6806 19.2217 19.0107L19.2041 19.0303C18.8139 19.4345 18.4184 19.7688 18.0166 20.0264L17.8652 20.1182C17.5119 20.323 17.1504 20.4541 16.792 20.4541ZM1.54688 4.2041C1.54688 5.87245 2.00479 7.60473 2.94531 9.40527L2.94629 9.4043C3.90782 11.2188 5.13307 12.8749 6.625 14.3721C7.92943 15.6811 9.35807 16.7781 10.9102 17.666L11.583 18.0342L11.5859 18.0352C13.3889 18.9887 15.1224 19.4541 16.792 19.4541C16.9298 19.454 17.1522 19.3924 17.4766 19.1846C17.7999 18.9774 18.1358 18.696 18.4844 18.335C18.8305 17.936 19.0776 17.5905 19.2363 17.2969C19.3232 17.1362 19.3812 17.0105 19.417 16.918C19.4229 16.9027 19.4265 16.8888 19.4307 16.877C19.4234 16.8657 19.4168 16.8518 19.4072 16.8379C19.3733 16.7884 19.3297 16.7292 19.2754 16.6602L19.0801 16.4229C18.7995 16.0938 18.2987 15.6416 17.5537 15.0596C16.9093 14.577 16.3631 14.2129 15.9121 13.9619C15.6793 13.8323 15.4985 13.7409 15.3662 13.6836C15.3549 13.6787 15.3432 13.6761 15.333 13.6719C15.3074 13.7001 15.2754 13.7337 15.2402 13.7764C15.1522 13.9025 15.0573 14.0455 14.9551 14.2051L14.6309 14.7207C14.3337 15.2149 14.0234 15.6608 13.6992 16.0566L13.5518 16.2217C13.1969 16.5863 12.7625 16.8037 12.2549 16.8037L12.0049 16.79C11.9479 16.7837 11.8922 16.7731 11.8379 16.7588L11.6797 16.7061C11.0423 16.4513 10.3961 16.0998 9.74121 15.6553L9.45996 15.459C8.71185 14.9231 8.00273 14.3214 7.33398 13.6533C6.8325 13.1523 6.36854 12.6286 5.94141 12.083L5.52637 11.5303C4.98918 10.7818 4.57161 10.0442 4.28027 9.31836C4.16349 9.03824 4.15728 8.72641 4.20703 8.41992C4.27441 8.00569 4.55261 7.64634 4.90039 7.33691H4.90137C5.09239 7.14608 5.31473 6.9684 5.56348 6.80273C5.79393 6.64925 6.02815 6.50307 6.26562 6.36328V6.3623C6.4411 6.25443 6.61371 6.14681 6.78223 6.03906C6.9424 5.93665 7.08536 5.84107 7.21191 5.75293C7.2541 5.71814 7.28738 5.68655 7.31543 5.66113C7.31121 5.65099 7.30859 5.63917 7.30371 5.62793C7.27507 5.56191 7.23751 5.4841 7.19141 5.39355L7.02539 5.08301C6.77454 4.63324 6.41064 4.08875 5.92871 3.44629C5.34514 2.70059 4.89132 2.19961 4.56152 1.91895C4.38262 1.76669 4.24552 1.65966 4.14648 1.5918C4.13257 1.58226 4.11867 1.57562 4.10742 1.56836C4.09519 1.57257 4.08027 1.57593 4.06445 1.58203C3.97184 1.61774 3.84702 1.67613 3.68652 1.7627L3.45508 1.89941C3.21509 2.0536 2.94856 2.26081 2.6543 2.52539C2.28455 2.87008 2.00568 3.2 1.80957 3.51465L1.68359 3.73926C1.58122 3.94552 1.54688 4.09812 1.54688 4.2041Z" stroke="#FFF9EF"/>
</svg>
