<svg width="22" height="24" viewBox="0 0 22 24" fill="none" xmlns="http://www.w3.org/2000/svg">
<path d="M15.8941 21.04C15.1408 21.04 14.3653 20.9349 13.5676 20.7246C12.77 20.5143 11.9557 20.1989 11.1248 19.7783C10.7482 19.5791 10.3715 19.3633 9.99482 19.1309C9.61815 18.8984 9.24702 18.6466 8.88143 18.3755C8.51584 18.1043 8.15578 17.8138 7.80127 17.5039C7.44676 17.2051 7.10332 16.8896 6.77097 16.5576C6.43861 16.2256 6.12287 15.8825 5.82375 15.5283C5.52463 15.1742 5.23936 14.8145 4.96794 14.4492C4.69651 14.084 4.44448 13.7132 4.21183 13.3369C3.9681 12.9606 3.75207 12.5843 3.56373 12.208C3.14275 11.3779 2.82701 10.5645 2.61652 9.76758C2.40603 8.9707 2.30078 8.19596 2.30078 7.44336C2.30078 6.95638 2.46696 6.49984 2.79931 6.07373C3.13167 5.64762 3.39756 5.34603 3.59697 5.16895C3.87393 4.90332 4.21183 4.64876 4.61065 4.40527C5.00948 4.16178 5.36953 4.04004 5.69081 4.04004C5.84591 4.04004 6.0204 4.09261 6.21427 4.19775C6.40815 4.3029 6.62695 4.47168 6.87067 4.7041C7.04793 4.87012 7.23627 5.0638 7.43568 5.28516C7.63509 5.50651 7.84004 5.75 8.05054 6.01562C8.1724 6.17057 8.44659 6.56348 8.87312 7.19434C9.29964 7.8252 9.5129 8.33431 9.5129 8.72168C9.5129 9.03158 9.36334 9.3055 9.06422 9.54346C8.7651 9.78141 8.42167 10.0221 8.03392 10.2656C7.8899 10.3542 7.74588 10.4427 7.60186 10.5312C7.45784 10.6198 7.33043 10.7083 7.21965 10.7969C7.09778 10.8965 7.02023 10.9712 6.987 11.021C6.95376 11.0708 6.93715 11.1012 6.93715 11.1123C7.13656 11.6104 7.43014 12.1305 7.81789 12.6729C8.20564 13.2152 8.64324 13.7271 9.13069 14.2085C9.61815 14.6899 10.1278 15.1243 10.6595 15.5117C11.2024 15.8991 11.7231 16.1924 12.2216 16.3916C12.2327 16.3916 12.2631 16.375 12.313 16.3418C12.3629 16.3086 12.4376 16.2311 12.5373 16.1094C12.626 15.9987 12.7146 15.8714 12.8032 15.7275C12.8919 15.5837 12.9805 15.4398 13.0691 15.2959C13.3128 14.9085 13.5538 14.5654 13.792 14.2666C14.0302 13.9678 14.3044 13.8184 14.6146 13.8184C15.0023 13.8184 15.5119 14.0314 16.1434 14.4575C16.7749 14.8836 17.1682 15.1576 17.3233 15.2793C17.5891 15.4896 17.8329 15.6943 18.0544 15.8936C18.276 16.0928 18.4699 16.2809 18.6361 16.458C18.8687 16.7015 19.0377 16.9201 19.1429 17.1138C19.2482 17.3075 19.3008 17.4818 19.3008 17.6367C19.3008 17.9577 19.1789 18.3174 18.9352 18.7158C18.6915 19.1143 18.4367 19.4518 18.1708 19.7285C17.9935 19.9277 17.6916 20.1961 17.2651 20.5337C16.8386 20.8713 16.3816 21.04 15.8941 21.04ZM5.67419 4.88672C5.56341 4.88672 5.36953 4.96143 5.09257 5.11084C4.81561 5.26025 4.51095 5.48438 4.17859 5.7832C3.85731 6.08203 3.60528 6.37809 3.42248 6.67139C3.23969 6.96468 3.14829 7.222 3.14829 7.44336C3.14829 8.87109 3.54158 10.3376 4.32815 11.8428C5.12581 13.348 6.14226 14.7204 7.37752 15.96C8.61277 17.1995 9.98374 18.2122 11.4904 18.998C12.9971 19.7949 14.465 20.1934 15.8941 20.1934C16.1157 20.1934 16.3733 20.0993 16.6669 19.9111C16.9604 19.723 17.2568 19.474 17.5559 19.1641C17.855 18.821 18.0794 18.5111 18.2289 18.2344C18.3785 17.9577 18.4533 17.764 18.4533 17.6533C18.4422 17.5648 18.3093 17.3711 18.0544 17.0723C17.7996 16.7734 17.3676 16.3861 16.7583 15.9102C16.2265 15.5117 15.7667 15.2046 15.379 14.9888C14.9912 14.7729 14.742 14.665 14.6312 14.665C14.6201 14.665 14.5896 14.6816 14.5398 14.7148C14.4899 14.748 14.4152 14.8255 14.3154 14.9473C14.2379 15.0579 14.1548 15.1825 14.0662 15.3208C13.9775 15.4591 13.8889 15.6003 13.8003 15.7441C13.5676 16.1315 13.3267 16.4774 13.0774 16.7817C12.8282 17.0861 12.5429 17.2383 12.2216 17.2383C12.1662 17.2383 12.1136 17.2355 12.0637 17.23C12.0139 17.2244 11.9613 17.2106 11.9059 17.1885C11.3519 16.9671 10.7814 16.6462 10.1942 16.2256C9.60707 15.805 9.05037 15.3319 8.52414 14.8062C7.99791 14.2804 7.52431 13.7243 7.10332 13.1377C6.68234 12.5511 6.36106 11.9811 6.13949 11.4277C6.0841 11.2949 6.07302 11.1261 6.10626 10.9214C6.13949 10.7166 6.28905 10.498 6.55494 10.2656C6.68788 10.1328 6.84575 10.0055 7.02854 9.88379C7.21134 9.76204 7.3969 9.64583 7.58524 9.53516C7.72926 9.44661 7.87051 9.35807 8.00899 9.26953C8.14747 9.18099 8.27211 9.09798 8.38289 9.02051C8.50476 8.9209 8.58231 8.84619 8.61554 8.79639C8.64878 8.74658 8.6654 8.71615 8.6654 8.70508C8.6654 8.5944 8.55738 8.34538 8.34135 7.95801C8.12532 7.57064 7.81789 7.11133 7.41906 6.58008C6.94268 5.97135 6.55494 5.53971 6.25582 5.28516C5.9567 5.0306 5.76282 4.89779 5.67419 4.88672Z" fill="#3C3C3B"/>
<path d="M5.67419 4.88672C5.56341 4.88672 5.36953 4.96143 5.09257 5.11084C4.81561 5.26025 4.51095 5.48438 4.17859 5.7832C3.85731 6.08203 3.60528 6.37809 3.42248 6.67139C3.23969 6.96468 3.14829 7.222 3.14829 7.44336C3.14829 8.87109 3.54158 10.3376 4.32815 11.8428C5.12581 13.348 6.14226 14.7204 7.37752 15.96C8.61277 17.1995 9.98374 18.2122 11.4904 18.998C12.9971 19.7949 14.465 20.1934 15.8941 20.1934C16.1157 20.1934 16.3733 20.0993 16.6669 19.9111C16.9604 19.723 17.2568 19.474 17.5559 19.1641C17.855 18.821 18.0794 18.5111 18.2289 18.2344C18.3785 17.9577 18.4533 17.764 18.4533 17.6533C18.4422 17.5648 18.3093 17.3711 18.0544 17.0723C17.7996 16.7734 17.3676 16.3861 16.7583 15.9102C16.2265 15.5117 15.7667 15.2046 15.379 14.9888C14.9912 14.7729 14.742 14.665 14.6312 14.665C14.6201 14.665 14.5896 14.6816 14.5398 14.7148C14.4899 14.748 14.4152 14.8255 14.3154 14.9473C14.2379 15.0579 14.1548 15.1825 14.0662 15.3208C13.9775 15.4591 13.8889 15.6003 13.8003 15.7441C13.5676 16.1315 13.3267 16.4774 13.0774 16.7817C12.8282 17.0861 12.5429 17.2383 12.2216 17.2383C12.1662 17.2383 12.1136 17.2355 12.0637 17.23C12.0139 17.2244 11.9613 17.2106 11.9059 17.1885C11.3519 16.9671 10.7814 16.6462 10.1942 16.2256C9.60707 15.805 9.05037 15.3319 8.52414 14.8062C7.99791 14.2804 7.52431 13.7243 7.10332 13.1377C6.68234 12.5511 6.36106 11.9811 6.13949 11.4277C6.0841 11.2949 6.07302 11.1261 6.10626 10.9214C6.13949 10.7166 6.28905 10.498 6.55494 10.2656C6.68788 10.1328 6.84575 10.0055 7.02854 9.88379C7.21134 9.76204 7.3969 9.64583 7.58524 9.53516C7.72926 9.44661 7.87051 9.35807 8.00899 9.26953C8.14747 9.18099 8.27211 9.09798 8.38289 9.02051C8.50476 8.9209 8.58231 8.84619 8.61554 8.79639C8.64878 8.74658 8.6654 8.71615 8.6654 8.70508C8.6654 8.5944 8.55738 8.34538 8.34135 7.95801C8.12532 7.57064 7.81789 7.11133 7.41906 6.58008C6.94268 5.97135 6.55494 5.53971 6.25582 5.28516C5.9567 5.0306 5.76282 4.89779 5.67419 4.88672Z" fill="#3C3C3B"/>
</svg>
