<svg width="87" height="87" viewBox="0 0 87 87" fill="none" xmlns="http://www.w3.org/2000/svg">
<path d="M71.3588 71.3706C86.8909 55.8384 86.8909 30.6558 71.3588 15.1236C55.8266 -0.408586 30.6439 -0.40859 15.1118 15.1236C-0.420402 30.6558 -0.420397 55.8384 15.1118 71.3706C30.6439 86.9027 55.8266 86.9027 71.3588 71.3706Z" fill="#E7D2FF"/>
<path opacity="0.15" d="M61.3987 72.6703C77.636 62.6363 82.6647 41.3392 72.6307 25.1019C62.5967 8.86462 41.2996 3.83588 25.0623 13.8699C8.82502 23.9039 3.79628 45.201 13.8303 61.4383C23.8643 77.6756 45.1614 82.7043 61.3987 72.6703Z" fill="white"/>
<path opacity="0.15" d="M37.9197 42.6432C30.3787 39.2112 21.6747 38.8472 14.2967 35.0762C12.9107 34.3672 11.6097 33.5082 10.3657 32.5742C9.27473 35.9372 8.67773 39.5222 8.67773 43.2492C8.67773 44.8912 8.80074 46.5042 9.02174 48.0842C10.4507 47.4592 11.8727 46.8172 13.3887 46.4712C18.4337 45.3202 24.0977 48.0062 26.3977 52.6422C28.6987 57.2772 27.4127 63.4122 23.4447 66.7342C22.4107 67.5992 21.2467 68.2652 20.0397 68.8652C26.1727 74.4232 34.3097 77.8102 43.2387 77.8102C47.7357 77.8102 52.0277 76.9422 55.9687 75.3792C56.0207 75.0092 56.0757 74.6392 56.1127 74.2682C57.4027 61.3502 49.7347 48.0212 37.9197 42.6432Z" fill="white"/>
<path opacity="0.15" d="M72.4561 24.8004C72.5291 25.7724 72.2881 26.6834 71.5191 27.2794C70.2641 28.2524 68.4421 27.6935 67.0211 26.9835C63.8181 25.3835 60.9521 23.1434 58.5631 20.4814C55.8171 17.4224 53.6971 13.7985 52.3451 9.91046C49.4431 9.11946 46.3911 8.68945 43.2381 8.68945C43.0971 8.68945 42.9591 8.69847 42.8181 8.70047C42.8691 11.3605 42.1181 14.1874 39.9591 15.6844C37.8841 17.1224 35.0141 16.9284 32.7321 15.8484C30.9211 14.9914 29.4011 13.6575 27.9621 12.2475C24.3301 14.0405 21.0621 16.4534 18.2891 19.3474C20.8171 21.0404 23.4831 22.5494 26.1701 23.9044C35.0261 28.3724 44.5311 31.6935 52.6551 37.3855C61.4331 43.5355 68.1471 52.4535 71.9701 62.4575C75.6491 56.9645 77.7981 50.3585 77.7981 43.2505C77.7981 36.4635 75.8341 30.1394 72.4561 24.8004Z" fill="white"/>
<path d="M58.7498 42.7086C61.7998 45.3656 67.8568 37.6056 66.1298 32.8986C64.4028 28.1906 59.7398 27.9486 58.3898 31.0086C57.0398 34.0686 55.9598 40.2786 58.7498 42.7086Z" fill="#FFF9EF"/>
<path d="M48.4486 35.7294C51.8556 37.1954 54.4526 34.3414 55.5236 29.9284C56.5946 25.5144 55.0036 21.7324 51.7566 20.4374C48.5096 19.1424 45.5516 22.2614 45.3126 25.3794C45.0726 28.4974 44.6346 34.0874 48.4486 35.7294Z" fill="#FFF9EF"/>
<path d="M43.6824 38.5244C27.5484 38.5244 22.0754 58.3174 27.8614 61.4444C33.6174 64.5554 36.9004 58.2324 44.0154 58.1664C50.6694 58.6044 53.9314 64.4194 59.5024 61.4084C65.2894 58.2804 59.8164 38.5244 43.6824 38.5244Z" fill="#FFF9EF"/>
<path d="M28.4724 42.7004C25.1724 45.5744 18.6204 37.1804 20.4894 32.0884C22.3574 26.9964 27.4024 26.7334 28.8624 30.0444C30.3224 33.3544 31.4904 40.0724 28.4724 42.7004Z" fill="#FFF9EF"/>
<path d="M38.4063 35.2948C34.7093 36.5598 32.2113 33.3529 31.4423 28.6289C30.6733 23.9059 32.6503 20.0609 36.1663 18.9619C39.6813 17.8639 42.5373 21.3789 42.5373 24.6739C42.5363 27.9699 42.5453 33.8788 38.4063 35.2948Z" fill="#FFF9EF"/>
</svg>
