<svg width="28" height="28" viewBox="0 0 28 28" fill="none" xmlns="http://www.w3.org/2000/svg">
<path d="M18.5958 25.0724C18.5492 25.0541 18.4995 25.0451 18.4495 25.046C18.3995 25.0468 18.3501 25.0576 18.3042 25.0775C18.2583 25.0975 18.217 25.1263 18.1822 25.1622C18.1475 25.1982 18.1201 25.2407 18.1018 25.2873L17.631 26.4837C17.4579 26.9229 18.1526 27.2381 18.3397 26.7627L18.8107 25.5664C18.829 25.5198 18.838 25.4701 18.8371 25.4201C18.8363 25.3701 18.8255 25.3207 18.8056 25.2749C18.7856 25.229 18.7568 25.1875 18.7208 25.1527C18.6848 25.118 18.6423 25.0907 18.5958 25.0724Z" fill="#FFF9EF" stroke="#FFF9EF" stroke-width="0.5"/>
<path d="M26.8116 18.6148C26.7223 18.4942 26.6059 18.3963 26.4718 18.329C26.3376 18.2618 26.1894 18.227 26.0393 18.2276H24.4301C24.366 18.2275 24.3028 18.2124 24.2456 18.1836C24.1883 18.1549 24.1386 18.1132 24.1003 18.0618L22.8054 16.3201C22.5785 16.0164 22.2922 15.7617 21.9641 15.5716C21.636 15.3815 21.2728 15.2599 20.8964 15.2141C20.8244 14.9576 20.6596 14.7371 20.434 14.5955C20.2083 14.4539 19.938 14.4013 19.6758 14.4481L16.8386 14.9916C16.6776 15.0244 16.5264 15.0941 16.3968 15.1951C16.2672 15.296 16.1627 15.4256 16.0915 15.5736C16.0202 15.7217 15.9842 15.8842 15.9862 16.0485C15.9882 16.2128 16.0282 16.3744 16.1029 16.5206L16.524 17.3201L14.3105 20.202C13.4772 19.5298 12.3855 19.0989 11.4405 18.607C11.1734 18.4686 10.9495 18.2594 10.7935 18.0022C10.6374 17.745 10.5551 17.4498 10.5557 17.1489V16.6359C11.048 16.5297 11.5296 16.3796 11.9951 16.1876L12.0002 16.1855C12.4992 15.981 12.9258 15.6324 13.2257 15.1843C13.5256 14.7361 13.6852 14.2088 13.6841 13.6696V11.822H14.0498C15.0806 11.822 15.5628 10.4838 14.7678 9.82565V6.92575C14.7678 5.80211 14.4483 4.70161 13.8466 3.75263C13.2449 2.80365 12.3859 2.04531 11.3696 1.56604C10.3533 1.08678 9.22155 0.906361 8.1066 1.04582C6.99164 1.18528 5.93929 1.63887 5.07234 2.35369C4.70471 2.65715 5.17297 3.25849 5.55743 2.94126C6.31295 2.31846 7.22984 1.9233 8.2014 1.80186C9.17297 1.68042 10.159 1.83771 11.0446 2.25538C11.9302 2.67305 12.6788 3.33388 13.203 4.16082C13.7273 4.98775 14.0057 5.9467 14.0057 6.92583V9.56671H13.6839V6.89002C13.6834 6.42065 13.4967 5.97065 13.1648 5.63875C12.8329 5.30685 12.3831 5.12015 11.9137 5.1196C11.6536 5.10283 11.3928 5.14094 11.1484 5.23145C10.904 5.32197 10.6814 5.46285 10.4949 5.64498C8.85988 7.28013 6.66628 8.50685 4.31054 8.55449C4.21087 8.55652 4.11597 8.59754 4.04619 8.66875C3.97641 8.73996 3.93728 8.83568 3.93728 8.93538V9.56678H3.6786V6.9259C3.67691 5.91603 3.97266 4.92802 4.52895 4.08518C4.79153 3.68732 4.16757 3.24956 3.89307 3.66551C3.25433 4.63273 2.91467 5.76666 2.91636 6.92575V9.77719C2.04791 10.3994 2.49936 11.8217 3.57143 11.8217H3.93713V13.6706C3.93601 14.2095 4.0955 14.7366 4.39517 15.1846C4.69484 15.6326 5.12122 15.9812 5.61981 16.1859C6.15173 16.4058 6.70469 16.5706 7.2702 16.6778V17.149C7.27079 17.4499 7.18854 17.7451 7.03246 18.0023C6.87638 18.2595 6.65252 18.4687 6.38539 18.6071L4.45712 19.6106C3.41337 20.1515 2.53869 20.9692 1.92889 21.9743C1.31908 22.9793 0.997712 24.1328 1.00001 25.3083V26.6234C1.00001 27.0998 1.76181 27.1217 1.76181 26.6234V25.3083C1.75977 24.2721 2.04305 23.2554 2.58061 22.3696C3.11817 21.4837 3.88937 20.763 4.80944 20.2863L6.16538 19.5805L8.77112 22.1863C8.95064 22.3352 9.13014 22.3352 9.30971 22.1863L11.8282 19.6677C12.4969 20.0158 13.2593 20.3298 13.8463 20.8068L9.55647 26.3916C9.26359 26.7729 9.86434 27.2415 10.1606 26.8557L16.9149 18.0624L17.6956 19.5446C18.1184 20.3472 19.3296 20.2519 19.6266 19.4004L20.8226 15.9736C21.0933 16.0087 21.3541 16.0977 21.5897 16.2354C21.8253 16.3732 22.0308 16.5567 22.1941 16.7753L23.489 18.517C23.8106 18.9495 24.3108 19.0132 24.8068 18.99C24.9116 19.5685 25.243 20.2196 25.7817 20.515C25.5712 20.865 25.2741 21.1548 24.9191 21.3566C24.5641 21.5584 24.1632 21.6653 23.7548 21.6671H20.3256C20.0899 21.6662 19.8594 21.7368 19.6646 21.8694C19.4698 22.0021 19.3198 22.1907 19.2343 22.4104L18.7572 23.6221C18.5841 24.0614 19.279 24.3765 19.4661 23.9012L19.9432 22.6894C19.9731 22.6124 20.0257 22.5463 20.094 22.4998C20.1623 22.4533 20.2429 22.4285 20.3255 22.4288H23.7548C24.4285 22.426 25.0835 22.2066 25.623 21.8031C26.1625 21.3996 26.558 20.8334 26.7511 20.1879L26.9641 19.4647C27.0072 19.321 27.0159 19.1692 26.9894 19.0215C26.9629 18.8739 26.9019 18.7345 26.8116 18.6148ZM14.0499 10.3285C14.5074 10.3285 14.5283 11.0599 14.0499 11.0599H13.6842V10.3285H14.0499ZM3.57201 11.0599C3.11452 11.0599 3.0936 10.3285 3.57201 10.3285H3.93757V11.0599H3.57201ZM4.69937 13.6706V9.30034C7.11153 9.14318 9.35097 7.86672 11.0338 6.18378C11.6647 5.55282 12.9223 5.9413 12.9223 6.89017V13.6698C12.9231 14.0581 12.8082 14.4378 12.5922 14.7605C12.3762 15.0832 12.069 15.3341 11.7097 15.4814L11.7046 15.4835C10.7864 15.865 9.80182 16.0613 8.80747 16.0611C7.81312 16.0608 6.82865 15.864 5.91063 15.4819C5.55164 15.3345 5.24475 15.0834 5.02901 14.7608C4.81328 14.4382 4.69851 14.0586 4.69937 13.6706ZM9.04056 21.3782L6.87033 19.2081C7.74705 18.6795 8.05701 17.7601 8.03229 16.7861C8.61865 16.8414 9.20916 16.834 9.79393 16.7638C9.76794 17.8156 10.1294 18.7993 11.1198 19.2988L9.04056 21.3782ZM20.1522 15.5824L18.9073 19.1492C18.8882 19.203 18.854 19.2501 18.8086 19.2848C18.7632 19.3195 18.7086 19.3402 18.6517 19.3445C18.5947 19.3488 18.5377 19.3364 18.4877 19.3088C18.4376 19.2813 18.3966 19.2398 18.3697 19.1894L16.7772 16.166C16.7025 15.9552 16.7707 15.8133 16.9819 15.7402L19.8193 15.1967C19.87 15.1873 19.9222 15.1913 19.9708 15.2084C20.0194 15.2255 20.0628 15.255 20.0965 15.294C20.1301 15.3331 20.1529 15.3802 20.1626 15.4308C20.1724 15.4814 20.1687 15.5337 20.152 15.5824L20.1522 15.5824ZM26.0393 18.9898C26.1908 19.0115 26.2556 19.0981 26.2336 19.2495L26.0718 19.799C25.8399 19.6303 25.669 19.3021 25.587 18.9898H26.0393Z" fill="#FFF9EF" stroke="#FFF9EF" stroke-width="0.5"/>
<path d="M7.3736 24.9633H6.47511V24.0649C6.47511 23.5884 5.71331 23.5664 5.71331 24.0649V24.9633H4.81483C4.33835 24.9633 4.31647 25.7252 4.81483 25.7252H5.71331V26.6236C5.71331 27.1001 6.47511 27.1221 6.47511 26.6236V25.7252H7.3736C7.8503 25.7252 7.87196 24.9633 7.3736 24.9633Z" fill="#FFF9EF" stroke="#FFF9EF" stroke-width="0.5"/>
</svg>
