<svg width="335" height="369" viewBox="0 0 335 369" fill="none" xmlns="http://www.w3.org/2000/svg">
<path d="M0 272.325L30.257 44.7824C33.0634 24.1927 41.934 13.0903 65.3551 10.893C133.001 4.54662 244.24 0 279.574 0C314.908 0 329.196 10.893 329.196 44.7824C329.196 78.6717 334.962 202.068 334.642 262.037C333.676 288.682 327.745 299.285 306.806 309.846C306.806 309.846 86.2873 424.985 57.2561 333.053C46.4199 298.738 0.263861 322.538 0 272.325Z" fill="#FFFCF7"/>
<path d="M130.123 332.859C130.935 336.095 129.854 339.535 124.907 341.183C119.499 342.984 118.418 340.41 114.65 341.665C110.882 342.92 111.56 345.628 106.153 347.429C101.206 349.077 98.2774 346.972 96.9872 343.895C95.3156 339.909 97.8535 336.728 99.1422 334.848C100.151 333.377 101.272 331.564 101.361 329.006C101.515 324.631 102.868 320.821 107.225 319.37C111.581 317.92 114.949 320.157 117.695 323.566C119.3 325.559 121.284 326.338 122.973 326.91C125.132 327.642 129.071 328.667 130.123 332.859Z" fill="#AEDEFF"/>
<path d="M99.8405 317.347C96.8745 319.209 92.0443 316.855 89.0519 312.089C86.0594 307.324 86.0378 301.951 89.0042 300.088C91.9702 298.226 96.8001 300.58 99.7925 305.346C102.785 310.111 102.806 315.485 99.8405 317.347Z" fill="#AEDEFF"/>
<path d="M95.3078 330.69C93.0953 333.141 88.1101 332.245 84.1727 328.691C80.2353 325.136 78.8366 320.268 81.049 317.817C83.261 315.367 88.2462 316.262 92.1841 319.817C96.1219 323.372 97.5198 328.239 95.3078 330.69Z" fill="#AEDEFF"/>
<path d="M111.921 313.323C115.412 313.035 117.866 308.255 117.403 302.647C116.94 297.038 113.736 292.726 110.245 293.014C106.755 293.301 104.301 298.082 104.764 303.69C105.226 309.298 108.431 313.611 111.921 313.323Z" fill="#AEDEFF"/>
<path d="M123.551 321.282C126.791 321.917 130.244 318.211 131.263 313.005C132.283 307.8 130.483 303.065 127.244 302.43C124.004 301.795 120.551 305.501 119.531 310.707C118.511 315.913 120.311 320.648 123.551 321.282Z" fill="#AEDEFF"/>
</svg>
