<svg width="67" height="69" viewBox="0 0 67 69" fill="none" xmlns="http://www.w3.org/2000/svg">
<path d="M55.5094 56.509C67.9375 44.0808 67.9375 23.9309 55.5094 11.5027C43.0813 -0.92541 22.9313 -0.925406 10.5031 11.5027C-1.925 23.9309 -1.925 44.0809 10.5031 56.509C22.9313 68.9371 43.0813 68.9371 55.5094 56.509Z" fill="#AEDEFF"/>
<path opacity="0.15" d="M52.5594 53.5595C63.3586 42.7603 63.3586 25.2514 52.5594 14.4522C41.7603 3.653 24.2513 3.653 13.4521 14.4522C2.65291 25.2514 2.65292 42.7603 13.4521 53.5595C24.2513 64.3587 41.7603 64.3587 52.5594 53.5595Z" fill="white"/>
<path opacity="0.15" d="M28.7535 33.5177C22.7196 30.7716 15.755 30.4803 9.8515 27.4629C8.74249 26.8956 7.70151 26.2091 6.70612 25.4609C5.83315 28.1519 5.35547 31.0204 5.35547 34.0026C5.35547 35.3164 5.45308 36.6071 5.63072 37.8713C6.77414 37.3712 7.91196 36.8575 9.12499 36.5807C13.1618 35.6597 17.6938 37.8089 19.5342 41.5184C21.3753 45.2279 20.3463 50.1361 17.1713 52.7942C16.344 53.4863 15.4126 54.0192 14.4468 54.4993C19.3542 58.9466 25.865 61.6567 33.0096 61.6567C36.6079 61.6567 40.0421 60.9622 43.1955 59.7115C43.2371 59.4155 43.2812 59.1194 43.3108 58.8226C44.3438 48.4862 38.2082 37.8201 28.7535 33.5177Z" fill="white"/>
<path opacity="0.15" d="M56.3888 19.2389C56.4472 20.0167 56.2544 20.7456 55.6391 21.2225C54.6349 22.0011 53.177 21.5538 52.04 20.9857C49.4771 19.7062 47.1838 17.9131 45.2723 15.7831C43.0751 13.3354 41.3787 10.4356 40.2969 7.32465C37.9749 6.69172 35.5328 6.34766 33.0099 6.34766C32.8971 6.34766 32.7867 6.35486 32.6739 6.35646C32.7147 8.48487 32.1137 10.7469 30.3862 11.9447C28.7259 13.0954 26.4294 12.9401 24.6035 12.076C23.1544 11.3902 21.9382 10.3236 20.7867 9.19461C17.8806 10.6293 15.2665 12.5601 13.0469 14.8757C15.0697 16.2304 17.2028 17.4378 19.352 18.522C26.4382 22.0971 34.0437 24.7544 40.5442 29.3089C47.5679 34.2298 52.9402 41.3656 55.9991 49.3696C58.9429 44.9743 60.6624 39.6893 60.6624 34.001C60.6632 28.5719 59.0925 23.511 56.3888 19.2389Z" fill="white"/>
<path d="M33.1905 19.528C23.5641 10.006 10.4141 17.1498 10.4141 25.9484C10.4141 34.7459 17.5062 45.5656 33.1905 53.4123C48.876 45.5656 55.967 34.747 55.967 25.9484C55.967 17.1508 42.8169 10.006 33.1905 19.528Z" fill="#FFF9EF"/>
<path d="M39.507 34.1378C40.8182 35.2793 43.4218 31.945 42.6787 29.921C41.9364 27.8979 39.9321 27.7934 39.3516 29.1091C38.7728 30.4248 38.3083 33.0936 39.507 34.1378Z" fill="#AEDEFF"/>
<path d="M35.0772 31.1387C36.5411 31.7684 37.6577 30.5421 38.1177 28.6449C38.5777 26.7478 37.8943 25.1222 36.4983 24.5657C35.1031 24.0092 33.8312 25.3499 33.7285 26.6897C33.6258 28.0304 33.4373 30.4331 35.0772 31.1387Z" fill="#AEDEFF"/>
<path d="M33.0283 32.3408C26.0944 32.3408 23.7417 40.8476 26.2284 42.1919C28.7025 43.529 30.1138 40.8119 33.1712 40.7833C36.0312 40.9718 37.4335 43.4709 39.8273 42.1767C42.3148 40.8324 39.9631 32.3408 33.0283 32.3408Z" fill="#AEDEFF"/>
<path d="M26.4908 34.1359C25.0724 35.3712 22.257 31.7636 23.0591 29.5753C23.8621 27.3869 26.0299 27.2735 26.6578 28.6963C27.2866 30.1183 27.7886 33.006 26.4908 34.1359Z" fill="#AEDEFF"/>
<path d="M30.7632 30.9517C29.1742 31.4956 28.1006 30.1165 27.7701 28.0863C27.4396 26.0561 28.2899 24.4036 29.8003 23.932C31.3107 23.4595 32.5388 24.9708 32.5388 26.3874C32.5388 27.8032 32.5424 30.3425 30.7632 30.9517Z" fill="#AEDEFF"/>
</svg>
