<svg width="1920" height="510" viewBox="0 0 1920 510" fill="none" xmlns="http://www.w3.org/2000/svg">
<g opacity="0.8" filter="url(#filter0_d_21_3576)">
<circle cx="602.5" cy="119.5" r="290.5" fill="url(#paint0_radial_21_3576)" fill-opacity="0.8" shape-rendering="crispEdges"/>
</g>
<path d="M1694 281.393C1694 285.877 1692.28 289.947 1689.48 293H1439.63L1437.33 291.466C1435.02 289.926 1432.98 287.972 1431.54 285.588C1430.59 284.009 1429.93 282.413 1429.53 280.767C1426.93 270.268 1434.22 259.541 1444.92 258.97C1449.64 258.718 1453.94 260.442 1457.15 263.37C1457.12 262.883 1457.07 262.397 1457.07 261.898C1457.07 247.404 1468.71 235.656 1483.06 235.656C1495.65 235.656 1506.16 244.704 1508.54 256.719C1508.87 258.393 1509.05 260.123 1509.05 261.898C1509.05 262.732 1509 263.555 1508.92 264.367H1509.05C1513.9 264.367 1518.28 266.439 1521.37 269.759L1521.38 269.77C1521.51 266.893 1522.34 264.199 1523.71 261.87C1526.64 256.87 1532.03 253.521 1538.2 253.521C1545.37 253.521 1551.48 258.056 1553.91 264.433C1557 261.068 1561.39 258.94 1566.29 258.94C1570.36 258.94 1574.09 260.401 1577.01 262.826C1578.42 250.861 1588.48 241.579 1600.71 241.579C1604.69 241.579 1608.44 242.581 1611.75 244.323C1617.7 230.846 1631.61 221.736 1647.46 223.143C1667.67 224.934 1682.43 243.993 1679.45 264.261C1679.44 264.351 1679.42 264.44 1679.41 264.523C1685.83 265.391 1691.11 269.915 1693.12 275.972C1693.69 277.675 1694 279.49 1694 281.393Z" fill="#E1F3FD"/>
<path d="M397 70.222C397 74.3856 398.6 78.1655 401.2 81H633.136L635.271 79.5754C637.411 78.1458 639.31 76.3307 640.645 74.1171C641.527 72.6513 642.137 71.169 642.51 69.6406C644.922 59.892 638.15 49.9309 628.217 49.4005C623.836 49.1667 619.845 50.7676 616.872 53.4868C616.898 53.0339 616.939 52.5826 616.939 52.1197C616.939 38.6604 606.141 27.7524 592.814 27.7524C581.126 27.7524 571.376 36.1537 569.162 47.3105C568.855 48.8653 568.694 50.4711 568.694 52.1197C568.694 52.8938 568.735 53.6581 568.807 54.4124H568.694C564.183 54.4124 560.124 56.3361 557.254 59.4193L557.243 59.4292C557.124 56.7578 556.349 54.2559 555.076 52.0934C552.358 47.4505 547.359 44.341 541.631 44.341C534.975 44.341 529.3 48.5524 527.044 54.4733C524.181 51.349 520.101 49.3726 515.553 49.3726C511.775 49.3726 508.309 50.7297 505.606 52.9811C504.297 41.8705 494.956 33.2517 483.606 33.2517C479.906 33.2517 476.424 34.1822 473.352 35.7996C467.828 23.2857 454.913 14.8267 440.206 16.1328C421.445 17.7962 407.745 35.4933 410.509 54.3136C410.519 54.3976 410.53 54.48 410.545 54.5574C404.583 55.3628 399.684 59.5642 397.817 65.1887C397.286 66.7698 397 68.4548 397 70.222Z" fill="#99DFFF" fill-opacity="0.8"/>
<path d="M1112 54.222C1112 58.3856 1113.6 62.1655 1116.2 65H1348.14L1350.27 63.5754C1352.41 62.1458 1354.31 60.3307 1355.64 58.1171C1356.53 56.6513 1357.14 55.169 1357.51 53.6406C1359.92 43.892 1353.15 33.9309 1343.22 33.4005C1338.84 33.1667 1334.85 34.7676 1331.87 37.4868C1331.9 37.0339 1331.94 36.5826 1331.94 36.1197C1331.94 22.6604 1321.14 11.7524 1307.81 11.7524C1296.13 11.7524 1286.38 20.1537 1284.16 31.3105C1283.86 32.8653 1283.69 34.4711 1283.69 36.1197C1283.69 36.8938 1283.73 37.6581 1283.81 38.4124H1283.69C1279.18 38.4124 1275.12 40.3361 1272.25 43.4193L1272.24 43.4292C1272.12 40.7578 1271.35 38.2559 1270.08 36.0934C1267.36 31.4505 1262.36 28.341 1256.63 28.341C1249.97 28.341 1244.3 32.5524 1242.04 38.4733C1239.18 35.349 1235.1 33.3726 1230.55 33.3726C1226.77 33.3726 1223.31 34.7297 1220.61 36.9811C1219.3 25.8705 1209.96 17.2517 1198.61 17.2517C1194.91 17.2517 1191.42 18.1822 1188.35 19.7996C1182.83 7.28567 1169.91 -1.1733 1155.21 0.132775C1136.44 1.79625 1122.74 19.4933 1125.51 38.3136C1125.52 38.3976 1125.53 38.48 1125.55 38.5574C1119.58 39.3628 1114.68 43.5642 1112.82 49.1887C1112.29 50.7698 1112 52.4548 1112 54.222Z" fill="#99DFFF" fill-opacity="0.8"/>
<path d="M907 232.253C907 238.722 909.459 244.596 913.454 249H1269.84L1273.12 246.786C1276.41 244.565 1279.33 241.745 1281.38 238.305C1282.74 236.027 1283.67 233.724 1284.25 231.349C1287.95 216.201 1277.55 200.723 1262.29 199.899C1255.55 199.536 1249.42 202.023 1244.85 206.249C1244.89 205.545 1244.96 204.844 1244.96 204.125C1244.96 183.211 1228.36 166.261 1207.89 166.261C1189.93 166.261 1174.94 179.316 1171.54 196.652C1171.07 199.068 1170.82 201.563 1170.82 204.125C1170.82 205.327 1170.89 206.515 1171 207.687H1170.82C1163.89 207.687 1157.65 210.676 1153.24 215.467L1153.23 215.482C1153.04 211.331 1151.85 207.444 1149.9 204.084C1145.72 196.869 1138.04 192.038 1129.24 192.038C1119.01 192.038 1110.29 198.581 1106.82 207.782C1102.42 202.927 1096.16 199.856 1089.17 199.856C1083.36 199.856 1078.04 201.965 1073.88 205.463C1071.87 188.199 1057.52 174.806 1040.08 174.806C1034.39 174.806 1029.04 176.252 1024.32 178.766C1015.83 159.321 995.989 146.177 973.389 148.206C944.561 150.791 923.51 178.29 927.758 207.533C927.773 207.664 927.79 207.792 927.813 207.912C918.653 209.164 911.124 215.692 908.255 224.432C907.44 226.889 907 229.507 907 232.253Z" fill="#E1F3FD"/>
<path d="M1516 140.117C1516 143.984 1516.64 147.701 1517.85 151.187H1521.3V151.338L1554.46 151.317H1555.16L1580.87 151.296C1580.91 151.337 1580.94 151.367 1580.98 151.397C1581.2 151.618 1581.44 151.819 1581.67 152C1581.76 151.799 1581.83 151.598 1581.89 151.397C1581.9 151.367 1581.91 151.327 1581.92 151.296L1647.5 151.227H1657.42L1687.06 151.206L1703.2 151.185H1703.22L1738.74 151.165L1789.56 151.125H1789.7C1789.73 151.125 1789.79 151.125 1789.88 151.134C1791.2 151.165 1798.35 151.165 1798.81 151.125H1799.03L1883.15 151.055L1901.51 151.036H1901.54C1901.58 151.036 1901.62 151.025 1901.66 151.025C1902.02 151.076 1903.75 151.086 1906.03 151.055C1911.37 150.994 1919.73 150.774 1920.6 150.704C1920.6 150.704 1932.44 142.206 1931.99 125.731C1931.59 111.445 1919.05 101.119 1905.31 101.119C1902.5 101.119 1899.83 101.601 1897.31 102.465C1897.62 100.577 1897.82 98.6478 1897.82 96.6688C1897.82 77.4918 1882.42 61.9411 1863.41 61.9411C1855.08 61.9411 1847.45 64.9245 1841.49 69.8869C1832.2 53.2415 1814.53 42 1794.26 42C1768.38 42 1746.76 60.2824 1741.38 84.7433C1740.8 87.3148 1740.41 89.9573 1740.22 92.649C1740.22 92.649 1740.21 92.6387 1740.2 92.6387C1739.82 92.3767 1739.43 92.1262 1739.04 91.8848C1733.78 88.5892 1727.6 86.7017 1720.95 86.7017C1705.33 86.7017 1692.14 97.1893 1687.94 111.574C1683.67 108.049 1678.2 105.929 1672.22 105.929C1672.01 105.929 1671.81 105.929 1671.61 105.95C1668.61 106.009 1665.76 106.622 1663.12 107.658C1661.66 96.9285 1656.82 87.2747 1649.71 79.8506C1640.73 70.4486 1628.11 64.6019 1614.14 64.6019C1588.51 64.6019 1567.44 84.3017 1564.97 109.496C1560.44 107.216 1555.32 105.929 1549.9 105.929C1531.18 105.931 1516 121.231 1516 140.117Z" fill="#99DFFF"/>
<path d="M950 213.051C950 216.894 948.51 220.384 946.09 223H730.183L728.195 221.685C726.202 220.365 724.435 218.69 723.192 216.647C722.371 215.294 721.804 213.925 721.456 212.514C719.211 203.516 725.514 194.321 734.761 193.831C738.839 193.615 742.555 195.093 745.322 197.603C745.298 197.185 745.26 196.769 745.26 196.341C745.26 183.917 755.312 173.848 767.718 173.848C778.598 173.848 787.674 181.603 789.736 191.902C790.021 193.337 790.171 194.819 790.171 196.341C790.171 197.056 790.133 197.761 790.065 198.458H790.171C794.371 198.458 798.149 200.233 800.82 203.079L800.831 203.089C800.941 200.623 801.663 198.313 802.848 196.317C805.378 192.031 810.031 189.161 815.363 189.161C821.56 189.161 826.843 193.048 828.943 198.514C831.608 195.63 835.406 193.805 839.639 193.805C843.157 193.805 846.383 195.058 848.9 197.136C850.118 186.88 858.813 178.925 869.379 178.925C872.823 178.925 876.064 179.784 878.924 181.277C884.066 169.725 896.089 161.917 909.78 163.123C927.245 164.658 939.998 180.994 937.425 198.366C937.415 198.444 937.405 198.52 937.391 198.591C942.941 199.335 947.502 203.213 949.24 208.405C949.733 209.864 950 211.42 950 213.051Z" fill="#99DFFF"/>
<path d="M628 300.298C628 304.094 627.369 307.742 626.186 311.164H622.802V311.312L590.282 311.292H589.592L564.381 311.273C564.341 311.312 564.311 311.342 564.272 311.371C564.055 311.588 563.817 311.785 563.591 311.964C563.502 311.767 563.433 311.57 563.374 311.371C563.364 311.342 563.355 311.303 563.345 311.273L499.024 311.204H489.298L460.23 311.185L444.398 311.165H444.379L409.541 311.145L359.7 311.106H359.562C359.532 311.106 359.473 311.106 359.385 311.115C358.092 311.145 351.08 311.145 350.625 311.106H350.408L267.909 311.038L249.899 311.018H249.879C249.84 311.018 249.8 311.007 249.761 311.007C249.406 311.057 247.71 311.067 245.47 311.038C240.233 310.979 232.035 310.762 231.178 310.692C231.178 310.692 219.568 302.351 220.013 286.181C220.407 272.16 232.696 262.025 246.181 262.025C248.933 262.025 251.557 262.498 254.023 263.346C253.717 261.493 253.52 259.599 253.52 257.657C253.52 238.835 268.63 223.572 287.272 223.572C295.439 223.572 302.926 226.499 308.766 231.37C317.88 215.032 335.21 204 355.095 204C380.473 204 401.68 221.944 406.958 245.954C407.52 248.478 407.905 251.07 408.092 253.713C408.092 253.713 408.102 253.704 408.111 253.704C408.487 253.447 408.861 253.201 409.245 252.964C414.405 249.729 420.471 247.876 426.99 247.876C442.308 247.876 455.25 258.17 459.362 272.289C463.554 268.828 468.92 266.748 474.779 266.748C474.986 266.748 475.182 266.748 475.38 266.767C478.32 266.826 481.121 267.428 483.705 268.443C485.136 257.913 489.879 248.438 496.853 241.151C505.661 231.922 518.04 226.184 531.741 226.184C556.883 226.184 577.547 245.519 579.963 270.246C584.412 268.009 589.432 266.746 594.749 266.746C613.117 266.745 628 281.762 628 300.298Z" fill="#99DFFF"/>
<path d="M-12 194.715C-12 198.303 -10.6138 201.559 -8.36431 204H192.459L194.308 202.773C196.161 201.541 197.804 199.978 198.961 198.07C199.726 196.807 200.252 195.53 200.576 194.213C202.664 185.815 196.8 177.233 188.202 176.776C184.408 176.575 180.952 177.954 178.378 180.297C178.401 179.907 178.437 179.517 178.437 179.119C178.437 167.523 169.086 158.126 157.548 158.126C147.428 158.126 138.986 165.364 137.069 174.976C136.803 176.316 136.664 177.699 136.664 179.119C136.664 179.787 136.7 180.445 136.763 181.094H136.664C132.758 181.094 129.243 182.751 126.76 185.408L126.751 185.417C126.648 183.114 125.977 180.96 124.875 179.096C122.521 175.096 118.192 172.418 113.233 172.418C107.469 172.418 102.555 176.046 100.602 181.148C98.1229 178.456 94.5904 176.754 90.6529 176.754C87.3814 176.754 84.3799 177.923 82.04 179.863C80.9061 170.291 72.8197 162.864 62.9915 162.864C59.7877 162.864 56.7727 163.666 54.1133 165.059C49.3297 154.277 38.1477 146.99 25.4126 148.114C9.16779 149.548 -2.69357 164.794 -0.299913 181.009C-0.290749 181.081 -0.282194 181.153 -0.268143 181.219C-5.42935 181.914 -9.67295 185.533 -11.2883 190.379C-11.7526 191.74 -12 193.192 -12 194.715Z" fill="#E1F3FD"/>
<defs>
<filter id="filter0_d_21_3576" x="212" y="-271" width="781" height="781" filterUnits="userSpaceOnUse" color-interpolation-filters="sRGB">
<feFlood flood-opacity="0" result="BackgroundImageFix"/>
<feColorMatrix in="SourceAlpha" type="matrix" values="0 0 0 0 0 0 0 0 0 0 0 0 0 0 0 0 0 0 127 0" result="hardAlpha"/>
<feOffset/>
<feGaussianBlur stdDeviation="50"/>
<feComposite in2="hardAlpha" operator="out"/>
<feColorMatrix type="matrix" values="0 0 0 0 1 0 0 0 0 0.922614 0 0 0 0 0.484093 0 0 0 0.5 0"/>
<feBlend mode="normal" in2="BackgroundImageFix" result="effect1_dropShadow_21_3576"/>
<feBlend mode="normal" in="SourceGraphic" in2="effect1_dropShadow_21_3576" result="shape"/>
</filter>
<radialGradient id="paint0_radial_21_3576" cx="0" cy="0" r="1" gradientUnits="userSpaceOnUse" gradientTransform="translate(602.5 119.5) rotate(90) scale(290.5)">
<stop offset="0.0001" stop-color="#FFA857" stop-opacity="0.858827"/>
<stop offset="0.625" stop-color="#FFE270" stop-opacity="0.758242"/>
<stop offset="1" stop-color="#FFF07B" stop-opacity="0.25"/>
</radialGradient>
</defs>
</svg>
