<svg width="1919" height="649" viewBox="0 0 1919 649" fill="none" xmlns="http://www.w3.org/2000/svg">
<path d="M312 129.696L1608.5 129.696V549.33L312 549.33V129.696Z" fill="#E7D2FF"/>
<path d="M1608.5 129.696V549.33L1920.5 712V0L1608.5 129.696Z" fill="#AEDEFF"/>
<path d="M312 129.696V549.33L-1 712L0.5 -0.5L312 129.696Z" fill="#AEDEFF"/>
<path opacity="0.2" d="M374.393 574.546C350.704 573.972 331.584 570.036 331.688 565.755C331.792 561.474 351.08 558.468 374.769 559.043C398.458 559.617 417.578 563.553 417.474 567.834C417.37 572.115 398.082 575.12 374.393 574.546Z" fill="black"/>
<path d="M338.94 561.111C339.027 557.504 355.107 554.968 374.857 555.447C394.606 555.925 410.544 559.238 410.457 562.845C410.439 563.583 410.373 566.326 410.355 567.065C410.267 570.673 394.187 573.208 374.438 572.73C354.689 572.251 338.75 568.939 338.837 565.332C338.855 564.593 338.922 561.85 338.94 561.111Z" fill="#1E7A93"/>
<path d="M340.938 560.372L345.567 548.339C345.639 545.369 358.879 543.28 375.141 543.675C391.403 544.069 404.527 546.796 404.455 549.766L408.495 562.009C408.668 562.271 408.764 562.536 408.758 562.804C408.674 566.239 393.358 568.656 374.547 568.2C355.737 567.744 340.555 564.589 340.638 561.153C340.644 560.886 340.753 560.626 340.938 560.372Z" fill="#535363"/>
<path opacity="0.3" d="M388.494 554.153L390.322 567.876L393.414 569.082L393.339 572.202C390.877 572.422 388.218 572.584 385.409 572.681L385.492 569.236L383.483 568.199L382.521 554.432L375.02 548.643L388.494 554.153Z" fill="white"/>
<path opacity="0.3" d="M357.246 552.928L353.478 566.35L350.148 567.608L350.081 570.38C343.123 569.019 338.791 567.217 338.837 565.332C338.855 564.594 338.921 561.851 338.939 561.112C338.96 560.253 339.897 559.456 341.565 558.745L345.568 548.34L375.012 549.054L357.246 552.928Z" fill="white"/>
<path opacity="0.15" d="M374.882 554.431C358.621 554.037 345.497 551.31 345.569 548.34C345.641 545.369 358.881 543.281 375.143 543.675C391.404 544.069 404.528 546.796 404.456 549.767C404.384 552.737 391.143 554.825 374.882 554.431Z" fill="white"/>
<path d="M374.927 552.551C360.344 552.198 348.565 550.162 348.617 548.004C348.669 545.846 360.534 544.383 375.117 544.736C389.7 545.089 401.479 547.125 401.427 549.284C401.374 551.442 389.51 552.905 374.927 552.551Z" fill="#252D3A"/>
<g opacity="0.5">
<path d="M371.195 561.473C370.4 562.132 368.903 560.115 369.373 558.924C369.842 557.734 371.033 557.701 371.359 558.49C371.684 559.279 371.922 560.87 371.195 561.473Z" fill="white"/>
<path d="M373.866 559.755C372.988 560.108 372.343 559.364 372.097 558.232C371.851 557.099 372.28 556.144 373.116 555.834C373.953 555.524 374.688 556.337 374.73 557.135C374.772 557.931 374.849 559.36 373.866 559.755Z" fill="white"/>
<path d="M375.064 560.498C379.18 560.597 380.454 565.681 378.959 566.443C377.471 567.201 376.672 565.568 374.857 565.507C373.157 565.577 372.289 567.04 370.886 566.238C369.43 565.404 370.948 560.398 375.064 560.498Z" fill="white"/>
<path d="M378.918 561.658C379.743 562.411 381.466 560.31 381.021 559C380.575 557.689 379.29 557.591 378.898 558.427C378.504 559.262 378.165 560.968 378.918 561.658Z" fill="white"/>
<path d="M376.43 559.707C377.366 560.052 378.023 559.249 378.249 558.049C378.474 556.849 377.993 555.856 377.103 555.554C376.213 555.252 375.463 556.132 375.443 556.972C375.422 557.813 375.383 559.32 376.43 559.707Z" fill="white"/>
</g>
<path opacity="0.5" d="M345.566 548.34C345.584 548.333 345.532 548.6 345.768 548.989C346.003 549.376 346.525 549.811 347.265 550.207C348.75 551.002 351.068 551.706 353.884 552.305C359.524 553.505 367.2 554.247 374.879 554.431C382.559 554.619 390.262 554.25 395.954 553.324C398.795 552.863 401.143 552.272 402.666 551.55C403.424 551.19 403.967 550.781 404.22 550.406C404.475 550.028 404.436 549.759 404.453 549.767C404.437 549.759 404.456 550.031 404.185 550.382C403.916 550.735 403.358 551.088 402.6 551.412C401.073 552.065 398.712 552.499 395.883 552.886C393.047 553.28 389.704 553.456 386.126 553.611C382.546 553.761 378.72 553.769 374.899 553.64C371.076 553.583 367.254 553.39 363.686 553.067C360.12 552.738 356.789 552.401 353.976 551.871C351.169 551.347 348.832 550.799 347.337 550.072C346.596 549.713 346.056 549.332 345.805 548.967C345.552 548.608 345.583 548.329 345.566 548.34Z" fill="white"/>
<path d="M349.569 546.999C349.57 546.993 349.568 546.988 349.57 546.983C349.718 546.36 350.67 545.805 351.129 545.423C351.792 544.871 352.473 544.34 353.168 543.829C353.981 543.232 354.84 542.652 355.82 542.412C356.8 542.171 357.935 542.33 358.641 543.051C359.615 542.956 360.587 542.862 361.561 542.767C361.32 541.507 362.002 540.127 363.149 539.552C364.296 538.977 365.809 539.258 366.674 540.205C367.052 539.477 368.333 539.549 368.625 540.316C369.644 540.156 370.663 539.997 371.682 539.837C371.803 538.334 371.963 536.732 372.903 535.553C373.843 534.374 375.865 533.946 376.825 535.109C377.439 534.881 378.053 534.653 378.667 534.425C378.341 533.228 379.716 531.95 380.886 532.361C382.055 531.918 383.503 532.391 384.185 533.439C384.868 534.486 384.714 536.002 383.836 536.892C385.043 536.697 386.203 538.06 385.818 539.221C386.335 539.101 386.912 539.48 387.007 540.002C389.018 538.917 391.896 540.229 392.397 542.458C392.978 542.569 393.347 543.296 393.092 543.83C393.695 543.956 394.297 544.083 394.899 544.21C395.269 543.54 396.419 543.552 396.775 544.229C397.28 543.645 398.19 543.457 398.884 543.794C399.579 544.13 399.997 544.959 399.853 545.718C399.892 546.367 399.932 547.016 399.971 547.665C400.174 547.815 400.346 548.002 400.484 548.211C401.103 548.56 401.436 548.92 401.428 549.283C401.421 549.571 401.198 549.846 400.793 550.105C400.767 550.2 400.741 550.294 400.701 550.386C400.559 550.386 400.416 550.386 400.275 550.386C396.96 551.913 386.855 552.839 374.928 552.55C360.345 552.197 348.566 550.161 348.618 548.003C348.625 547.648 348.96 547.311 349.569 546.999Z" fill="#F26522"/>
<path opacity="0.2" d="M349.569 546.999C349.571 546.993 349.569 546.988 349.57 546.983C349.719 546.36 350.671 545.805 351.129 545.423C351.463 545.146 351.813 544.888 352.155 544.621C352.608 546.847 353.721 548.932 356.334 548.922C356.13 550.093 357.923 550.269 358.701 549.936C359.481 549.603 360.019 548.77 360.001 547.922C360.396 549.225 361.709 550.19 363.071 550.178C364.433 550.166 365.728 549.176 366.098 547.867C366.726 548.898 368.226 549.277 369.269 548.667C371.319 549.399 373.849 548.254 374.65 546.229C375.043 547.333 376.683 547.724 377.532 546.918C377.589 548.229 378.632 549.434 379.922 549.678C381.213 549.922 382.623 549.181 383.155 547.98C383.075 548.51 383.482 549.064 384.012 549.145C384.541 549.226 385.096 548.82 385.179 548.29C385.842 549.103 386.99 549.486 388.009 549.234C389.028 548.981 389.864 548.107 390.07 547.077C391.557 548.516 394.447 547.888 395.203 545.963C395.648 546.387 396.384 546.467 396.91 546.149C396.717 547.103 398.196 547.541 399.038 547.052C399.354 546.869 399.627 546.625 399.893 546.37C399.919 546.802 399.945 547.234 399.971 547.667C400.174 547.817 400.346 548.003 400.484 548.213C401.103 548.562 401.436 548.922 401.428 549.285C401.421 549.572 401.198 549.847 400.793 550.107C400.767 550.202 400.741 550.296 400.701 550.387C400.559 550.388 400.416 550.387 400.275 550.388C396.96 551.915 386.855 552.841 374.928 552.552C360.345 552.199 348.566 550.163 348.618 548.005C348.625 547.648 348.961 547.311 349.569 546.999Z" fill="black"/>
<path opacity="0.3" d="M379.927 535.347C379.913 535.93 380.374 536.413 380.957 536.427C381.539 536.442 382.023 535.98 382.037 535.398C382.051 534.815 381.59 534.331 381.008 534.317C380.425 534.303 379.941 534.764 379.927 535.347Z" fill="white"/>
<path opacity="0.3" d="M374.058 537.975C373.73 537.967 373.471 537.695 373.479 537.367C373.487 537.04 373.759 536.78 374.087 536.788C374.414 536.796 374.673 537.068 374.665 537.396C374.657 537.723 374.385 537.983 374.058 537.975Z" fill="white"/>
<path opacity="0.3" d="M375.998 542.312C375.976 543.259 376.724 544.045 377.671 544.068C378.618 544.091 379.404 543.342 379.427 542.395C379.45 541.448 378.701 540.662 377.754 540.639C376.808 540.616 376.021 541.365 375.998 542.312Z" fill="white"/>
<path opacity="0.3" d="M384.895 542.791C384.887 543.155 385.174 543.457 385.539 543.466C385.903 543.475 386.206 543.187 386.214 542.823C386.223 542.459 385.935 542.156 385.571 542.147C385.207 542.138 384.904 542.427 384.895 542.791Z" fill="white"/>
<path opacity="0.3" d="M381.63 538.621C381.624 538.876 381.826 539.088 382.08 539.094C382.335 539.1 382.547 538.898 382.553 538.643C382.559 538.389 382.358 538.177 382.103 538.17C381.847 538.164 381.636 538.365 381.63 538.621Z" fill="white"/>
<path opacity="0.3" d="M387.347 544.962C387.334 545.508 387.766 545.963 388.313 545.976C388.86 545.989 389.314 545.557 389.328 545.01C389.341 544.463 388.908 544.009 388.361 543.996C387.814 543.982 387.36 544.415 387.347 544.962Z" fill="white"/>
<path opacity="0.3" d="M363.197 543.716C362.486 543.699 361.925 543.11 361.942 542.399C361.959 541.689 362.549 541.127 363.259 541.145C363.969 541.162 364.531 541.752 364.514 542.462C364.497 543.172 363.907 543.734 363.197 543.716Z" fill="white"/>
<path opacity="0.3" d="M367.323 540.914C367.317 541.169 367.519 541.381 367.774 541.387C368.029 541.393 368.24 541.191 368.247 540.936C368.253 540.681 368.051 540.47 367.796 540.463C367.541 540.457 367.33 540.659 367.323 540.914Z" fill="white"/>
<path opacity="0.3" d="M355.956 544.334C355.519 544.323 355.173 543.96 355.184 543.523C355.194 543.086 355.557 542.741 355.994 542.751C356.431 542.762 356.777 543.125 356.766 543.562C356.755 543.998 356.393 544.344 355.956 544.334Z" fill="white"/>
<path opacity="0.3" d="M357.423 545.226C357.414 545.59 357.702 545.893 358.066 545.902C358.43 545.911 358.733 545.623 358.742 545.258C358.751 544.894 358.463 544.591 358.098 544.583C357.734 544.574 357.432 544.862 357.423 545.226Z" fill="white"/>
<path opacity="0.3" d="M367.658 546.134C367.645 546.681 368.077 547.134 368.623 547.147C369.169 547.161 369.623 546.728 369.636 546.182C369.649 545.636 369.217 545.183 368.671 545.169C368.125 545.156 367.671 545.589 367.658 546.134Z" fill="white"/>
<path opacity="0.3" d="M371.143 542.623C371.131 543.149 371.547 543.587 372.074 543.6C372.601 543.612 373.038 543.196 373.051 542.669C373.064 542.142 372.647 541.704 372.12 541.692C371.594 541.679 371.156 542.096 371.143 542.623Z" fill="white"/>
<path opacity="0.3" d="M377.253 536.866C377.245 537.193 377.504 537.466 377.833 537.474C378.16 537.482 378.433 537.223 378.441 536.895C378.449 536.567 378.189 536.294 377.861 536.286C377.533 536.278 377.261 536.538 377.253 536.866Z" fill="white"/>
<path opacity="0.3" d="M387.885 541.874C387.865 542.712 388.528 543.407 389.365 543.427C390.203 543.448 390.898 542.785 390.918 541.948C390.939 541.11 390.276 540.414 389.439 540.394C388.601 540.374 387.906 541.037 387.885 541.874Z" fill="white"/>
<path opacity="0.3" d="M379.629 547.678C379.62 548.079 379.937 548.412 380.337 548.421C380.738 548.431 381.07 548.114 381.08 547.714C381.09 547.313 380.773 546.98 380.372 546.971C379.972 546.96 379.639 547.277 379.629 547.678Z" fill="white"/>
<path opacity="0.2" d="M301.736 592.768C285.589 592.377 272.579 588.793 272.677 584.763C272.774 580.733 285.943 577.783 302.09 578.174C318.237 578.566 331.247 582.15 331.149 586.18C331.052 590.21 317.883 593.159 301.736 592.768Z" fill="black"/>
<path d="M280.029 580.406C280.111 577.01 290.143 574.5 302.435 574.797C314.728 575.095 324.627 578.09 324.544 581.485C324.528 582.18 324.465 584.762 324.448 585.457C324.366 588.853 314.334 591.364 302.041 591.066C289.749 590.768 279.85 587.774 279.932 584.379C279.949 583.683 280.012 581.101 280.029 580.406Z" fill="#D25B8B"/>
<path d="M281.279 579.694L284.254 568.334C284.322 565.538 292.582 563.47 302.704 563.716C312.826 563.961 320.976 566.426 320.908 569.222L323.33 580.713C323.435 580.958 323.493 581.207 323.487 581.459C323.408 584.693 313.853 587.085 302.145 586.801C290.436 586.517 281.008 583.666 281.087 580.431C281.093 580.18 281.162 579.934 281.279 579.694Z" fill="#E97F98"/>
<path opacity="0.3" d="M316.052 572.513L317.084 585.414L319 586.524L318.932 589.344C317.79 589.679 316.499 589.973 315.084 590.219L315.161 587.066L313.918 586.105L313.425 573.156L302.591 568.394L316.052 572.513Z" fill="white"/>
<path opacity="0.3" d="M291.491 572.563L289.041 585.223L286.958 586.433L286.895 589.043C282.573 587.815 279.89 586.152 279.933 584.379C279.95 583.683 280.012 581.102 280.029 580.406C280.049 579.598 280.638 578.84 281.682 578.158L284.255 568.335L302.582 568.779L291.491 572.563Z" fill="white"/>
<path opacity="0.15" d="M302.459 573.841C292.338 573.595 284.187 571.13 284.255 568.334C284.323 565.538 292.583 563.471 302.705 563.716C312.826 563.961 320.976 566.427 320.909 569.222C320.841 572.018 312.581 574.086 302.459 573.841Z" fill="white"/>
<path d="M302.501 572.071C293.424 571.851 286.105 570.026 286.154 567.995C286.204 565.963 293.602 564.495 302.679 564.715C311.757 564.935 319.075 566.76 319.026 568.791C318.977 570.823 311.578 572.291 302.501 572.071Z" fill="#B45B6D"/>
<path opacity="0.3" d="M302.769 572.076C302.679 572.074 302.591 572.074 302.502 572.072C300.098 572.013 297.82 571.841 295.767 571.584L295.492 564.91C297.667 564.727 300.106 564.653 302.68 564.715C302.769 564.717 302.858 564.721 302.947 564.723L302.769 572.076Z" fill="white"/>
<path opacity="0.3" d="M314.479 566.127C317.315 566.857 319.05 567.799 319.026 568.791C319.001 569.823 317.074 570.71 313.996 571.303L314.479 566.127Z" fill="white"/>
<path opacity="0.5" d="M284.253 568.335C284.264 568.328 284.23 568.579 284.375 568.944C284.517 569.307 284.84 569.712 285.297 570.079C286.216 570.816 287.653 571.461 289.401 572.002C292.904 573.088 297.678 573.726 302.457 573.841C307.237 573.959 312.036 573.551 315.587 572.637C317.36 572.181 318.827 571.606 319.78 570.915C320.255 570.57 320.596 570.181 320.756 569.826C320.918 569.469 320.896 569.216 320.906 569.223C320.896 569.215 320.906 569.471 320.734 569.804C320.564 570.138 320.214 570.474 319.74 570.785C318.783 571.412 317.31 571.838 315.546 572.225C313.777 572.617 311.694 572.809 309.466 572.982C307.235 573.151 304.854 573.188 302.474 573.096C300.094 573.072 297.716 572.92 295.497 572.643C293.279 572.362 291.207 572.07 289.461 571.593C287.717 571.121 286.266 570.624 285.341 569.952C284.883 569.619 284.549 569.265 284.396 568.923C284.243 568.587 284.263 568.325 284.253 568.335Z" fill="white"/>
<g opacity="0.3">
<path d="M300.364 579.061C300.238 579.016 300.108 578.968 299.962 578.912C299.111 578.59 297.945 578.149 296.714 578.119C296.589 578.116 296.463 578.125 296.338 578.131C296.159 577.203 296.098 576.458 296.953 576.207C298.305 575.809 299.629 577.514 300.393 578.241C300.424 578.271 300.368 578.671 300.364 579.061Z" fill="white"/>
<path d="M296.614 582.221C297.845 582.251 299.031 581.867 299.897 581.587C300.047 581.538 300.179 581.497 300.306 581.458C300.291 581.847 300.328 582.25 300.295 582.278C299.498 582.967 298.092 584.606 296.761 584.143C295.919 583.85 296.017 583.11 296.24 582.191C296.364 582.203 296.489 582.218 296.614 582.221Z" fill="white"/>
<path d="M296.165 578.458C297.782 578.313 299.406 579.068 300.337 579.394C300.392 579.413 300.476 580.263 300.476 580.263C300.476 580.263 300.351 581.107 300.295 581.124C299.349 581.404 297.691 582.08 296.083 581.857C294.379 581.62 295.172 580.881 295.19 580.135C295.208 579.388 294.452 578.611 296.165 578.458Z" fill="white"/>
<path d="M301.205 577.194C301.963 577.213 302.113 577.726 302.63 577.739C303.146 577.751 303.32 577.246 304.078 577.264C304.838 577.282 304.394 579.579 304.375 580.356C304.356 581.134 304.688 583.449 303.929 583.431C303.17 583.413 303.021 582.899 302.505 582.887C301.989 582.874 301.815 583.38 301.056 583.361C300.296 583.343 300.74 581.046 300.759 580.269C300.778 579.492 300.447 577.176 301.205 577.194Z" fill="white"/>
<path d="M304.772 581.566C304.898 581.611 305.028 581.659 305.175 581.714C306.026 582.036 307.192 582.478 308.423 582.508C308.548 582.511 308.673 582.502 308.798 582.496C308.977 583.424 309.039 584.168 308.184 584.42C306.832 584.818 305.507 583.113 304.744 582.386C304.712 582.356 304.768 581.955 304.772 581.566Z" fill="white"/>
<path d="M308.523 578.405C307.292 578.375 306.106 578.76 305.24 579.04C305.09 579.088 304.958 579.13 304.831 579.169C304.846 578.78 304.809 578.377 304.842 578.348C305.639 577.66 307.045 576.021 308.376 576.483C309.218 576.776 309.12 577.516 308.897 578.435C308.772 578.423 308.647 578.408 308.523 578.405Z" fill="white"/>
<path d="M308.972 582.169C307.355 582.314 305.731 581.558 304.8 581.233C304.745 581.213 304.661 580.364 304.661 580.364C304.661 580.364 304.786 579.52 304.842 579.503C305.788 579.223 307.446 578.546 309.054 578.77C310.758 579.006 309.965 579.745 309.947 580.492C309.929 581.238 310.686 582.015 308.972 582.169Z" fill="white"/>
</g>
</svg>
