<svg width="87" height="87" viewBox="0 0 87 87" fill="none" xmlns="http://www.w3.org/2000/svg">
<path d="M71.3588 71.3706C86.8909 55.8384 86.8909 30.6557 71.3588 15.1236C55.8266 -0.408602 30.6439 -0.408595 15.1118 15.1236C-0.420397 30.6557 -0.420402 55.8384 15.1118 71.3706C30.6439 86.9027 55.8266 86.9027 71.3588 71.3706Z" fill="#AEDEFF"/>
<path opacity="0.15" d="M67.6735 67.6845C81.1698 54.1881 81.1698 32.3061 67.6735 18.8097C54.1771 5.31331 32.2951 5.31331 18.7987 18.8097C5.30231 32.3061 5.30232 54.1881 18.7987 67.6844C32.2951 81.1808 54.1771 81.1808 67.6735 67.6845Z" fill="white"/>
<path opacity="0.15" d="M37.9216 42.6364C30.3806 39.2044 21.6766 38.8404 14.2986 35.0694C12.9126 34.3604 11.6117 33.5024 10.3677 32.5674C9.27668 35.9304 8.67969 39.5154 8.67969 43.2424C8.67969 44.8844 8.80168 46.4974 9.02368 48.0774C10.4527 47.4524 11.8747 46.8104 13.3907 46.4644C18.4357 45.3134 24.0997 47.9994 26.3997 52.6354C28.7007 57.2714 27.4147 63.4054 23.4467 66.7274C22.4127 67.5924 21.2487 68.2584 20.0417 68.8584C26.1747 74.4164 34.3117 77.8034 43.2407 77.8034C47.7377 77.8034 52.0296 76.9354 55.9706 75.3724C56.0226 75.0024 56.0777 74.6324 56.1147 74.2614C57.4057 61.3434 49.7376 48.0134 37.9216 42.6364Z" fill="white"/>
<path opacity="0.15" d="M72.46 24.7917C72.533 25.7637 72.292 26.6747 71.5229 27.2707C70.2679 28.2437 68.446 27.6847 67.025 26.9747C63.822 25.3757 60.956 23.1347 58.567 20.4727C55.821 17.4137 53.7009 13.7897 52.3489 9.90166C49.4469 9.11066 46.3949 8.68066 43.2419 8.68066C43.1009 8.68066 42.963 8.68967 42.822 8.69167C42.873 11.3517 42.122 14.1787 39.963 15.6757C37.888 17.1137 35.018 16.9197 32.736 15.8397C30.925 14.9827 29.4049 13.6497 27.9659 12.2387C24.3339 14.0317 21.067 16.4447 18.293 19.3387C20.821 21.0317 23.4869 22.5407 26.1729 23.8957C35.0289 28.3637 44.534 31.6847 52.658 37.3767C61.436 43.5267 68.15 52.4447 71.973 62.4477C75.652 56.9547 77.801 50.3497 77.801 43.2407C77.802 36.4557 75.839 30.1307 72.46 24.7917Z" fill="white"/>
<path d="M43.4651 25.1528C31.4344 13.2526 15 22.1806 15 33.1767C15 44.1715 23.8634 57.6935 43.4651 67.5C63.0681 57.6935 71.9302 44.1728 71.9302 33.1767C71.9302 22.1819 55.4958 13.2526 43.4651 25.1528Z" fill="#FFF9EF"/>
<path d="M51.3562 43.4118C52.9949 44.8384 56.2488 40.6713 55.3201 38.1418C54.3925 35.6134 51.8875 35.4828 51.162 37.1271C50.4386 38.7714 49.8582 42.1068 51.3562 43.4118Z" fill="#AEDEFF"/>
<path d="M45.8247 39.6632C47.6542 40.4502 49.0496 38.9176 49.6245 36.5466C50.1994 34.1756 49.3454 32.144 47.6007 31.4485C45.857 30.7531 44.2675 32.4286 44.1391 34.1031C44.0108 35.7786 43.7752 38.7814 45.8247 39.6632Z" fill="#AEDEFF"/>
<path d="M43.264 41.165C34.5983 41.165 31.658 51.7965 34.7657 53.4765C37.8578 55.1475 39.6215 51.7518 43.4425 51.7161C47.0169 51.9516 48.7694 55.075 51.7611 53.4575C54.8699 51.7775 51.9307 41.165 43.264 41.165Z" fill="#AEDEFF"/>
<path d="M35.094 43.4091C33.3214 44.9529 29.8029 40.4442 30.8053 37.7093C31.8088 34.9745 34.518 34.8327 35.3028 36.6109C36.0887 38.388 36.716 41.997 35.094 43.4091Z" fill="#AEDEFF"/>
<path d="M40.4308 39.4301C38.4449 40.1099 37.1032 38.3863 36.6901 35.849C36.2771 33.3117 37.3398 31.2466 39.2274 30.6572C41.1151 30.0667 42.6499 31.9555 42.6499 33.7259C42.6499 35.4952 42.6544 38.6688 40.4308 39.4301Z" fill="#AEDEFF"/>
</svg>
