<svg width="47" height="42" viewBox="0 0 47 42" fill="none" xmlns="http://www.w3.org/2000/svg">
<path d="M46.2201 3.94024C35.1123 10.7136 35.9079 24.6261 28.1253 30.904C22.2679 35.6289 14.0034 33.236 9.22466 31.2034C9.22466 31.2034 5.98616 35.4514 3.66311 41.1144C2.88536 43.0145 -0.529088 40.921 0.070162 39.3124C7.66406 18.9472 33.5007 8.78709 33.5007 8.78709C33.5007 8.78709 16.8909 11.3906 4.70703 27.9346C4.38063 24.1557 2.21981 10.5255 11.6548 4.2556C24.4456 -4.25356 48.8134 2.36084 46.2201 3.94024Z" fill="#AEDEFF"/>
<path d="M25.6813 35.569L32.0505 29.1477L38.7091 35.8047C39.2109 36.0403 40.4577 36.2524 41.4305 35.2156C42.4032 34.1787 41.913 32.7806 41.5463 32.2111L35.2929 25.8487L41.3726 19.5452C41.6814 18.9953 42.0095 17.6364 40.8515 16.5996C39.6934 15.5627 38.3617 16.1676 37.8406 16.5996L31.9925 22.4907L25.7392 16.2461C25.1795 15.9516 23.8168 15.6806 22.8441 16.9531C21.8714 18.2255 22.516 19.4862 22.9599 19.9575L28.75 25.8487L22.4389 32.27C22.0722 32.7413 21.5935 33.9902 22.6126 35.2156C23.6316 36.4409 25.083 35.9618 25.6813 35.569Z" fill="#FF6B6B" stroke="#FFF9EF" stroke-width="2" stroke-linejoin="round"/>
</svg>
