<svg width="305" height="1506" viewBox="0 0 305 1506" fill="none" xmlns="http://www.w3.org/2000/svg">
<path d="M133.272 168.167C134.08 172.153 137.077 175.37 143.386 174.582C150.282 173.72 150.118 170.32 154.922 169.719C159.727 169.119 160.405 172.455 167.3 171.594C173.608 170.806 175.723 166.95 175.525 162.888C175.268 157.624 170.804 155.458 168.398 154.068C166.515 152.98 164.329 151.575 162.886 148.808C160.417 144.076 156.925 140.597 151.37 141.291C145.815 141.985 143.287 146.216 142.058 151.411C141.34 154.447 139.567 156.347 138.01 157.864C136.02 159.805 132.225 163.003 133.272 168.167Z" fill="#E7D2FF"/>
<path d="M158.43 135.183C162.672 135.672 166.747 130.543 167.534 123.727C168.32 116.912 165.519 110.99 161.277 110.5C157.035 110.011 152.96 115.139 152.173 121.955C151.387 128.771 154.188 134.693 158.43 135.183Z" fill="#E7D2FF"/>
<path d="M170.43 147.477C174.152 149.01 179.165 145.404 181.628 139.424C184.09 133.444 183.07 127.354 179.348 125.821C175.626 124.288 170.613 127.894 168.15 133.874C165.687 139.855 166.708 145.944 170.43 147.477Z" fill="#E7D2FF"/>
<path d="M143.024 137.106C139.033 138.624 133.82 134.656 131.381 128.244C128.942 121.831 130.2 115.402 134.191 113.884C138.181 112.365 143.394 116.334 145.833 122.747C148.273 129.159 147.015 135.588 143.024 137.106Z" fill="#E7D2FF"/>
<path d="M134.416 151.976C131.185 154.378 125.439 152.117 121.581 146.926C117.722 141.736 117.213 135.581 120.443 133.18C123.673 130.778 129.42 133.04 133.278 138.23C137.137 143.42 137.646 149.575 134.416 151.976Z" fill="#E7D2FF"/>
<path d="M78.7668 75.782C80.9032 79.2429 80.9158 83.6398 75.7738 87.3789C70.1535 91.4656 67.9476 88.8726 64.0318 91.7201C60.116 94.5677 61.9025 97.4655 56.2822 101.552C51.1406 105.291 46.9615 103.924 44.3279 100.824C40.9157 96.8087 42.692 92.1751 43.4966 89.5156C44.1267 87.4343 44.7606 84.9139 43.9218 81.9086C42.4868 76.7679 42.6553 71.841 47.1831 68.5488C51.7109 65.2566 56.4493 66.6147 60.8975 69.5647C63.4977 71.2891 66.0906 71.4629 68.2649 71.5049C71.0435 71.5597 75.9988 71.2983 78.7668 75.782Z" fill="#E7D2FF"/>
<path d="M37.8558 68.9194C35.0955 72.1771 28.6144 71.2224 23.3796 66.7871C18.145 62.3522 16.1389 56.1158 18.8995 52.8575C21.6598 49.5998 28.1406 50.5546 33.3753 54.9899C38.6097 59.4254 40.6157 65.6618 37.8558 68.9194Z" fill="#E7D2FF"/>
<path d="M37.5063 86.0976C35.8387 89.7612 29.7151 90.5586 23.8288 87.8796C17.9424 85.2002 14.5222 80.0586 16.1898 76.395C17.857 72.7315 23.9806 71.9341 29.8674 74.6133C35.7542 77.2926 39.1734 82.4341 37.5063 86.0976Z" fill="#E7D2FF"/>
<path d="M50.4127 59.7893C54.3629 58.1676 55.4525 51.7079 52.8469 45.3609C50.2414 39.0138 44.9271 35.1832 40.9769 36.8049C37.0271 38.4261 35.9375 44.8862 38.5431 51.2332C41.1487 57.5802 46.4625 61.4111 50.4127 59.7893Z" fill="#E7D2FF"/>
<path d="M66.8614 64.7518C70.8609 64.2946 73.5071 58.7153 72.773 52.2896C72.0389 45.864 68.2017 41.0254 64.2025 41.482C60.2034 41.9387 57.5573 47.5185 58.2914 53.9442C59.0251 60.37 62.8625 65.2089 66.8614 64.7518Z" fill="#E7D2FF"/>
<path d="M192.223 332.646C193.031 336.632 196.029 339.849 202.337 339.061C209.233 338.199 209.069 334.799 213.873 334.199C218.678 333.599 219.356 336.935 226.251 336.073C232.56 335.285 234.674 331.43 234.476 327.367C234.219 322.104 229.755 319.938 227.349 318.547C225.466 317.46 223.28 316.054 221.837 313.288C219.368 308.556 215.876 305.076 210.321 305.771C204.766 306.465 202.238 310.696 201.009 315.89C200.292 318.927 198.519 320.826 196.961 322.344C194.971 324.284 191.177 327.482 192.223 332.646Z" fill="#E7D2FF"/>
<path d="M217.381 299.662C221.623 300.151 225.699 295.023 226.485 288.207C227.272 281.391 224.471 275.469 220.228 274.98C215.986 274.49 211.911 279.619 211.124 286.435C210.338 293.25 213.14 299.173 217.381 299.662Z" fill="#E7D2FF"/>
<path d="M229.383 311.956C233.105 313.489 238.118 309.883 240.581 303.903C243.044 297.923 242.023 291.832 238.301 290.3C234.579 288.767 229.566 292.372 227.103 298.353C224.64 304.333 225.661 310.423 229.383 311.956Z" fill="#E7D2FF"/>
<path d="M201.975 301.586C197.984 303.104 192.772 299.136 190.332 292.723C187.893 286.31 189.151 279.881 193.142 278.363C197.133 276.845 202.345 280.813 204.785 287.226C207.224 293.639 205.966 300.068 201.975 301.586Z" fill="#E7D2FF"/>
<path d="M193.367 316.456C190.136 318.857 184.39 316.596 180.532 311.406C176.673 306.215 176.164 300.061 179.394 297.659C182.624 295.258 188.371 297.519 192.229 302.71C196.088 307.9 196.598 314.055 193.367 316.456Z" fill="#E7D2FF"/>
<path d="M137.718 240.262C139.854 243.722 139.867 248.119 134.725 251.858C129.105 255.945 126.899 253.352 122.983 256.2C119.067 259.047 120.854 261.945 115.233 266.032C110.092 269.771 105.913 268.403 103.279 265.304C99.8669 261.288 101.643 256.655 102.448 253.995C103.078 251.914 103.712 249.393 102.873 246.388C101.438 241.247 101.607 236.321 106.134 233.028C110.662 229.736 115.4 231.094 119.849 234.044C122.449 235.769 125.042 235.942 127.216 235.984C129.995 236.039 134.95 235.778 137.718 240.262Z" fill="#E7D2FF"/>
<path d="M96.807 233.398C94.0467 236.656 87.5656 235.701 82.3308 231.266C77.0961 226.831 75.0901 220.595 77.8507 217.337C80.611 214.079 87.0917 215.034 92.3265 219.469C97.5609 223.904 99.5669 230.141 96.807 233.398Z" fill="#E7D2FF"/>
<path d="M96.4574 250.577C94.7898 254.24 88.6662 255.038 82.78 252.359C76.8936 249.679 73.4734 244.538 75.141 240.874C76.8081 237.21 82.9317 236.413 88.8186 239.092C94.7054 241.772 98.1246 246.913 96.4574 250.577Z" fill="#E7D2FF"/>
<path d="M109.364 224.268C113.314 222.647 114.404 216.187 111.798 209.84C109.193 203.493 103.878 199.662 99.9281 201.284C95.9782 202.905 94.8887 209.365 97.4943 215.712C100.1 222.059 105.414 225.89 109.364 224.268Z" fill="#E7D2FF"/>
<path d="M125.813 229.23C129.812 228.773 132.458 223.194 131.724 216.768C130.99 210.342 127.153 205.504 123.154 205.961C119.155 206.417 116.508 211.997 117.243 218.423C117.976 224.849 121.814 229.687 125.813 229.23Z" fill="#E7D2FF"/>
<path d="M192.223 332.645C193.031 336.632 196.029 339.848 202.337 339.06C209.233 338.198 209.069 334.798 213.873 334.198C218.678 333.598 219.356 336.934 226.251 336.072C232.56 335.284 234.674 331.429 234.476 327.366C234.219 322.103 229.755 319.937 227.349 318.546C225.466 317.459 223.28 316.053 221.837 313.287C219.368 308.555 215.876 305.075 210.321 305.77C204.766 306.464 202.238 310.695 201.009 315.889C200.292 318.926 198.519 320.825 196.961 322.343C194.971 324.283 191.177 327.481 192.223 332.645Z" fill="#E7D2FF"/>
<path d="M217.383 299.662C221.625 300.151 225.701 295.023 226.487 288.207C227.274 281.391 224.473 275.469 220.23 274.98C215.988 274.49 211.913 279.619 211.126 286.435C210.34 293.25 213.141 299.173 217.383 299.662Z" fill="#E7D2FF"/>
<path d="M229.385 311.956C233.107 313.489 238.12 309.883 240.583 303.903C243.045 297.923 242.025 291.832 238.303 290.3C234.581 288.767 229.568 292.372 227.105 298.353C224.642 304.333 225.663 310.423 229.385 311.956Z" fill="#E7D2FF"/>
<path d="M201.977 301.586C197.986 303.104 192.774 299.136 190.334 292.723C187.895 286.31 189.153 279.881 193.144 278.363C197.135 276.845 202.347 280.813 204.786 287.226C207.226 293.639 205.968 300.068 201.977 301.586Z" fill="#E7D2FF"/>
<path d="M193.369 316.456C190.138 318.857 184.392 316.596 180.534 311.406C176.675 306.215 176.166 300.061 179.396 297.659C182.626 295.258 188.373 297.519 192.231 302.71C196.09 307.9 196.599 314.055 193.369 316.456Z" fill="#E7D2FF"/>
<path d="M214.07 527.177C214.08 531.244 216.387 534.987 222.728 535.453C229.658 535.962 230.165 532.596 234.994 532.951C239.823 533.306 239.832 536.71 246.763 537.219C253.103 537.685 255.933 534.32 256.537 530.298C257.319 525.087 253.366 522.086 251.281 520.25C249.648 518.814 247.78 517.007 246.908 514.011C245.417 508.886 242.677 504.789 237.093 504.378C231.51 503.968 228.2 507.621 225.976 512.472C224.676 515.309 222.564 516.823 220.739 518.005C218.406 519.517 214.058 521.908 214.07 527.177Z" fill="#E7D2FF"/>
<path d="M245.216 499.776C249.279 501.089 254.282 496.86 256.392 490.331C258.502 483.803 256.918 477.446 252.854 476.133C248.791 474.82 243.788 479.049 241.678 485.577C239.569 492.106 241.153 498.463 245.216 499.776Z" fill="#E7D2FF"/>
<path d="M254.57 514.188C257.918 516.422 263.542 513.871 267.131 508.491C270.72 503.11 270.915 496.938 267.567 494.704C264.219 492.47 258.595 495.021 255.005 500.402C251.416 505.782 251.222 511.954 254.57 514.188Z" fill="#E7D2FF"/>
<path d="M229.732 498.636C225.521 499.341 221.189 494.427 220.057 487.66C218.924 480.893 221.42 474.836 225.632 474.131C229.843 473.426 234.174 478.341 235.307 485.108C236.439 491.875 233.944 497.932 229.732 498.636Z" fill="#E7D2FF"/>
<path d="M218.373 511.527C214.734 513.247 209.543 509.901 206.779 504.054C204.015 498.207 204.724 492.073 208.363 490.352C212.002 488.632 217.193 491.978 219.957 497.825C222.721 503.672 222.012 509.807 218.373 511.527Z" fill="#E7D2FF"/>
<path d="M178.771 425.888C180.186 429.701 179.335 434.015 173.559 436.671C167.245 439.575 165.591 436.599 161.193 438.622C156.794 440.645 157.977 443.837 151.663 446.741C145.888 449.397 142.058 447.236 140.085 443.68C137.527 439.072 140.179 434.878 141.49 432.428C142.517 430.511 143.633 428.164 143.401 425.053C143.003 419.73 144.136 414.932 149.222 412.593C154.308 410.254 158.688 412.517 162.47 416.283C164.681 418.484 167.189 419.164 169.313 419.632C172.027 420.231 176.937 420.948 178.771 425.888Z" fill="#E7D2FF"/>
<path d="M140.002 411.125C136.656 413.778 130.488 411.569 126.226 406.192C121.964 400.815 121.222 394.306 124.569 391.654C127.915 389.001 134.082 391.21 138.344 396.587C142.605 401.964 143.348 408.473 140.002 411.125Z" fill="#E7D2FF"/>
<path d="M136.288 427.9C133.934 431.165 127.773 430.745 122.527 426.962C117.281 423.179 114.937 417.465 117.292 414.201C119.646 410.936 125.807 411.356 131.053 415.14C136.299 418.923 138.642 424.636 136.288 427.9Z" fill="#E7D2FF"/>
<path d="M154.107 404.638C158.299 403.824 160.636 397.704 159.327 390.969C158.019 384.234 153.56 379.434 149.369 380.249C145.177 381.063 142.84 387.183 144.149 393.918C145.457 400.653 149.915 405.453 154.107 404.638Z" fill="#E7D2FF"/>
<path d="M169.261 412.735C173.272 413.072 176.963 408.121 177.505 401.676C178.047 395.231 175.234 389.734 171.224 389.396C167.213 389.058 163.522 394.01 162.98 400.455C162.438 406.899 165.25 412.398 169.261 412.735Z" fill="#E7D2FF"/>
<path d="M239.578 700.03C239.587 704.097 241.895 707.839 248.235 708.305C255.166 708.815 255.673 705.448 260.502 705.803C265.33 706.158 265.34 709.562 272.271 710.072C278.611 710.538 281.441 707.173 282.045 703.15C282.827 697.939 278.874 694.939 276.788 693.103C275.156 691.667 273.288 689.859 272.416 686.863C270.925 681.739 268.184 677.641 262.601 677.231C257.018 676.821 253.708 680.473 251.484 685.325C250.183 688.161 248.072 689.676 246.246 690.858C243.914 692.37 239.566 694.76 239.578 700.03Z" fill="#E7D2FF"/>
<path d="M270.723 672.628C274.787 673.941 279.79 669.713 281.9 663.184C284.009 656.656 282.426 650.299 278.362 648.986C274.299 647.673 269.296 651.901 267.186 658.43C265.077 664.959 266.661 671.315 270.723 672.628Z" fill="#E7D2FF"/>
<path d="M280.078 687.039C283.426 689.273 289.05 686.722 292.639 681.342C296.228 675.962 296.423 669.79 293.075 667.556C289.726 665.322 284.103 667.873 280.513 673.253C276.924 678.634 276.729 684.805 280.078 687.039Z" fill="#E7D2FF"/>
<path d="M255.24 671.49C251.029 672.195 246.697 667.28 245.564 660.513C244.432 653.746 246.928 647.689 251.139 646.985C255.35 646.28 259.682 651.194 260.815 657.961C261.947 664.728 259.452 670.785 255.24 671.49Z" fill="#E7D2FF"/>
<path d="M243.881 684.379C240.241 686.099 235.051 682.754 232.287 676.907C229.523 671.06 230.232 664.925 233.871 663.205C237.51 661.484 242.7 664.83 245.465 670.677C248.229 676.524 247.52 682.659 243.881 684.379Z" fill="#E7D2FF"/>
<path d="M204.277 598.74C205.692 602.554 204.841 606.867 199.065 609.524C192.751 612.427 191.097 609.452 186.699 611.475C182.3 613.498 183.482 616.69 177.169 619.593C171.393 622.25 167.564 620.089 165.591 616.532C163.033 611.925 165.685 607.73 166.996 605.281C168.023 603.363 169.139 601.017 168.907 597.905C168.509 592.583 169.642 587.785 174.728 585.446C179.814 583.107 184.194 585.369 187.976 589.135C190.187 591.337 192.695 592.016 194.819 592.484C197.533 593.084 202.443 593.801 204.277 598.74Z" fill="#E7D2FF"/>
<path d="M165.51 583.978C162.163 586.63 155.996 584.421 151.734 579.044C147.472 573.668 146.73 567.159 150.077 564.506C153.423 561.854 159.59 564.063 163.852 569.44C168.113 574.817 168.856 581.326 165.51 583.978Z" fill="#E7D2FF"/>
<path d="M161.794 600.753C159.439 604.018 153.278 603.597 148.033 599.814C142.787 596.031 140.443 590.318 142.798 587.053C145.152 583.788 151.313 584.209 156.559 587.992C161.805 591.775 164.148 597.488 161.794 600.753Z" fill="#E7D2FF"/>
<path d="M179.613 577.491C183.805 576.677 186.142 570.557 184.833 563.821C183.525 557.086 179.066 552.287 174.874 553.101C170.683 553.915 168.346 560.035 169.655 566.771C170.963 573.506 175.421 578.305 179.613 577.491Z" fill="#E7D2FF"/>
<path d="M194.769 585.587C198.78 585.924 202.471 580.973 203.013 574.529C203.555 568.084 200.742 562.586 196.731 562.249C192.72 561.911 189.03 566.863 188.488 573.307C187.946 579.752 190.758 585.25 194.769 585.587Z" fill="#E7D2FF"/>
<path d="M239.578 700.03C239.587 704.097 241.895 707.839 248.235 708.305C255.166 708.815 255.673 705.448 260.502 705.803C265.33 706.158 265.34 709.562 272.271 710.072C278.611 710.538 281.441 707.173 282.045 703.15C282.827 697.939 278.874 694.939 276.788 693.103C275.156 691.667 273.288 689.859 272.416 686.863C270.925 681.739 268.184 677.641 262.601 677.231C257.018 676.821 253.708 680.473 251.484 685.325C250.183 688.161 248.072 689.676 246.246 690.858C243.914 692.37 239.566 694.76 239.578 700.03Z" fill="#E7D2FF"/>
<path d="M270.723 672.628C274.787 673.941 279.79 669.713 281.9 663.184C284.009 656.656 282.426 650.299 278.362 648.986C274.299 647.673 269.296 651.901 267.186 658.43C265.077 664.959 266.661 671.315 270.723 672.628Z" fill="#E7D2FF"/>
<path d="M280.078 687.04C283.426 689.274 289.05 686.723 292.639 681.343C296.228 675.963 296.423 669.791 293.075 667.557C289.726 665.323 284.103 667.874 280.513 673.254C276.924 678.635 276.729 684.806 280.078 687.04Z" fill="#E7D2FF"/>
<path d="M255.24 671.49C251.029 672.195 246.697 667.28 245.564 660.513C244.432 653.746 246.928 647.689 251.139 646.985C255.35 646.28 259.682 651.194 260.815 657.961C261.947 664.728 259.452 670.785 255.24 671.49Z" fill="#E7D2FF"/>
<path d="M243.881 684.38C240.241 686.1 235.051 682.755 232.287 676.908C229.523 671.061 230.232 664.926 233.871 663.206C237.51 661.485 242.7 664.831 245.465 670.678C248.229 676.525 247.52 682.66 243.881 684.38Z" fill="#E7D2FF"/>
<path d="M196.965 900.523C195.517 904.323 196.33 908.644 202.082 911.352C208.37 914.311 210.05 911.35 214.43 913.411C218.811 915.473 217.6 918.655 223.888 921.614C229.64 924.321 233.488 922.194 235.493 918.655C238.091 914.07 235.476 909.852 234.187 907.391C233.177 905.465 232.081 903.108 232.341 899.999C232.785 894.68 231.695 889.873 226.629 887.489C221.564 885.105 217.165 887.329 213.35 891.061C211.119 893.243 208.605 893.901 206.477 894.35C203.759 894.926 198.842 895.599 196.965 900.523Z" fill="#E7D2FF"/>
<path d="M235.861 886.102C239.184 888.783 245.371 886.629 249.68 881.29C253.989 875.951 254.788 869.449 251.465 866.767C248.142 864.085 241.956 866.24 237.647 871.579C233.338 876.918 232.539 883.42 235.861 886.102Z" fill="#E7D2FF"/>
<path d="M239.428 902.909C241.754 906.194 247.918 905.828 253.197 902.091C258.475 898.355 260.869 892.662 258.544 889.377C256.218 886.091 250.054 886.458 244.775 890.195C239.496 893.931 237.102 899.623 239.428 902.909Z" fill="#E7D2FF"/>
<path d="M221.814 879.49C217.63 878.639 215.347 872.498 216.714 865.775C218.082 859.052 222.583 854.292 226.767 855.143C230.951 855.994 233.234 862.134 231.866 868.858C230.499 875.581 225.998 880.341 221.814 879.49Z" fill="#E7D2FF"/>
<path d="M206.59 887.453C202.576 887.755 198.929 882.772 198.444 876.322C197.959 869.873 200.819 864.4 204.833 864.098C208.847 863.796 212.493 868.78 212.979 875.229C213.464 881.678 210.604 887.152 206.59 887.453Z" fill="#E7D2FF"/>
<path d="M200.303 793.311C200.258 797.378 197.918 801.1 191.573 801.51C184.639 801.958 184.161 798.588 179.329 798.9C174.498 799.213 174.458 802.617 167.523 803.065C161.179 803.475 158.379 800.085 157.811 796.058C157.075 790.84 161.053 787.874 163.155 786.057C164.801 784.635 166.684 782.844 167.582 779.856C169.118 774.745 171.895 770.672 177.482 770.311C183.068 769.949 186.346 773.631 188.528 778.502C189.803 781.35 191.901 782.883 193.716 784.081C196.035 785.613 200.362 788.042 200.303 793.311Z" fill="#E7D2FF"/>
<path d="M169.401 765.636C165.327 766.913 160.36 762.641 158.308 756.094C156.256 749.547 157.896 743.205 161.971 741.928C166.045 740.651 171.011 744.923 173.063 751.47C175.115 758.017 173.475 764.359 169.401 765.636Z" fill="#E7D2FF"/>
<path d="M159.922 779.966C156.554 782.17 150.952 779.57 147.411 774.158C143.869 768.747 143.728 762.573 147.097 760.369C150.464 758.164 156.065 760.765 159.607 766.177C163.149 771.588 163.289 777.761 159.922 779.966Z" fill="#E7D2FF"/>
<path d="M184.894 764.635C189.099 765.376 193.474 760.5 194.666 753.744C195.858 746.987 193.415 740.908 189.21 740.167C185.005 739.425 180.63 744.301 179.438 751.058C178.246 757.814 180.688 763.893 184.894 764.635Z" fill="#E7D2FF"/>
<path d="M196.139 777.623C199.763 779.375 204.983 776.076 207.798 770.253C210.614 764.431 209.959 758.29 206.335 756.538C202.711 754.785 197.492 758.085 194.676 763.908C191.86 769.73 192.516 775.871 196.139 777.623Z" fill="#E7D2FF"/>
<path d="M158.832 1071.04C157.384 1074.84 158.197 1079.16 163.949 1081.87C170.237 1084.82 171.917 1081.86 176.297 1083.93C180.678 1085.99 179.468 1089.17 185.755 1092.13C191.507 1094.83 195.355 1092.71 197.36 1089.17C199.958 1084.58 197.343 1080.37 196.054 1077.9C195.044 1075.98 193.948 1073.62 194.208 1070.51C194.652 1065.19 193.562 1060.39 188.497 1058C183.431 1055.62 179.032 1057.84 175.217 1061.58C172.987 1063.76 170.472 1064.41 168.345 1064.86C165.626 1065.44 160.709 1066.11 158.832 1071.04Z" fill="#E7D2FF"/>
<path d="M197.728 1056.62C201.051 1059.3 207.238 1057.14 211.547 1051.8C215.856 1046.47 216.656 1039.96 213.332 1037.28C210.01 1034.6 203.823 1036.75 199.514 1042.09C195.206 1047.43 194.406 1053.93 197.728 1056.62Z" fill="#E7D2FF"/>
<path d="M201.297 1073.42C203.623 1076.71 209.787 1076.34 215.066 1072.61C220.344 1068.87 222.739 1063.18 220.413 1059.89C218.088 1056.61 211.923 1056.97 206.644 1060.71C201.365 1064.45 198.972 1070.14 201.297 1073.42Z" fill="#E7D2FF"/>
<path d="M183.681 1050C179.497 1049.15 177.214 1043.01 178.581 1036.29C179.949 1029.57 184.45 1024.81 188.634 1025.66C192.818 1026.51 195.101 1032.65 193.733 1039.37C192.366 1046.1 187.866 1050.86 183.681 1050Z" fill="#E7D2FF"/>
<path d="M168.455 1057.97C164.441 1058.27 160.794 1053.29 160.309 1046.84C159.824 1040.39 162.684 1034.91 166.698 1034.61C170.712 1034.31 174.359 1039.29 174.844 1045.74C175.329 1052.19 172.469 1057.67 168.455 1057.97Z" fill="#E7D2FF"/>
<path d="M162.172 963.825C162.127 967.892 159.787 971.614 153.442 972.024C146.508 972.472 146.03 969.101 141.199 969.414C136.367 969.726 136.327 973.13 129.393 973.579C123.049 973.989 120.248 970.599 119.68 966.572C118.944 961.354 122.922 958.388 125.024 956.571C126.67 955.149 128.553 953.358 129.451 950.37C130.987 945.258 133.764 941.185 139.351 940.824C144.937 940.463 148.215 944.144 150.397 949.016C151.672 951.863 153.77 953.397 155.585 954.595C157.904 956.127 162.231 958.556 162.172 963.825Z" fill="#E7D2FF"/>
<path d="M131.27 936.149C127.196 937.426 122.23 933.154 120.178 926.607C118.125 920.06 119.765 913.717 123.84 912.44C127.914 911.163 132.88 915.435 134.932 921.982C136.984 928.529 135.344 934.872 131.27 936.149Z" fill="#E7D2FF"/>
<path d="M121.791 950.479C118.423 952.684 112.822 950.083 109.28 944.672C105.738 939.26 105.598 933.087 108.966 930.882C112.333 928.678 117.934 931.278 121.476 936.69C125.018 942.102 125.159 948.275 121.791 950.479Z" fill="#E7D2FF"/>
<path d="M146.763 935.148C150.968 935.89 155.343 931.014 156.535 924.257C157.727 917.501 155.284 911.422 151.079 910.68C146.874 909.938 142.499 914.815 141.307 921.571C140.115 928.328 142.557 934.407 146.763 935.148Z" fill="#E7D2FF"/>
<path d="M158.008 948.137C161.633 949.889 166.852 946.589 169.668 940.767C172.483 934.944 171.828 928.804 168.204 927.051C164.581 925.299 159.361 928.599 156.545 934.422C153.729 940.244 154.385 946.385 158.008 948.137Z" fill="#E7D2FF"/>
<path d="M158.832 1071.04C157.384 1074.84 158.197 1079.16 163.949 1081.87C170.237 1084.82 171.917 1081.86 176.297 1083.93C180.678 1085.99 179.468 1089.17 185.755 1092.13C191.507 1094.83 195.355 1092.71 197.36 1089.17C199.958 1084.58 197.343 1080.37 196.054 1077.9C195.044 1075.98 193.948 1073.62 194.208 1070.51C194.652 1065.19 193.562 1060.39 188.497 1058C183.431 1055.62 179.032 1057.84 175.217 1061.58C172.987 1063.76 170.472 1064.41 168.345 1064.86C165.626 1065.44 160.709 1066.11 158.832 1071.04Z" fill="#E7D2FF"/>
<path d="M197.728 1056.62C201.051 1059.3 207.238 1057.14 211.547 1051.8C215.856 1046.47 216.656 1039.96 213.332 1037.28C210.01 1034.6 203.823 1036.75 199.514 1042.09C195.206 1047.43 194.406 1053.93 197.728 1056.62Z" fill="#E7D2FF"/>
<path d="M201.297 1073.42C203.623 1076.71 209.787 1076.34 215.066 1072.61C220.344 1068.87 222.739 1063.18 220.413 1059.89C218.088 1056.61 211.923 1056.97 206.644 1060.71C201.365 1064.45 198.972 1070.14 201.297 1073.42Z" fill="#E7D2FF"/>
<path d="M183.681 1050.01C179.497 1049.15 177.214 1043.01 178.581 1036.29C179.949 1029.57 184.45 1024.81 188.634 1025.66C192.818 1026.51 195.101 1032.65 193.733 1039.37C192.366 1046.1 187.866 1050.86 183.681 1050.01Z" fill="#E7D2FF"/>
<path d="M168.455 1057.97C164.441 1058.27 160.794 1053.29 160.309 1046.84C159.824 1040.39 162.684 1034.91 166.698 1034.61C170.712 1034.31 174.359 1039.29 174.844 1045.74C175.329 1052.19 172.469 1057.67 168.455 1057.97Z" fill="#E7D2FF"/>
<path d="M93.0764 1233.78C91.2461 1237.41 91.6123 1241.79 97.0573 1245.08C103.009 1248.66 104.983 1245.89 109.13 1248.39C113.276 1250.89 111.746 1253.93 117.698 1257.52C123.142 1260.8 127.188 1259.08 129.545 1255.76C132.598 1251.47 130.429 1247.01 129.399 1244.43C128.592 1242.41 127.743 1239.95 128.32 1236.88C129.306 1231.64 128.714 1226.74 123.919 1223.85C119.125 1220.96 114.521 1222.73 110.344 1226.05C107.902 1227.99 105.333 1228.39 103.171 1228.62C100.407 1228.91 95.4478 1229.08 93.0764 1233.78Z" fill="#E7D2FF"/>
<path d="M133.244 1223.42C136.275 1226.43 142.649 1224.92 147.483 1220.05C152.316 1215.18 153.777 1208.79 150.746 1205.78C147.715 1202.78 141.341 1204.29 136.508 1209.16C131.675 1214.03 130.214 1220.41 133.244 1223.42Z" fill="#E7D2FF"/>
<path d="M135.071 1240.5C137.048 1244.01 143.217 1244.28 148.851 1241.1C154.485 1237.92 157.449 1232.51 155.472 1229C153.496 1225.49 147.326 1225.23 141.692 1228.4C136.058 1231.58 133.094 1237 135.071 1240.5Z" fill="#E7D2FF"/>
<path d="M119.948 1215.4C115.873 1214.13 114.231 1207.79 116.28 1201.24C118.329 1194.69 123.294 1190.42 127.369 1191.69C131.444 1192.97 133.086 1199.31 131.037 1205.86C128.988 1212.41 124.024 1216.68 119.948 1215.4Z" fill="#E7D2FF"/>
<path d="M103.988 1221.77C99.9636 1221.66 96.8465 1216.32 97.0243 1209.86C97.2021 1203.39 100.608 1198.24 104.632 1198.35C108.655 1198.46 111.772 1203.8 111.595 1210.26C111.417 1216.73 108.011 1221.88 103.988 1221.77Z" fill="#E7D2FF"/>
<path d="M107.379 1127.47C106.917 1131.52 104.208 1134.98 97.8547 1134.74C90.9107 1134.47 90.7808 1131.07 85.9426 1130.89C81.1044 1130.7 80.7161 1134.08 73.7721 1133.82C67.4194 1133.58 64.9809 1129.92 64.8282 1125.86C64.6303 1120.59 68.8917 1118.05 71.1688 1116.45C72.9511 1115.21 75.0079 1113.62 76.2074 1110.74C78.259 1105.81 81.4383 1102.04 87.0325 1102.26C92.6266 1102.47 95.5102 1106.47 97.1814 1111.54C98.1582 1114.5 100.088 1116.24 101.771 1117.62C103.921 1119.38 107.976 1122.24 107.379 1127.47Z" fill="#E7D2FF"/>
<path d="M79.474 1096.78C75.2901 1097.63 70.7874 1092.88 69.4168 1086.15C68.0459 1079.43 70.3264 1073.29 74.5108 1072.44C78.6947 1071.58 83.1969 1076.34 84.5676 1083.06C85.9378 1089.79 83.6574 1095.93 79.474 1096.78Z" fill="#E7D2FF"/>
<path d="M68.5758 1110.06C64.9996 1111.91 59.6943 1108.75 56.7255 1103.01C53.7569 1097.26 54.2489 1091.1 57.8251 1089.26C61.4009 1087.41 66.7062 1090.57 69.6752 1096.32C72.6443 1102.06 72.1516 1108.22 68.5758 1110.06Z" fill="#E7D2FF"/>
<path d="M94.987 1097.37C99.0942 1098.54 103.945 1094.14 105.823 1087.54C107.701 1080.94 105.894 1074.64 101.787 1073.47C97.6801 1072.31 92.8287 1076.71 90.951 1083.31C89.0733 1089.91 90.8799 1096.2 94.987 1097.37Z" fill="#E7D2FF"/>
<path d="M104.845 1111.44C108.27 1113.56 113.8 1110.81 117.197 1105.31C120.594 1099.8 120.571 1093.63 117.146 1091.51C113.721 1089.4 108.191 1092.15 104.794 1097.65C101.396 1103.15 101.419 1109.33 104.845 1111.44Z" fill="#E7D2FF"/>
<path d="M37.6838 1399.49C35.8535 1403.12 36.2197 1407.51 41.6647 1410.79C47.6162 1414.38 49.5905 1411.6 53.7371 1414.1C57.8836 1416.6 56.3535 1419.64 62.305 1423.23C67.7496 1426.51 71.7953 1424.79 74.1521 1421.47C77.2057 1417.18 75.0368 1412.72 74.006 1410.14C73.199 1408.12 72.3502 1405.66 72.927 1402.59C73.9138 1397.35 73.3215 1392.45 68.5269 1389.56C63.7323 1386.67 59.1286 1388.44 54.951 1391.76C52.5091 1393.7 49.9408 1394.1 47.7782 1394.33C45.0146 1394.62 40.0552 1394.79 37.6838 1399.49Z" fill="#E7D2FF"/>
<path d="M77.8532 1389.13C80.8839 1392.14 87.2587 1390.63 92.0919 1385.76C96.925 1380.89 98.3863 1374.51 95.3553 1371.5C92.3246 1368.49 85.9502 1370 81.117 1374.87C76.2842 1379.74 74.8229 1386.12 77.8532 1389.13Z" fill="#E7D2FF"/>
<path d="M79.6802 1406.21C81.6572 1409.72 87.8268 1409.99 93.4603 1406.81C99.094 1403.64 102.059 1398.22 100.081 1394.71C98.1049 1391.21 91.9354 1390.94 86.3013 1394.12C80.6671 1397.29 77.7036 1402.71 79.6802 1406.21Z" fill="#E7D2FF"/>
<path d="M64.5558 1381.12C60.4806 1379.84 58.8385 1373.5 60.8876 1366.95C62.9367 1360.4 67.9011 1356.13 71.9763 1357.4C76.0512 1358.68 77.6932 1365.02 75.6441 1371.57C73.5951 1378.12 68.631 1382.39 64.5558 1381.12Z" fill="#E7D2FF"/>
<path d="M48.5969 1387.48C44.5729 1387.37 41.4559 1382.04 41.6336 1375.57C41.8114 1369.11 45.2176 1363.96 49.2412 1364.07C53.2648 1364.18 56.3817 1369.51 56.2039 1375.97C56.0266 1382.44 52.6204 1387.59 48.5969 1387.48Z" fill="#E7D2FF"/>
<path d="M51.988 1293.19C51.5264 1297.23 48.8172 1300.69 42.4641 1300.45C35.52 1300.18 35.3902 1296.78 30.552 1296.6C25.7138 1296.41 25.3255 1299.8 18.3815 1299.53C12.0288 1299.29 9.59026 1295.63 9.43761 1291.57C9.23965 1286.3 13.5011 1283.76 15.7781 1282.17C17.5605 1280.92 19.6173 1279.33 20.8168 1276.45C22.8683 1271.52 26.0477 1267.76 31.6419 1267.97C37.236 1268.18 40.1196 1272.18 41.7907 1277.25C42.7676 1280.21 44.6977 1281.95 46.3804 1283.33C48.53 1285.09 52.5857 1287.95 51.988 1293.19Z" fill="#E7D2FF"/>
<path d="M24.0814 1262.49C19.8975 1263.34 15.3949 1258.59 14.0242 1251.86C12.6533 1245.14 14.9338 1239 19.1182 1238.15C23.3021 1237.29 27.8043 1242.05 29.175 1248.77C30.5453 1255.5 28.2648 1261.64 24.0814 1262.49Z" fill="#E7D2FF"/>
<path d="M13.1832 1275.77C9.607 1277.62 4.30174 1274.46 1.33293 1268.72C-1.63571 1262.97 -1.14366 1256.81 2.43254 1254.97C6.00832 1253.12 11.3136 1256.28 14.2827 1262.03C17.2517 1267.77 16.759 1273.93 13.1832 1275.77Z" fill="#E7D2FF"/>
<path d="M39.5945 1263.08C43.7016 1264.25 48.5528 1259.85 50.4305 1253.25C52.3082 1246.65 50.5012 1240.35 46.394 1239.18C42.2875 1238.02 37.4361 1242.42 35.5584 1249.02C33.6807 1255.62 35.4874 1261.91 39.5945 1263.08Z" fill="#E7D2FF"/>
<path d="M49.452 1277.15C52.8776 1279.27 58.4076 1276.52 61.8047 1271.02C65.2017 1265.51 65.1786 1259.34 61.7535 1257.22C58.3285 1255.11 52.7983 1257.86 49.4013 1263.36C46.0039 1268.86 46.0268 1275.04 49.452 1277.15Z" fill="#E7D2FF"/>
<path d="M37.6838 1399.49C35.8535 1403.12 36.2197 1407.51 41.6647 1410.79C47.6162 1414.38 49.5905 1411.6 53.7371 1414.1C57.8836 1416.6 56.3535 1419.64 62.305 1423.23C67.7496 1426.51 71.7953 1424.79 74.1521 1421.47C77.2057 1417.18 75.0368 1412.72 74.006 1410.14C73.199 1408.12 72.3502 1405.66 72.927 1402.59C73.9138 1397.35 73.3215 1392.45 68.5269 1389.56C63.7323 1386.67 59.1286 1388.44 54.951 1391.76C52.5091 1393.7 49.9408 1394.1 47.7782 1394.33C45.0146 1394.62 40.0552 1394.79 37.6838 1399.49Z" fill="#E7D2FF"/>
<path d="M77.8512 1389.13C80.882 1392.14 87.2568 1390.63 92.09 1385.76C96.9231 1380.89 98.3844 1374.51 95.3533 1371.5C92.3226 1368.49 85.9482 1370 81.115 1374.87C76.2823 1379.74 74.821 1386.12 77.8512 1389.13Z" fill="#E7D2FF"/>
<path d="M79.6802 1406.21C81.6572 1409.72 87.8268 1409.99 93.4603 1406.81C99.094 1403.64 102.059 1398.22 100.081 1394.71C98.1049 1391.21 91.9354 1390.94 86.3013 1394.12C80.6671 1397.29 77.7036 1402.71 79.6802 1406.21Z" fill="#E7D2FF"/>
<path d="M64.5558 1381.12C60.4806 1379.84 58.8385 1373.5 60.8876 1366.95C62.9367 1360.4 67.9011 1356.13 71.9763 1357.4C76.0512 1358.68 77.6932 1365.02 75.6441 1371.57C73.5951 1378.12 68.631 1382.39 64.5558 1381.12Z" fill="#E7D2FF"/>
<path d="M48.5949 1387.48C44.571 1387.37 41.4539 1382.04 41.6317 1375.57C41.8095 1369.11 45.2156 1363.96 49.2392 1364.07C53.2628 1364.18 56.3798 1369.51 56.202 1375.97C56.0247 1382.44 52.6184 1387.59 48.5949 1387.48Z" fill="#E7D2FF"/>
</svg>
