<svg width="50" height="49" viewBox="0 0 50 49" fill="none" xmlns="http://www.w3.org/2000/svg">
<path d="M42.1954 41.4701C51.6663 32.0741 51.6662 16.8401 42.1954 7.44412C32.7246 -1.95189 17.3693 -1.95189 7.89847 7.44412C-1.57237 16.8401 -1.57236 32.0741 7.89847 41.4701C17.3693 50.8661 32.7246 50.8661 42.1954 41.4701Z" fill="#8EDDEB"/>
<path opacity="0.15" d="M25.0497 45.3661C36.6881 45.3661 46.1229 36.0058 46.1229 24.4594C46.1229 12.913 36.6881 3.55273 25.0497 3.55273C13.4113 3.55273 3.97656 12.913 3.97656 24.4594C3.97656 36.0058 13.4113 45.3661 25.0497 45.3661Z" fill="white"/>
<path d="M39.4867 19.3518H30.73C30.4361 19.3518 30.1976 19.1152 30.1976 18.8231V10.1356C30.1976 9.84398 29.9592 9.60742 29.6653 9.60742H20.4324C20.1385 9.60742 19.9001 9.84398 19.9001 10.1356V18.8231C19.9001 19.1146 19.6617 19.3518 19.3672 19.3518H10.6104C10.3165 19.3518 10.0781 19.5883 10.0781 19.8799V29.0399C10.0781 29.3315 10.3165 29.568 10.6104 29.568H19.3672C19.6611 29.568 19.9001 29.8045 19.9001 30.0961V38.7836C19.9001 39.0752 20.1385 39.3117 20.4324 39.3117H29.6647C29.9592 39.3117 30.197 39.0752 30.197 38.7836V30.0961C30.197 29.8045 30.4354 29.568 30.7293 29.568H39.4861C39.78 29.568 40.0184 29.3315 40.0184 29.0399V19.8799C40.0196 19.5883 39.7812 19.3518 39.4867 19.3518Z" fill="#ED1C24"/>
<path opacity="0.15" d="M21.8071 24.093C17.2089 22.0168 11.9016 21.7966 7.40278 19.5154C6.55766 19.0865 5.76437 18.5668 5.00583 18.0018C4.34059 20.0362 3.97656 22.2049 3.97656 24.4595C3.97656 25.4528 4.05156 26.4286 4.18632 27.3844C5.05766 27.0063 5.92473 26.618 6.84912 26.4087C9.92534 25.7124 13.379 27.3372 14.7814 30.1417C16.1845 32.9456 15.4003 36.6569 12.9808 38.6665C12.3503 39.1898 11.6406 39.5927 10.9046 39.9557C14.6442 43.3179 19.6058 45.3668 25.0503 45.3668C27.7924 45.3668 30.4095 44.8417 32.8125 43.8962C32.8442 43.6724 32.8778 43.4486 32.9003 43.2241C33.6869 35.4096 29.0113 27.3463 21.8071 24.093Z" fill="white"/>
<path opacity="0.15" d="M42.8646 13.2988C42.9091 13.8868 42.7622 14.4379 42.2933 14.7984C41.528 15.387 40.417 15.0489 39.5506 14.62C37.5975 13.6521 35.85 12.297 34.3933 10.6866C32.7189 8.83614 31.4262 6.64382 30.6018 4.29182C28.8323 3.81331 26.9713 3.55322 25.0487 3.55322C24.9628 3.55322 24.8786 3.55866 24.7926 3.55987C24.8237 5.169 24.3658 6.87917 23.0494 7.78476C21.7841 8.65466 20.0341 8.53731 18.6426 7.88397C17.5384 7.36554 16.6115 6.55915 15.7341 5.70558C13.5195 6.79024 11.5268 8.24994 9.83594 10.0006C11.3774 11.0248 13.003 11.9376 14.6414 12.7573C20.0414 15.4602 25.8372 17.4692 30.7908 20.9125C36.1433 24.6329 40.2372 30.0277 42.5683 36.0795C44.8116 32.7566 46.1219 28.7604 46.1219 24.4605C46.1219 20.3542 44.9244 16.5285 42.8646 13.2988Z" fill="white"/>
</svg>
