<svg width="330" height="1731" viewBox="0 0 330 1731" fill="none" xmlns="http://www.w3.org/2000/svg">
<path d="M284.104 167.328C282.73 171.156 279.3 173.907 273.171 172.218C266.472 170.372 267.124 167.03 262.456 165.744C257.789 164.458 256.637 167.661 249.937 165.815C243.809 164.126 242.272 160.006 243.054 156.014C244.066 150.843 248.796 149.343 251.377 148.314C253.397 147.509 255.763 146.433 257.59 143.904C260.715 139.577 264.672 136.637 270.069 138.125C275.466 139.612 277.358 144.164 277.825 149.481C278.098 152.589 279.578 154.724 280.901 156.451C282.59 158.657 285.884 162.369 284.104 167.328Z" fill="#E7D2FF"/>
<path d="M263.963 131.062C259.695 130.935 256.401 125.273 256.605 118.415C256.809 111.557 260.435 106.1 264.703 106.227C268.971 106.355 272.265 112.017 272.061 118.875C271.856 125.733 268.231 131.189 263.963 131.062Z" fill="#E7D2FF"/>
<path d="M250.316 141.499C246.412 142.479 241.971 138.189 240.396 131.916C238.821 125.643 240.708 119.764 244.612 118.783C248.516 117.803 252.957 122.094 254.533 128.367C256.108 134.64 254.22 140.519 250.316 141.499Z" fill="#E7D2FF"/>
<path d="M278.93 135.187C282.661 137.264 288.391 134.089 291.729 128.095C295.067 122.101 294.749 115.557 291.019 113.48C287.288 111.402 281.558 114.578 278.22 120.572C274.882 126.566 275.2 133.11 278.93 135.187Z" fill="#E7D2FF"/>
<path d="M285.305 151.142C288.156 153.984 294.168 152.575 298.735 147.995C303.301 143.415 304.692 137.398 301.842 134.556C298.991 131.714 292.979 133.123 288.413 137.703C283.846 142.283 282.455 148.3 285.305 151.142Z" fill="#E7D2FF"/>
<path d="M202.057 321.591C200.683 325.42 197.253 328.171 191.124 326.481C184.425 324.635 185.077 321.294 180.409 320.007C175.742 318.721 174.59 321.924 167.891 320.078C161.762 318.389 160.225 314.269 161.007 310.277C162.019 305.106 166.749 303.606 169.33 302.577C171.351 301.772 173.716 300.696 175.543 298.167C178.668 293.84 182.625 290.9 188.022 292.388C193.419 293.875 195.311 298.427 195.778 303.744C196.051 306.852 197.531 308.988 198.854 310.714C200.544 312.92 203.837 316.632 202.057 321.591Z" fill="#E7D2FF"/>
<path d="M181.916 285.327C177.648 285.199 174.354 279.537 174.558 272.679C174.762 265.821 178.388 260.364 182.656 260.492C186.924 260.619 190.218 266.281 190.014 273.139C189.809 279.997 186.184 285.453 181.916 285.327Z" fill="#E7D2FF"/>
<path d="M168.269 295.762C164.365 296.742 159.924 292.451 158.349 286.179C156.774 279.906 158.661 274.026 162.566 273.046C166.469 272.066 170.911 276.356 172.486 282.629C174.061 288.903 172.173 294.781 168.269 295.762Z" fill="#E7D2FF"/>
<path d="M196.884 289.451C200.614 291.528 206.344 288.353 209.682 282.359C213.02 276.364 212.702 269.821 208.972 267.744C205.242 265.666 199.511 268.842 196.173 274.836C192.835 280.83 193.153 287.373 196.884 289.451Z" fill="#E7D2FF"/>
<path d="M203.259 305.406C206.11 308.248 212.122 306.838 216.688 302.258C221.254 297.678 222.645 291.661 219.795 288.819C216.944 285.977 210.932 287.387 206.366 291.967C201.799 296.547 200.408 302.564 203.259 305.406Z" fill="#E7D2FF"/>
<path d="M269.309 238.028C266.696 241.145 266.05 245.494 270.6 249.936C275.572 254.79 278.129 252.542 281.593 255.924C285.058 259.306 282.872 261.916 287.845 266.77C292.394 271.211 296.726 270.461 299.779 267.773C303.735 264.291 302.645 259.45 302.232 256.702C301.908 254.552 301.644 251.966 302.907 249.113C305.068 244.233 305.612 239.333 301.606 235.423C297.6 231.513 292.715 232.174 287.888 234.452C285.067 235.783 282.476 235.581 280.318 235.31C277.561 234.963 272.695 233.991 269.309 238.028Z" fill="#E7D2FF"/>
<path d="M310.782 237.134C313.044 240.756 319.595 240.745 325.414 237.111C331.234 233.477 334.118 227.595 331.855 223.972C329.593 220.351 323.043 220.362 317.223 223.996C311.404 227.631 308.52 233.513 310.782 237.134Z" fill="#E7D2FF"/>
<path d="M308.651 254.183C309.773 258.049 315.718 259.721 321.929 257.918C328.14 256.115 332.266 251.52 331.143 247.654C330.022 243.789 324.077 242.117 317.865 243.92C311.654 245.723 307.529 250.318 308.651 254.183Z" fill="#E7D2FF"/>
<path d="M299.673 226.289C295.998 224.115 295.851 217.566 299.344 211.661C302.837 205.756 308.648 202.731 312.323 204.905C315.998 207.079 316.145 213.628 312.652 219.533C309.159 225.439 303.348 228.464 299.673 226.289Z" fill="#E7D2FF"/>
<path d="M282.68 228.829C278.788 227.801 276.974 221.898 278.626 215.645C280.279 209.393 284.773 205.158 288.665 206.186C292.557 207.214 294.371 213.117 292.718 219.37C291.066 225.623 286.571 229.858 282.68 228.829Z" fill="#E7D2FF"/>
<path d="M202.057 321.592C200.683 325.42 197.253 328.172 191.124 326.482C184.425 324.636 185.077 321.295 180.409 320.008C175.742 318.722 174.59 321.925 167.891 320.079C161.762 318.39 160.225 314.27 161.007 310.278C162.019 305.107 166.749 303.607 169.33 302.578C171.351 301.773 173.716 300.697 175.543 298.168C178.668 293.841 182.625 290.901 188.022 292.389C193.419 293.876 195.311 298.428 195.778 303.745C196.051 306.853 197.531 308.989 198.854 310.715C200.544 312.921 203.837 316.633 202.057 321.592Z" fill="#E7D2FF"/>
<path d="M181.916 285.327C177.648 285.2 174.354 279.538 174.558 272.68C174.762 265.822 178.388 260.365 182.656 260.492C186.924 260.62 190.218 266.282 190.014 273.14C189.809 279.998 186.184 285.454 181.916 285.327Z" fill="#E7D2FF"/>
<path d="M168.267 295.763C164.363 296.744 159.922 292.453 158.347 286.18C156.772 279.908 158.66 274.028 162.564 273.048C166.467 272.067 170.909 276.358 172.484 282.631C174.059 288.904 172.171 294.783 168.267 295.763Z" fill="#E7D2FF"/>
<path d="M196.884 289.452C200.614 291.53 206.344 288.354 209.682 282.36C213.02 276.366 212.702 269.823 208.972 267.745C205.242 265.668 199.511 268.843 196.173 274.837C192.835 280.832 193.153 287.375 196.884 289.452Z" fill="#E7D2FF"/>
<path d="M203.259 305.407C206.11 308.249 212.122 306.84 216.688 302.26C221.254 297.68 222.645 291.663 219.795 288.821C216.944 285.979 210.932 287.389 206.366 291.969C201.799 296.548 200.408 302.565 203.259 305.407Z" fill="#E7D2FF"/>
<path d="M150.975 495.495C150.401 499.521 147.595 502.907 141.251 502.487C134.318 502.028 134.283 498.624 129.452 498.305C124.621 497.985 124.138 501.355 117.204 500.896C110.861 500.476 108.526 496.75 108.487 492.683C108.437 487.414 112.768 484.992 115.089 483.464C116.905 482.268 119.006 480.738 120.285 477.892C122.474 473.025 125.758 469.348 131.344 469.718C136.93 470.087 139.7 474.164 141.229 479.278C142.122 482.268 144.003 484.061 145.646 485.485C147.745 487.307 151.719 490.278 150.975 495.495Z" fill="#E7D2FF"/>
<path d="M123.94 464.031C119.734 464.766 115.366 459.884 114.185 453.125C113.003 446.367 115.454 440.292 119.661 439.556C123.867 438.821 128.234 443.703 129.416 450.462C130.597 457.221 128.146 463.296 123.94 464.031Z" fill="#E7D2FF"/>
<path d="M112.676 477.003C109.05 478.75 103.835 475.442 101.029 469.616C98.2221 463.789 98.8865 457.649 102.513 455.903C106.139 454.156 111.354 457.464 114.161 463.291C116.968 469.118 116.302 475.256 112.676 477.003Z" fill="#E7D2FF"/>
<path d="M139.433 465.055C143.506 466.338 148.478 462.074 150.54 455.53C152.602 448.986 150.972 442.641 146.9 441.358C142.827 440.074 137.855 444.339 135.793 450.883C133.731 457.427 135.36 463.772 139.433 465.055Z" fill="#E7D2FF"/>
<path d="M148.891 479.398C152.256 481.608 157.861 479.016 161.411 473.61C164.961 468.204 165.111 462.03 161.746 459.821C158.382 457.611 152.777 460.203 149.227 465.609C145.677 471.015 145.526 477.189 148.891 479.398Z" fill="#E7D2FF"/>
<path d="M200.012 400.096C198.08 403.675 198.323 408.065 203.674 411.499C209.523 415.252 211.574 412.535 215.649 415.15C219.724 417.765 218.109 420.761 223.958 424.514C229.308 427.947 233.401 426.339 235.849 423.092C239.022 418.884 236.979 414.362 236.021 411.754C235.271 409.713 234.491 407.234 235.154 404.184C236.287 398.969 235.832 394.06 231.121 391.037C226.409 388.014 221.758 389.646 217.489 392.849C214.993 394.722 212.415 395.047 210.247 395.215C207.476 395.431 202.514 395.459 200.012 400.096Z" fill="#E7D2FF"/>
<path d="M240.454 390.864C243.399 393.956 249.813 392.626 254.781 387.893C259.749 383.161 261.389 376.819 258.443 373.727C255.498 370.635 249.084 371.965 244.116 376.698C239.149 381.43 237.509 387.773 240.454 390.864Z" fill="#E7D2FF"/>
<path d="M241.802 407.993C243.68 411.554 249.839 411.993 255.56 408.976C261.28 405.959 264.395 400.627 262.517 397.067C260.64 393.506 254.48 393.067 248.759 396.084C243.038 399.101 239.924 404.433 241.802 407.993Z" fill="#E7D2FF"/>
<path d="M227.387 382.48C223.349 381.091 221.885 374.706 224.117 368.218C226.349 361.73 231.431 357.597 235.469 358.986C239.507 360.374 240.97 366.76 238.739 373.248C236.507 379.736 231.425 383.869 227.387 382.48Z" fill="#E7D2FF"/>
<path d="M211.256 388.392C207.237 388.168 204.27 382.752 204.629 376.294C204.988 369.837 208.537 364.783 212.556 365.006C216.575 365.23 219.541 370.646 219.182 377.104C218.824 383.561 215.275 388.615 211.256 388.392Z" fill="#E7D2FF"/>
<path d="M101.692 663.126C101.117 667.152 98.3121 670.538 91.9683 670.118C85.0344 669.659 85 666.255 80.1688 665.935C75.3377 665.616 74.8548 668.986 67.9209 668.527C61.5775 668.107 59.2424 664.381 59.2038 660.314C59.1535 655.045 63.4846 652.623 65.8053 651.095C67.6219 649.899 69.7225 648.369 71.0022 645.523C73.191 640.656 76.4748 636.979 82.0607 637.348C87.6467 637.718 90.4171 641.795 91.9455 646.909C92.8389 649.899 94.7195 651.692 96.3629 653.116C98.4623 654.937 102.436 657.909 101.692 663.126Z" fill="#E7D2FF"/>
<path d="M74.6566 631.662C70.4505 632.397 66.083 627.514 64.9013 620.756C63.7194 613.998 66.1711 607.923 70.3779 607.187C74.584 606.452 78.9511 611.334 80.1328 618.093C81.314 624.851 78.8623 630.926 74.6566 631.662Z" fill="#E7D2FF"/>
<path d="M63.3911 644.633C59.7645 646.38 54.55 643.072 51.7434 637.246C48.937 631.419 49.6014 625.279 53.228 623.532C56.8541 621.786 62.0687 625.094 64.8755 630.921C67.6824 636.748 67.0173 642.886 63.3911 644.633Z" fill="#E7D2FF"/>
<path d="M90.1496 632.686C94.2224 633.97 99.1951 629.705 101.257 623.161C103.319 616.617 101.689 610.272 97.6164 608.989C93.5443 607.706 88.5714 611.971 86.5094 618.514C84.4475 625.058 86.0769 631.403 90.1496 632.686Z" fill="#E7D2FF"/>
<path d="M99.6078 647.03C102.973 649.239 108.578 646.647 112.128 641.241C115.678 635.835 115.828 629.662 112.463 627.452C109.099 625.242 103.494 627.835 99.9438 633.241C96.3934 638.647 96.2432 644.821 99.6078 647.03Z" fill="#E7D2FF"/>
<path d="M150.728 567.726C148.797 571.306 149.04 575.696 154.391 579.129C160.24 582.882 162.291 580.165 166.366 582.78C170.441 585.395 168.826 588.392 174.674 592.144C180.025 595.578 184.117 593.97 186.566 590.722C189.739 586.515 187.696 581.992 186.738 579.384C185.988 577.343 185.208 574.864 185.871 571.815C187.004 566.599 186.549 561.691 181.838 558.668C177.126 555.644 172.475 557.276 168.206 560.48C165.71 562.353 163.132 562.677 160.964 562.845C158.193 563.062 153.231 563.089 150.728 567.726Z" fill="#E7D2FF"/>
<path d="M191.17 558.495C194.116 561.586 200.53 560.256 205.498 555.524C210.466 550.792 212.105 544.449 209.16 541.357C206.215 538.265 199.801 539.596 194.833 544.328C189.865 549.061 188.226 555.403 191.17 558.495Z" fill="#E7D2FF"/>
<path d="M192.518 575.624C194.396 579.184 200.556 579.624 206.276 576.607C211.997 573.589 215.112 568.257 213.234 564.697C211.357 561.137 205.197 560.697 199.476 563.714C193.755 566.732 190.641 572.063 192.518 575.624Z" fill="#E7D2FF"/>
<path d="M178.104 550.111C174.066 548.721 172.602 542.336 174.834 535.848C177.066 529.36 182.148 525.227 186.186 526.616C190.224 528.005 191.687 534.39 189.455 540.878C187.224 547.366 182.142 551.5 178.104 550.111Z" fill="#E7D2FF"/>
<path d="M161.973 556.022C157.953 555.798 154.987 550.382 155.346 543.925C155.705 537.467 159.254 532.414 163.273 532.637C167.292 532.86 170.258 538.276 169.899 544.734C169.541 551.192 165.991 556.246 161.973 556.022Z" fill="#E7D2FF"/>
<path d="M101.692 663.126C101.117 667.153 98.3121 670.538 91.9683 670.118C85.0344 669.66 85 666.255 80.1688 665.936C75.3377 665.616 74.8548 668.986 67.9209 668.527C61.5775 668.108 59.2424 664.382 59.2038 660.315C59.1535 655.045 63.4846 652.623 65.8053 651.095C67.6219 649.9 69.7225 648.37 71.0022 645.524C73.191 640.656 76.4748 636.979 82.0607 637.349C87.6467 637.719 90.4171 641.796 91.9455 646.91C92.8389 649.899 94.7195 651.693 96.3629 653.117C98.4623 654.938 102.436 657.91 101.692 663.126Z" fill="#E7D2FF"/>
<path d="M74.6566 631.662C70.4505 632.398 66.083 627.515 64.9013 620.756C63.7194 613.998 66.1711 607.923 70.3779 607.188C74.584 606.452 78.9511 611.335 80.1328 618.093C81.314 624.852 78.8623 630.927 74.6566 631.662Z" fill="#E7D2FF"/>
<path d="M63.3911 644.634C59.7645 646.381 54.55 643.073 51.7434 637.247C48.937 631.42 49.6014 625.28 53.228 623.533C56.8541 621.787 62.0687 625.094 64.8755 630.922C67.6824 636.749 67.0173 642.887 63.3911 644.634Z" fill="#E7D2FF"/>
<path d="M90.1496 632.687C94.2224 633.971 99.1951 629.706 101.257 623.162C103.319 616.618 101.689 610.273 97.6164 608.99C93.5443 607.707 88.5714 611.972 86.5094 618.515C84.4475 625.059 86.0769 631.404 90.1496 632.687Z" fill="#E7D2FF"/>
<path d="M99.6078 647.031C102.973 649.24 108.578 646.648 112.128 641.242C115.678 635.836 115.828 629.663 112.463 627.453C109.099 625.243 103.494 627.836 99.9438 633.242C96.3934 638.648 96.2432 644.822 99.6078 647.031Z" fill="#E7D2FF"/>
<path d="M79.5147 858.334C79.7443 862.395 77.6607 866.267 71.3585 867.105C64.47 868.02 63.7658 864.69 58.9664 865.328C54.1669 865.966 54.3571 869.365 47.4686 870.28C41.1668 871.118 38.1438 867.925 37.3049 863.945C36.2178 858.789 39.987 855.561 41.9614 853.606C43.507 852.077 45.2651 850.163 45.9593 847.121C47.1466 841.917 49.642 837.666 55.1913 836.928C60.7407 836.191 64.2598 839.642 66.7654 844.355C68.2301 847.11 70.427 848.498 72.3187 849.57C74.7356 850.942 79.217 853.073 79.5147 858.334Z" fill="#E7D2FF"/>
<path d="M46.8129 832.811C42.8339 834.36 37.5903 830.433 35.1007 824.04C32.6111 817.647 33.8183 811.208 37.7978 809.658C41.7767 808.109 47.0199 812.036 49.5095 818.429C51.9986 824.823 50.7913 831.262 46.8129 832.811Z" fill="#E7D2FF"/>
<path d="M38.3235 847.748C35.112 850.174 29.348 847.958 25.4489 842.799C21.5499 837.638 20.9922 831.488 24.2038 829.062C27.4149 826.635 33.1789 828.851 37.0783 834.011C40.9778 839.171 41.5346 845.321 38.3235 847.748Z" fill="#E7D2FF"/>
<path d="M62.2032 830.764C66.4489 831.22 70.4844 826.059 71.2172 819.238C71.95 812.416 69.1025 806.516 64.8568 806.06C60.6116 805.604 56.5761 810.765 55.8433 817.586C55.1104 824.408 57.9575 830.308 62.2032 830.764Z" fill="#E7D2FF"/>
<path d="M74.3013 842.964C78.0356 844.467 83.0202 840.823 85.436 834.823C87.8517 828.824 86.783 822.742 83.0493 821.238C79.3156 819.734 74.3308 823.38 71.9151 829.379C69.4989 835.378 70.5675 841.461 74.3013 842.964Z" fill="#E7D2FF"/>
<path d="M108.801 755.146C107.612 759.035 108.715 763.292 114.638 765.604C121.111 768.132 122.587 765.064 127.097 766.825C131.607 768.586 130.614 771.842 137.087 774.37C143.009 776.682 146.704 774.3 148.466 770.633C150.748 765.883 147.854 761.852 146.401 759.484C145.264 757.63 144.011 755.353 144.06 752.233C144.144 746.897 142.732 742.174 137.517 740.138C132.302 738.102 128.063 740.617 124.509 744.599C122.431 746.927 119.967 747.752 117.874 748.345C115.201 749.102 110.341 750.107 108.801 755.146Z" fill="#E7D2FF"/>
<path d="M146.633 738.13C150.13 740.581 156.157 738.014 160.095 732.396C164.034 726.778 164.392 720.237 160.895 717.785C157.399 715.334 151.372 717.902 147.434 723.52C143.496 729.138 143.137 735.679 146.633 738.13Z" fill="#E7D2FF"/>
<path d="M151.328 754.658C153.871 757.779 159.996 756.997 165.01 752.912C170.025 748.828 172.029 742.987 169.486 739.866C166.944 736.745 160.819 737.527 155.804 741.612C150.79 745.697 148.786 751.537 151.328 754.658Z" fill="#E7D2FF"/>
<path d="M132.172 732.484C127.939 731.917 125.247 725.945 126.157 719.145C127.068 712.344 131.236 707.291 135.469 707.858C139.701 708.424 142.393 714.396 141.483 721.197C140.572 727.997 136.404 733.051 132.172 732.484Z" fill="#E7D2FF"/>
<path d="M117.52 741.457C113.535 742.029 109.56 737.303 108.64 730.901C107.72 724.5 110.205 718.846 114.189 718.273C118.173 717.701 122.148 722.427 123.068 728.829C123.988 735.23 121.504 740.884 117.52 741.457Z" fill="#E7D2FF"/>
<path d="M64.21 1032.39C64.4396 1036.45 62.3561 1040.32 56.0538 1041.16C49.1653 1042.07 48.4611 1038.74 43.6617 1039.38C38.8622 1040.02 39.0524 1043.42 32.1639 1044.33C25.8621 1045.17 22.8391 1041.98 22.0002 1038C20.9131 1032.84 24.6823 1029.62 26.6568 1027.66C28.2023 1026.13 29.9604 1024.22 30.6546 1021.17C31.842 1015.97 34.3373 1011.72 39.8867 1010.98C45.436 1010.24 48.9551 1013.7 51.4607 1018.41C52.9254 1021.16 55.1223 1022.55 57.014 1023.62C59.4309 1025 63.9124 1027.13 64.21 1032.39Z" fill="#E7D2FF"/>
<path d="M31.5082 1006.87C27.5292 1008.41 22.2856 1004.49 19.7961 998.094C17.3064 991.701 18.5136 985.262 22.4931 983.712C26.472 982.163 31.7152 986.09 34.2048 992.483C36.6939 998.877 35.4867 1005.32 31.5082 1006.87Z" fill="#E7D2FF"/>
<path d="M23.0169 1021.8C19.8053 1024.23 14.0414 1022.01 10.1423 1016.85C6.2433 1011.69 5.6856 1005.54 8.89717 1003.12C12.1083 1000.69 17.8722 1002.9 21.7717 1008.06C25.6711 1013.23 26.228 1019.37 23.0169 1021.8Z" fill="#E7D2FF"/>
<path d="M46.8985 1004.82C51.1442 1005.27 55.1797 1000.11 55.9125 993.292C56.6453 986.47 53.7978 980.571 49.5521 980.115C45.3069 979.658 41.2714 984.819 40.5386 991.641C39.8057 998.463 42.6528 1004.36 46.8985 1004.82Z" fill="#E7D2FF"/>
<path d="M58.9966 1017.02C62.7309 1018.52 67.7155 1014.88 70.1313 1008.88C72.547 1002.88 71.4783 996.796 67.7446 995.292C64.0109 993.788 59.0261 997.434 56.6104 1003.43C54.1942 1009.43 55.2628 1015.52 58.9966 1017.02Z" fill="#E7D2FF"/>
<path d="M93.4981 929.2C92.3095 933.089 93.4126 937.345 99.3348 939.658C105.808 942.185 107.284 939.118 111.794 940.879C116.304 942.64 115.311 945.896 121.784 948.423C127.706 950.736 131.402 948.353 133.163 944.687C135.445 939.937 132.551 935.906 131.098 933.537C129.961 931.684 128.708 929.407 128.758 926.287C128.842 920.95 127.429 916.227 122.214 914.191C116.999 912.155 112.76 914.671 109.206 918.653C107.128 920.98 104.664 921.806 102.572 922.398C99.8978 923.156 95.0383 924.16 93.4981 929.2Z" fill="#E7D2FF"/>
<path d="M131.331 912.183C134.827 914.634 140.854 912.067 144.793 906.449C148.731 900.831 149.09 894.29 145.593 891.838C142.096 889.387 136.07 891.955 132.131 897.573C128.193 903.191 127.835 909.732 131.331 912.183Z" fill="#E7D2FF"/>
<path d="M136.025 928.712C138.568 931.833 144.693 931.051 149.708 926.966C154.722 922.881 156.726 917.04 154.184 913.919C151.642 910.799 145.516 911.581 140.501 915.666C135.487 919.75 133.484 925.591 136.025 928.712Z" fill="#E7D2FF"/>
<path d="M116.869 906.537C112.637 905.97 109.944 899.998 110.854 893.198C111.765 886.398 115.934 881.344 120.166 881.911C124.398 882.477 127.09 888.45 126.18 895.25C125.27 902.05 121.101 907.104 116.869 906.537Z" fill="#E7D2FF"/>
<path d="M102.217 915.509C98.2323 916.081 94.2574 911.356 93.3376 904.954C92.4177 898.552 94.9021 892.899 98.8863 892.326C102.87 891.753 106.845 896.48 107.765 902.881C108.686 909.283 106.201 914.937 102.217 915.509Z" fill="#E7D2FF"/>
<path d="M64.21 1032.39C64.4396 1036.45 62.3561 1040.32 56.0538 1041.16C49.1653 1042.07 48.4611 1038.74 43.6617 1039.38C38.8622 1040.02 39.0524 1043.42 32.1639 1044.33C25.8621 1045.17 22.8391 1041.98 22.0002 1038C20.9131 1032.84 24.6823 1029.61 26.6568 1027.66C28.2023 1026.13 29.9604 1024.22 30.6546 1021.17C31.842 1015.97 34.3373 1011.72 39.8867 1010.98C45.436 1010.24 48.9551 1013.7 51.4607 1018.41C52.9254 1021.16 55.1223 1022.55 57.014 1023.62C59.4309 1025 63.9124 1027.13 64.21 1032.39Z" fill="#E7D2FF"/>
<path d="M31.5082 1006.86C27.5292 1008.41 22.2856 1004.49 19.7961 998.093C17.3064 991.7 18.5136 985.261 22.4931 983.711C26.472 982.162 31.7152 986.089 34.2048 992.482C36.6939 998.876 35.4867 1005.31 31.5082 1006.86Z" fill="#E7D2FF"/>
<path d="M23.0169 1021.8C19.8053 1024.23 14.0414 1022.01 10.1423 1016.85C6.2433 1011.69 5.6856 1005.54 8.89717 1003.11C12.1083 1000.69 17.8722 1002.9 21.7717 1008.06C25.6711 1013.22 26.228 1019.37 23.0169 1021.8Z" fill="#E7D2FF"/>
<path d="M46.8985 1004.82C51.1442 1005.27 55.1797 1000.11 55.9125 993.291C56.6453 986.47 53.7978 980.57 49.5521 980.114C45.3069 979.657 41.2714 984.818 40.5386 991.64C39.8057 998.462 42.6528 1004.36 46.8985 1004.82Z" fill="#E7D2FF"/>
<path d="M58.9966 1017.02C62.7309 1018.52 67.7155 1014.88 70.1313 1008.88C72.547 1002.88 71.4783 996.796 67.7446 995.292C64.0109 993.788 59.0261 997.434 56.6104 1003.43C54.1942 1009.43 55.2628 1015.52 58.9966 1017.02Z" fill="#E7D2FF"/>
<path d="M133.505 1204.93C135.098 1208.67 134.452 1213.02 128.807 1215.94C122.637 1219.14 120.845 1216.25 116.547 1218.47C112.248 1220.7 113.58 1223.84 107.41 1227.03C101.766 1229.96 97.839 1227.98 95.7001 1224.52C92.9287 1220.04 95.3799 1215.72 96.5743 1213.21C97.5094 1211.25 98.5142 1208.85 98.1356 1205.76C97.4879 1200.46 98.3934 1195.61 103.364 1193.04C108.334 1190.46 112.815 1192.52 116.771 1196.1C119.083 1198.19 121.62 1198.75 123.764 1199.12C126.503 1199.59 131.441 1200.08 133.505 1204.93Z" fill="#E7D2FF"/>
<path d="M94.0843 1192.01C90.8666 1194.81 84.6019 1192.9 80.0916 1187.73C75.5813 1182.56 74.5333 1176.09 77.7514 1173.28C80.9691 1170.48 87.2333 1172.39 91.7436 1177.56C96.2535 1182.73 97.3015 1189.2 94.0843 1192.01Z" fill="#E7D2FF"/>
<path d="M91.1641 1208.94C88.9659 1212.31 82.792 1212.18 77.3741 1208.65C71.9561 1205.12 69.3458 1199.52 71.544 1196.15C73.7418 1192.78 79.9157 1192.91 85.3341 1196.44C90.7525 1199.97 93.3619 1205.57 91.1641 1208.94Z" fill="#E7D2FF"/>
<path d="M107.869 1184.86C112.017 1183.85 114.063 1177.63 112.439 1170.96C110.815 1164.3 106.136 1159.71 101.987 1160.72C97.8385 1161.73 95.7924 1167.96 97.4165 1174.62C99.0407 1181.29 103.72 1185.87 107.869 1184.86Z" fill="#E7D2FF"/>
<path d="M123.387 1192.24C127.41 1192.38 130.863 1187.26 131.101 1180.8C131.339 1174.34 128.271 1168.98 124.249 1168.83C120.226 1168.68 116.773 1173.8 116.535 1180.26C116.297 1186.73 119.365 1192.09 123.387 1192.24Z" fill="#E7D2FF"/>
<path d="M126.06 1097.92C126.261 1101.98 128.742 1105.61 135.098 1105.78C142.044 1105.96 142.392 1102.58 147.233 1102.7C152.073 1102.83 152.243 1106.23 159.189 1106.41C165.544 1106.58 168.213 1103.09 168.627 1099.04C169.162 1093.8 165.073 1090.99 162.903 1089.25C161.204 1087.89 159.254 1086.17 158.242 1083.22C156.511 1078.17 153.58 1074.21 147.984 1074.06C142.388 1073.92 139.253 1077.72 137.26 1082.67C136.095 1085.57 134.057 1087.18 132.289 1088.45C130.031 1090.07 125.8 1092.66 126.06 1097.92Z" fill="#E7D2FF"/>
<path d="M155.881 1069.08C160.001 1070.2 164.8 1065.74 166.6 1059.12C168.4 1052.5 166.519 1046.23 162.398 1045.11C158.277 1043.99 153.479 1048.45 151.679 1055.07C149.879 1061.69 151.761 1067.96 155.881 1069.08Z" fill="#E7D2FF"/>
<path d="M165.903 1083.04C169.353 1085.11 174.85 1082.3 178.182 1076.76C181.514 1071.21 181.418 1065.04 177.968 1062.97C174.518 1060.89 169.021 1063.71 165.689 1069.25C162.357 1074.79 162.453 1080.97 165.903 1083.04Z" fill="#E7D2FF"/>
<path d="M140.361 1068.68C136.187 1069.58 131.629 1064.87 130.179 1058.17C128.729 1051.46 130.937 1045.29 135.111 1044.39C139.284 1043.49 143.843 1048.19 145.292 1054.9C146.742 1061.61 144.535 1067.77 140.361 1068.68Z" fill="#E7D2FF"/>
<path d="M129.621 1082.09C126.066 1083.98 120.724 1080.88 117.688 1075.17C114.652 1069.46 115.071 1063.3 118.625 1061.41C122.179 1059.52 127.521 1062.61 130.558 1068.33C133.594 1074.04 133.175 1080.2 129.621 1082.09Z" fill="#E7D2FF"/>
<path d="M178.136 1373.86C179.729 1377.6 179.082 1381.95 173.438 1384.87C167.268 1388.07 165.476 1385.18 161.177 1387.4C156.879 1389.63 158.21 1392.76 152.041 1395.96C146.397 1398.89 142.47 1396.91 140.331 1393.45C137.56 1388.97 140.011 1384.65 141.205 1382.14C142.14 1380.18 143.145 1377.78 142.766 1374.69C142.119 1369.39 143.024 1364.54 147.995 1361.97C152.965 1359.39 157.446 1361.44 161.401 1365.03C163.714 1367.12 166.251 1367.68 168.395 1368.05C171.133 1368.52 176.072 1369.01 178.136 1373.86Z" fill="#E7D2FF"/>
<path d="M138.715 1360.94C135.497 1363.74 129.233 1361.83 124.722 1356.66C120.212 1351.49 119.164 1345.02 122.382 1342.21C125.6 1339.4 131.864 1341.32 136.374 1346.49C140.884 1351.66 141.932 1358.13 138.715 1360.94Z" fill="#E7D2FF"/>
<path d="M135.793 1377.87C133.595 1381.24 127.421 1381.11 122.003 1377.58C116.585 1374.04 113.975 1368.45 116.173 1365.08C118.371 1361.7 124.545 1361.83 129.963 1365.37C135.381 1368.9 137.991 1374.49 135.793 1377.87Z" fill="#E7D2FF"/>
<path d="M152.499 1353.79C156.648 1352.78 158.694 1346.56 157.07 1339.89C155.446 1333.22 150.766 1328.64 146.618 1329.65C142.469 1330.66 140.423 1336.89 142.047 1343.55C143.672 1350.22 148.351 1354.8 152.499 1353.79Z" fill="#E7D2FF"/>
<path d="M168.018 1361.17C172.041 1361.31 175.494 1356.19 175.732 1349.73C175.97 1343.27 172.902 1337.91 168.88 1337.76C164.857 1337.61 161.404 1342.73 161.166 1349.19C160.928 1355.66 163.996 1361.02 168.018 1361.17Z" fill="#E7D2FF"/>
<path d="M170.691 1266.85C170.892 1270.91 173.373 1274.54 179.729 1274.71C186.675 1274.89 187.023 1271.5 191.863 1271.63C196.703 1271.76 196.874 1275.16 203.82 1275.34C210.175 1275.51 212.844 1272.01 213.257 1267.97C213.793 1262.72 209.704 1259.91 207.534 1258.18C205.835 1256.82 203.885 1255.1 202.873 1252.15C201.142 1247.1 198.211 1243.14 192.615 1242.99C187.019 1242.84 183.884 1246.65 181.891 1251.6C180.726 1254.49 178.688 1256.11 176.92 1257.37C174.662 1258.99 170.431 1261.59 170.691 1266.85Z" fill="#E7D2FF"/>
<path d="M200.511 1238.01C204.632 1239.13 209.431 1234.67 211.231 1228.05C213.031 1221.43 211.149 1215.16 207.028 1214.04C202.908 1212.92 198.109 1217.37 196.31 1224C194.51 1230.62 196.391 1236.89 200.511 1238.01Z" fill="#E7D2FF"/>
<path d="M210.533 1251.97C213.984 1254.04 219.481 1251.23 222.813 1245.69C226.144 1240.14 226.049 1233.97 222.599 1231.89C219.149 1229.82 213.652 1232.63 210.32 1238.18C206.988 1243.72 207.084 1249.89 210.533 1251.97Z" fill="#E7D2FF"/>
<path d="M184.992 1237.6C180.818 1238.51 176.26 1233.8 174.81 1227.09C173.36 1220.39 175.568 1214.22 179.742 1213.32C183.915 1212.42 188.473 1217.12 189.923 1223.83C191.373 1230.53 189.166 1236.7 184.992 1237.6Z" fill="#E7D2FF"/>
<path d="M174.252 1251.01C170.697 1252.9 165.355 1249.81 162.319 1244.1C159.282 1238.39 159.702 1232.22 163.256 1230.33C166.81 1228.44 172.152 1231.54 175.188 1237.25C178.225 1242.96 177.806 1249.12 174.252 1251.01Z" fill="#E7D2FF"/>
<path d="M178.136 1373.85C179.729 1377.6 179.082 1381.95 173.438 1384.87C167.268 1388.07 165.476 1385.17 161.177 1387.4C156.879 1389.63 158.21 1392.76 152.041 1395.96C146.397 1398.89 142.47 1396.91 140.331 1393.45C137.56 1388.97 140.011 1384.65 141.205 1382.14C142.14 1380.18 143.145 1377.78 142.766 1374.69C142.119 1369.39 143.024 1364.54 147.995 1361.97C152.965 1359.39 157.446 1361.44 161.401 1365.03C163.714 1367.12 166.251 1367.68 168.395 1368.05C171.133 1368.52 176.072 1369.01 178.136 1373.85Z" fill="#E7D2FF"/>
<path d="M138.715 1360.94C135.497 1363.74 129.233 1361.83 124.722 1356.66C120.212 1351.49 119.164 1345.02 122.382 1342.21C125.6 1339.4 131.864 1341.32 136.374 1346.49C140.884 1351.66 141.932 1358.13 138.715 1360.94Z" fill="#E7D2FF"/>
<path d="M135.793 1377.87C133.595 1381.24 127.421 1381.11 122.003 1377.58C116.585 1374.04 113.975 1368.45 116.173 1365.08C118.371 1361.7 124.545 1361.83 129.963 1365.37C135.381 1368.9 137.991 1374.49 135.793 1377.87Z" fill="#E7D2FF"/>
<path d="M152.499 1353.79C156.648 1352.78 158.694 1346.56 157.07 1339.89C155.446 1333.22 150.766 1328.64 146.618 1329.65C142.469 1330.66 140.423 1336.88 142.047 1343.55C143.672 1350.22 148.351 1354.8 152.499 1353.79Z" fill="#E7D2FF"/>
<path d="M168.018 1361.16C172.041 1361.31 175.494 1356.19 175.732 1349.73C175.97 1343.27 172.902 1337.91 168.88 1337.76C164.857 1337.61 161.404 1342.73 161.166 1349.19C160.928 1355.66 163.996 1361.02 168.018 1361.16Z" fill="#E7D2FF"/>
<path d="M261.462 1527.96C263.623 1531.41 263.668 1535.81 258.553 1539.58C252.962 1543.71 250.737 1541.13 246.842 1544.01C242.947 1546.88 244.754 1549.77 239.163 1553.89C234.049 1557.67 229.86 1556.33 227.204 1553.25C223.763 1549.26 225.506 1544.62 226.292 1541.95C226.907 1539.86 227.522 1537.34 226.662 1534.34C225.19 1529.21 225.323 1524.28 229.827 1520.96C234.331 1517.63 239.079 1518.96 243.548 1521.87C246.161 1523.58 248.755 1523.74 250.93 1523.76C253.709 1523.8 258.662 1523.5 261.462 1527.96Z" fill="#E7D2FF"/>
<path d="M220.502 1521.4C217.765 1524.67 211.277 1523.77 206.01 1519.37C200.744 1514.97 198.693 1508.75 201.43 1505.47C204.167 1502.19 210.654 1503.1 215.921 1507.5C221.187 1511.9 223.238 1518.12 220.502 1521.4Z" fill="#E7D2FF"/>
<path d="M220.277 1538.58C218.635 1542.25 212.518 1543.09 206.612 1540.46C200.707 1537.82 197.25 1532.7 198.891 1529.03C200.532 1525.35 206.649 1524.51 212.555 1527.15C218.461 1529.78 221.917 1534.9 220.277 1538.58Z" fill="#E7D2FF"/>
<path d="M232.992 1512.17C236.93 1510.52 237.973 1504.06 235.322 1497.73C232.671 1491.4 227.329 1487.61 223.391 1489.26C219.453 1490.91 218.41 1497.38 221.061 1503.7C223.712 1510.03 229.053 1513.82 232.992 1512.17Z" fill="#E7D2FF"/>
<path d="M249.477 1517.02C253.473 1516.53 256.079 1510.93 255.298 1504.51C254.518 1498.09 250.646 1493.28 246.65 1493.77C242.654 1494.25 240.049 1499.85 240.829 1506.27C241.609 1512.69 245.481 1517.5 249.477 1517.02Z" fill="#E7D2FF"/>
<path d="M237.301 1423.45C238.138 1427.43 241.158 1430.63 247.461 1429.8C254.35 1428.89 254.162 1425.49 258.962 1424.85C263.762 1424.22 264.464 1427.55 271.353 1426.64C277.656 1425.8 279.742 1421.93 279.515 1417.87C279.22 1412.61 274.74 1410.48 272.325 1409.1C270.434 1408.03 268.238 1406.64 266.775 1403.88C264.272 1399.17 260.755 1395.72 255.205 1396.45C249.655 1397.18 247.157 1401.43 245.967 1406.64C245.271 1409.68 243.511 1411.59 241.964 1413.12C239.989 1415.07 236.217 1418.3 237.301 1423.45Z" fill="#E7D2FF"/>
<path d="M262.219 1390.29C266.464 1390.75 270.503 1385.59 271.24 1378.77C271.978 1371.95 269.134 1366.05 264.889 1365.59C260.643 1365.13 256.605 1370.29 255.868 1377.11C255.131 1383.93 257.974 1389.83 262.219 1390.29Z" fill="#E7D2FF"/>
<path d="M274.31 1402.5C278.043 1404.01 283.03 1400.36 285.45 1394.37C287.869 1388.37 286.805 1382.29 283.072 1380.78C279.339 1379.27 274.352 1382.92 271.932 1388.91C269.512 1394.91 270.577 1400.99 274.31 1402.5Z" fill="#E7D2FF"/>
<path d="M246.83 1392.33C242.849 1393.87 237.609 1389.94 235.123 1383.55C232.638 1377.15 233.849 1370.72 237.83 1369.17C241.809 1367.62 247.05 1371.55 249.535 1377.95C252.021 1384.34 250.81 1390.78 246.83 1392.33Z" fill="#E7D2FF"/>
<path d="M238.328 1407.26C235.115 1409.68 229.352 1407.46 225.457 1402.3C221.561 1397.14 221.007 1390.99 224.22 1388.56C227.433 1386.14 233.196 1388.36 237.091 1393.52C240.987 1398.68 241.541 1404.83 238.328 1407.26Z" fill="#E7D2FF"/>
<path d="M332.077 1687.78C334.238 1691.23 334.283 1695.63 329.168 1699.4C323.577 1703.53 321.353 1700.95 317.457 1703.83C313.562 1706.7 315.369 1709.59 309.779 1713.72C304.664 1717.49 300.475 1716.15 297.819 1713.07C294.378 1709.08 296.121 1704.44 296.907 1701.77C297.522 1699.68 298.138 1697.16 297.277 1694.16C295.805 1689.03 295.938 1684.1 300.442 1680.78C304.946 1677.45 309.694 1678.78 314.164 1681.7C316.776 1683.4 319.37 1683.56 321.545 1683.58C324.324 1683.62 329.277 1683.32 332.077 1687.78Z" fill="#E7D2FF"/>
<path d="M291.117 1681.22C288.38 1684.49 281.892 1683.59 276.626 1679.19C271.359 1674.79 269.308 1668.57 272.045 1665.29C274.782 1662.01 281.27 1662.92 286.536 1667.32C291.802 1671.72 293.853 1677.94 291.117 1681.22Z" fill="#E7D2FF"/>
<path d="M290.892 1698.4C289.251 1702.07 283.133 1702.91 277.228 1700.28C271.322 1697.64 267.865 1692.52 269.506 1688.85C271.147 1685.17 277.265 1684.33 283.171 1686.97C289.076 1689.6 292.533 1694.72 290.892 1698.4Z" fill="#E7D2FF"/>
<path d="M303.607 1672C307.545 1670.35 308.589 1663.88 305.937 1657.55C303.286 1651.22 297.945 1647.43 294.006 1649.08C290.068 1650.73 289.025 1657.2 291.676 1663.52C294.327 1669.85 299.669 1673.65 303.607 1672Z" fill="#E7D2FF"/>
<path d="M320.092 1676.84C324.088 1676.35 326.694 1670.75 325.913 1664.33C325.133 1657.91 321.261 1653.1 317.265 1653.59C313.27 1654.07 310.664 1659.67 311.444 1666.09C312.224 1672.51 316.096 1677.33 320.092 1676.84Z" fill="#E7D2FF"/>
<path d="M307.916 1583.27C308.753 1587.26 311.774 1590.45 318.076 1589.62C324.965 1588.71 324.777 1585.31 329.577 1584.67C334.377 1584.04 335.079 1587.37 341.968 1586.46C348.271 1585.62 350.357 1581.75 350.13 1577.69C349.836 1572.43 345.355 1570.3 342.94 1568.92C341.049 1567.85 338.853 1566.46 337.39 1563.7C334.887 1558.99 331.37 1555.54 325.82 1556.27C320.271 1557 317.773 1561.25 316.582 1566.46C315.886 1569.5 314.127 1571.41 312.58 1572.94C310.604 1574.89 306.833 1578.12 307.916 1583.27Z" fill="#E7D2FF"/>
<path d="M332.836 1550.11C337.081 1550.57 341.12 1545.41 341.858 1538.59C342.595 1531.77 339.752 1525.87 335.506 1525.41C331.261 1524.95 327.222 1530.11 326.485 1536.93C325.748 1543.75 328.591 1549.65 332.836 1550.11Z" fill="#E7D2FF"/>
<path d="M317.445 1552.15C313.465 1553.69 308.224 1549.76 305.738 1543.37C303.253 1536.97 304.465 1530.53 308.445 1528.99C312.424 1527.44 317.665 1531.37 320.151 1537.77C322.636 1544.16 321.425 1550.6 317.445 1552.15Z" fill="#E7D2FF"/>
<path d="M308.943 1567.08C305.73 1569.5 299.968 1567.28 296.072 1562.12C292.176 1556.96 291.623 1550.81 294.835 1548.38C298.048 1545.96 303.811 1548.18 307.707 1553.34C311.603 1558.5 312.156 1564.65 308.943 1567.08Z" fill="#E7D2FF"/>
<path d="M332.077 1687.78C334.238 1691.23 334.283 1695.62 329.168 1699.4C323.577 1703.53 321.353 1700.95 317.457 1703.83C313.562 1706.7 315.369 1709.59 309.779 1713.71C304.664 1717.49 300.475 1716.15 297.819 1713.07C294.378 1709.08 296.121 1704.44 296.907 1701.77C297.522 1699.68 298.138 1697.16 297.277 1694.16C295.805 1689.03 295.938 1684.1 300.442 1680.78C304.946 1677.45 309.694 1678.78 314.164 1681.69C316.776 1683.4 319.37 1683.55 321.545 1683.58C324.324 1683.62 329.277 1683.32 332.077 1687.78Z" fill="#E7D2FF"/>
<path d="M291.117 1681.22C288.38 1684.49 281.892 1683.59 276.626 1679.19C271.359 1674.79 269.308 1668.57 272.045 1665.29C274.782 1662.01 281.27 1662.92 286.536 1667.32C291.802 1671.72 293.853 1677.94 291.117 1681.22Z" fill="#E7D2FF"/>
<path d="M290.892 1698.4C289.251 1702.07 283.133 1702.91 277.228 1700.28C271.322 1697.64 267.865 1692.52 269.506 1688.85C271.147 1685.17 277.265 1684.33 283.171 1686.97C289.076 1689.6 292.533 1694.72 290.892 1698.4Z" fill="#E7D2FF"/>
<path d="M303.607 1672C307.545 1670.35 308.589 1663.88 305.937 1657.55C303.286 1651.22 297.945 1647.43 294.006 1649.08C290.068 1650.73 289.025 1657.2 291.676 1663.52C294.327 1669.85 299.669 1673.65 303.607 1672Z" fill="#E7D2FF"/>
<path d="M320.092 1676.84C324.088 1676.35 326.694 1670.76 325.913 1664.34C325.133 1657.92 321.261 1653.1 317.265 1653.59C313.27 1654.08 310.664 1659.67 311.444 1666.09C312.224 1672.51 316.096 1677.33 320.092 1676.84Z" fill="#E7D2FF"/>
</svg>
